<svg xmlns="http://www.w3.org/2000/svg" xmlns:xlink="http://www.w3.org/1999/xlink" contentStyleType="text/css" data-diagram-type="DESCRIPTION" height="739px" preserveAspectRatio="none" style="width:249px;height:739px;background:#FFFFFF;" version="1.1" viewBox="0 0 249 739" width="249px" zoomAndPan="magnify"><defs/><g><!--cluster Application--><g class="cluster" data-entity="Application" data-source-line="11" data-uid="ent0003" id="cluster_Application"><path d="M21,108 L111.2979,108 A3.75,3.75 0 0 1 113.7979,110.5 L120.7979,130.2969 L230,130.2969 A2.5,2.5 0 0 1 232.5,132.7969 L232.5,515.5 A2.5,2.5 0 0 1 230,518 L21,518 A2.5,2.5 0 0 1 18.5,515.5 L18.5,110.5 A2.5,2.5 0 0 1 21,108" fill="none" style="stroke:#000000;stroke-width:1.5;"/><line style="stroke:#000000;stroke-width:1.5;" x1="18.5" x2="120.7979" y1="130.2969" y2="130.2969"/><text fill="#000000" font-family="sans-serif" font-size="14" font-weight="bold" lengthAdjust="spacing" textLength="89.2979" x="22.5" y="122.9951">Application</text><text fill="#000000" font-family="sans-serif" font-size="14" font-style="italic" lengthAdjust="spacing" textLength="96.4824" x="81.2588" y="145.292">&#171;component&#187;</text></g><!--entity UseCases--><g class="entity" data-entity="UseCases" data-source-line="13" data-uid="ent0004" id="entity_UseCases"><rect fill="#F9F9F9" height="68.8906" rx="2.5" ry="2.5" style="stroke:#181818;stroke-width:0.5;" width="181.499" x="35" y="159"/><text fill="#000000" font-family="sans-serif" font-size="14" lengthAdjust="spacing" textLength="161.499" x="45" y="181.9951">Use Cases (m&#233;tier pur)</text><text fill="#000000" font-family="sans-serif" font-size="14" lengthAdjust="spacing" textLength="129.418" x="45" y="198.292">- TransfererArgent</text><text fill="#000000" font-family="sans-serif" font-size="14" lengthAdjust="spacing" textLength="108.0488" x="45" y="214.5889">- OuvrirCompte</text></g><!--entity DomainModel--><g class="entity" data-entity="DomainModel" data-source-line="15" data-uid="ent0005" id="entity_DomainModel"><rect fill="#F9F9F9" height="68.8906" rx="2.5" ry="2.5" style="stroke:#181818;stroke-width:0.5;" width="140.8115" x="55" y="288"/><text fill="#000000" font-family="sans-serif" font-size="14" lengthAdjust="spacing" textLength="100.8096" x="65" y="310.9951">Domain Model</text><text fill="#000000" font-family="sans-serif" font-size="14" lengthAdjust="spacing" textLength="120.8115" x="65" y="327.292">- Compte (entit&#233;)</text><text fill="#000000" font-family="sans-serif" font-size="14" lengthAdjust="spacing" textLength="106.9756" x="65" y="343.5889">- R&#232;gles m&#233;tier</text></g><!--entity Ports--><g class="entity" data-entity="Ports" data-source-line="17" data-uid="ent0006" id="entity_Ports"><rect fill="#F9F9F9" height="85.1875" rx="2.5" ry="2.5" style="stroke:#181818;stroke-width:0.5;" width="171.416" x="40" y="417"/><text fill="#000000" font-family="sans-serif" font-size="14" lengthAdjust="spacing" textLength="120.6543" x="50" y="439.9951">Ports (interfaces)</text><text fill="#000000" font-family="sans-serif" font-size="14" lengthAdjust="spacing" textLength="149.3857" x="50" y="456.292">&#9668; ICompteRepository</text><text fill="#000000" font-family="sans-serif" font-size="14" lengthAdjust="spacing" textLength="151.416" x="50" y="472.5889">&#9668; INotificationService</text><text fill="#000000" font-family="sans-serif" font-size="14" lengthAdjust="spacing" textLength="81.3135" x="50" y="488.8857">&#9668; IAuditLog</text></g><!--entity InAdapters--><g class="entity" data-entity="InAdapters" data-source-line="8" data-uid="ent0002" id="entity_InAdapters"><rect fill="#F9F9F9" height="85.1875" rx="2.5" ry="2.5" style="stroke:#181818;stroke-width:0.5;" width="217.1416" x="17" y="7"/><text fill="#000000" font-family="sans-serif" font-size="14" lengthAdjust="spacing" textLength="184.707" x="27" y="29.9951">Adaptateurs Primaires (In)</text><text fill="#000000" font-family="sans-serif" font-size="14" lengthAdjust="spacing" textLength="72.1123" x="27" y="46.292">- REST API</text><text fill="#000000" font-family="sans-serif" font-size="14" lengthAdjust="spacing" textLength="71.2646" x="27" y="62.5889">- GraphQL</text><text fill="#000000" font-family="sans-serif" font-size="14" lengthAdjust="spacing" textLength="197.1416" x="27" y="78.8857">- Message Queue Consumer</text></g><!--entity OutAdapters--><g class="entity" data-entity="OutAdapters" data-source-line="22" data-uid="ent0007" id="entity_OutAdapters"><rect fill="#F9F9F9" height="85.1875" rx="2.5" ry="2.5" style="stroke:#181818;stroke-width:0.5;" width="236.8838" x="7" y="562"/><text fill="#000000" font-family="sans-serif" font-size="14" lengthAdjust="spacing" textLength="216.8838" x="17" y="584.9951">Adaptateurs Secondaires (Out)</text><text fill="#000000" font-family="sans-serif" font-size="14" lengthAdjust="spacing" textLength="161.1367" x="17" y="601.292">- JpaCompteRepository</text><text fill="#000000" font-family="sans-serif" font-size="14" lengthAdjust="spacing" textLength="180.9473" x="17" y="617.5889">- KafkaNotificationService</text><text fill="#000000" font-family="sans-serif" font-size="14" lengthAdjust="spacing" textLength="163.9668" x="17" y="633.8857">- ElasticsearchAuditLog</text></g><g class="entity" data-entity="GMN12" data-source-line="32" data-uid="ent0013" id="entity_GMN12"><path d="M58.5,707 L58.5,732.1328 A0,0 0 0 0 58.5,732.1328 L192.4565,732.1328 A0,0 0 0 0 192.4565,732.1328 L192.4565,717 L182.4565,707 L129.5,707 L125.5,647.26 L121.5,707 L58.5,707 A0,0 0 0 0 58.5,707" fill="#FEFFDD" style="stroke:#181818;stroke-width:0.5;"/><path d="M182.4565,707 L182.4565,717 L192.4565,717 L182.4565,707" fill="#FEFFDD" style="stroke:#181818;stroke-width:0.5;"/><text fill="#000000" font-family="sans-serif" font-size="13" lengthAdjust="spacing" textLength="112.9565" x="64.5" y="724.0669">Interchangeables</text></g><!--link InAdapters to UseCases--><g class="link" data-entity-1="InAdapters" data-entity-2="UseCases" data-source-line="25" data-uid="lnk8" id="link_InAdapters_UseCases"><path d="M125.5,92.34 C125.5,113.44 125.5,132.71 125.5,152.59" fill="none" id="InAdapters-to-UseCases" style="stroke:#181818;stroke-width:1;"/><polygon fill="#181818" points="125.5,158.59,129.5,149.59,125.5,153.59,121.5,149.59,125.5,158.59" style="stroke:#181818;stroke-width:1;"/></g><!--link UseCases to DomainModel--><g class="link" data-entity-1="UseCases" data-entity-2="DomainModel" data-source-line="26" data-uid="lnk9" id="link_UseCases_DomainModel"><path d="M125.5,228.2 C125.5,246.57 125.5,263.25 125.5,281.64" fill="none" id="UseCases-to-DomainModel" style="stroke:#181818;stroke-width:1;"/><polygon fill="#181818" points="125.5,287.64,129.5,278.64,125.5,282.64,121.5,278.64,125.5,287.64" style="stroke:#181818;stroke-width:1;"/></g><!--link DomainModel to Ports--><g class="link" data-entity-1="DomainModel" data-entity-2="Ports" data-source-line="27" data-uid="lnk10" id="link_DomainModel_Ports"><path d="M125.5,357.22 C125.5,375.18 125.5,391.44 125.5,410.52" fill="none" id="DomainModel-to-Ports" style="stroke:#181818;stroke-width:1;"/><polygon fill="#181818" points="125.5,416.52,129.5,407.52,125.5,411.52,121.5,407.52,125.5,416.52" style="stroke:#181818;stroke-width:1;"/></g><!--link Ports to OutAdapters--><g class="link" data-entity-1="Ports" data-entity-2="OutAdapters" data-source-line="28" data-uid="lnk11" id="link_Ports_OutAdapters"><path d="M125.5,502.25 C125.5,521.04 125.5,537.18 125.5,555.95" fill="none" id="Ports-to-OutAdapters" style="stroke:#181818;stroke-width:1;"/><polygon fill="#181818" points="125.5,561.95,129.5,552.95,125.5,556.95,121.5,552.95,125.5,561.95" style="stroke:#181818;stroke-width:1;"/></g><!--SRC=[TL91Rjim4Bpp5GltqFIW1nG83AXkKhXD6YTARxrig9LCM2A99UasA7hh7_g5vXt-ILzIad9jMMcX2pNScPsTfTieRP6n1sbwQpHfN_d7Ze19UjHjHy8TIWuOV1C0rHfhyqNf5Xhi74Na3SfDooReUc4wm_3YydNwn7SXNa9Pe_NeAR03owf7nUJWRAbVYQFkR5orEgdwh0kukwZkeLmjq_aTertVNgNZDJc7BS5je42mCDg5ddW6w62fioAnInuMQKQ7saDfRQSaUcMqiD5seiz6u0pEpm-9pETnu3ZVoESd5nkXIzxwtPDNn603PvFtZDernCGbjv6Ti9kmPSMflQViA_8pVIBxriI9DLoRchh46nXm5cMKtpqD8Un-nLe7-xvPRk1bsaHnPTX7aqh731gKvAB6xvy_O3b8tr4CH7d3Ztlue_6gsOTG4M-LfFrD6MhbhqoR6sPPyNopZgJHzNvhDy7_TxdLj32DzjxYSri5VC1cW_yqLi15XyuhwGXPhayiHj7nxY-xy1MsnB4OEt5y5r0Ky-Cw_XuoEavrTCvtGm13kkb_qYsw9SYXotMSdl0XhapeX3uOxqqFfZdXG7ogashIDIJ67m00]--></g></svg>