<svg xmlns="http://www.w3.org/2000/svg" xmlns:xlink="http://www.w3.org/1999/xlink" contentStyleType="text/css" data-diagram-type="DESCRIPTION" height="397px" preserveAspectRatio="none" style="width:426px;height:397px;background:#FFFFFF;" version="1.1" viewBox="0 0 426 397" width="426px" zoomAndPan="magnify"><defs/><g><!--entity A--><g class="entity" data-entity="A" data-source-line="4" data-uid="ent0002" id="entity_A"><rect fill="#F1F1F1" height="52.5938" rx="2.5" ry="2.5" style="stroke:#181818;stroke-width:0.5;" width="113.6934" x="156" y="7"/><text fill="#000000" font-family="sans-serif" font-size="14" lengthAdjust="spacing" textLength="93.6934" x="166" y="29.9951">Composant A</text><text fill="#000000" font-family="sans-serif" font-size="14" lengthAdjust="spacing" textLength="75.4414" x="166" y="46.292">(Publisher)</text></g><!--entity Bus--><g class="entity" data-entity="Bus" data-source-line="7" data-uid="ent0003" id="entity_Bus"><rect fill="#F1F1F1" height="52.5938" rx="2.5" ry="2.5" style="stroke:#181818;stroke-width:0.5;" width="143.5732" x="141" y="137"/><text fill="#000000" font-family="sans-serif" font-size="14" lengthAdjust="spacing" textLength="70.3281" x="151" y="159.9951">Event Bus</text><text fill="#000000" font-family="sans-serif" font-size="14" lengthAdjust="spacing" textLength="123.5732" x="151" y="176.292">(Kafka/RabbitMQ)</text></g><!--entity B--><g class="entity" data-entity="B" data-source-line="10" data-uid="ent0004" id="entity_B"><rect fill="#F1F1F1" height="52.5938" rx="2.5" ry="2.5" style="stroke:#181818;stroke-width:0.5;" width="113.7207" x="7" y="251"/><text fill="#000000" font-family="sans-serif" font-size="14" lengthAdjust="spacing" textLength="93.7207" x="17" y="273.9951">Composant B</text><text fill="#000000" font-family="sans-serif" font-size="14" lengthAdjust="spacing" textLength="85.4629" x="17" y="290.292">(Subscriber)</text></g><!--entity C--><g class="entity" data-entity="C" data-source-line="11" data-uid="ent0005" id="entity_C"><rect fill="#F1F1F1" height="52.5938" rx="2.5" ry="2.5" style="stroke:#181818;stroke-width:0.5;" width="113.8916" x="156" y="251"/><text fill="#000000" font-family="sans-serif" font-size="14" lengthAdjust="spacing" textLength="93.8916" x="166" y="273.9951">Composant C</text><text fill="#000000" font-family="sans-serif" font-size="14" lengthAdjust="spacing" textLength="85.4629" x="166" y="290.292">(Subscriber)</text></g><!--entity D--><g class="entity" data-entity="D" data-source-line="12" data-uid="ent0006" id="entity_D"><rect fill="#F1F1F1" height="52.5938" rx="2.5" ry="2.5" style="stroke:#181818;stroke-width:0.5;" width="114.8965" x="305.5" y="251"/><text fill="#000000" font-family="sans-serif" font-size="14" lengthAdjust="spacing" textLength="94.8965" x="315.5" y="273.9951">Composant D</text><text fill="#000000" font-family="sans-serif" font-size="14" lengthAdjust="spacing" textLength="85.4629" x="315.5" y="290.292">(Subscriber)</text></g><g class="entity" data-entity="GMN11" data-source-line="23" data-uid="ent0012" id="entity_GMN11"><path d="M9,365 L9,390.1328 A0,0 0 0 0 9,390.1328 L119.1401,390.1328 A0,0 0 0 0 119.1401,390.1328 L119.1401,375 L109.1401,365 L68,365 L64,304.25 L60,365 L9,365 A0,0 0 0 0 9,365" fill="#FEFFDD" style="stroke:#181818;stroke-width:0.5;"/><path d="M109.1401,365 L109.1401,375 L119.1401,375 L109.1401,365" fill="#FEFFDD" style="stroke:#181818;stroke-width:0.5;"/><text fill="#000000" font-family="sans-serif" font-size="13" lengthAdjust="spacing" textLength="89.1401" x="15" y="382.0669">Ind&#233;pendants</text></g><g class="entity" data-entity="GMN14" data-source-line="26" data-uid="ent0015" id="entity_GMN14"><path d="M158,365 L158,390.1328 A0,0 0 0 0 158,390.1328 L268.1401,390.1328 A0,0 0 0 0 268.1401,390.1328 L268.1401,375 L258.1401,365 L217,365 L213,304.25 L209,365 L158,365 A0,0 0 0 0 158,365" fill="#FEFFDD" style="stroke:#181818;stroke-width:0.5;"/><path d="M258.1401,365 L258.1401,375 L268.1401,375 L258.1401,365" fill="#FEFFDD" style="stroke:#181818;stroke-width:0.5;"/><text fill="#000000" font-family="sans-serif" font-size="13" lengthAdjust="spacing" textLength="89.1401" x="164" y="382.0669">Ind&#233;pendants</text></g><g class="entity" data-entity="GMN17" data-source-line="29" data-uid="ent0018" id="entity_GMN17"><path d="M308,365 L308,390.1328 A0,0 0 0 0 308,390.1328 L418.1401,390.1328 A0,0 0 0 0 418.1401,390.1328 L418.1401,375 L408.1401,365 L367,365 L363,304.25 L359,365 L308,365 A0,0 0 0 0 308,365" fill="#FEFFDD" style="stroke:#181818;stroke-width:0.5;"/><path d="M408.1401,365 L408.1401,375 L418.1401,375 L408.1401,365" fill="#FEFFDD" style="stroke:#181818;stroke-width:0.5;"/><text fill="#000000" font-family="sans-serif" font-size="13" lengthAdjust="spacing" textLength="89.1401" x="314" y="382.0669">Ind&#233;pendants</text></g><!--link A to Bus--><g class="link" data-entity-1="A" data-entity-2="Bus" data-source-line="15" data-uid="lnk7" id="link_A_Bus"><path d="M213,60.1 C213,82.42 213,108.64 213,130.95" fill="none" id="A-to-Bus" style="stroke:#181818;stroke-width:1;"/><polygon fill="#181818" points="213,136.95,217,127.95,213,131.95,209,127.95,213,136.95" style="stroke:#181818;stroke-width:1;"/><text fill="#000000" font-family="sans-serif" font-size="13" lengthAdjust="spacing" textLength="44.0146" x="214" y="103.0669">Events</text></g><!--link Bus to B--><g class="link" data-entity-1="Bus" data-entity-2="B" data-source-line="17" data-uid="lnk8" id="link_Bus_B"><path d="M178.82,190.2 C154.59,208.41 127.0171,229.1362 102.8171,247.3162" fill="none" id="Bus-to-B" style="stroke:#181818;stroke-width:1;"/><polygon fill="#181818" points="98.02,250.92,107.6183,248.7124,102.0176,247.9168,102.8132,242.3162,98.02,250.92" style="stroke:#181818;stroke-width:1;"/></g><!--link Bus to C--><g class="link" data-entity-1="Bus" data-entity-2="C" data-source-line="18" data-uid="lnk9" id="link_Bus_C"><path d="M213,190.2 C213,208.41 213,226.74 213,244.92" fill="none" id="Bus-to-C" style="stroke:#181818;stroke-width:1;"/><polygon fill="#181818" points="213,250.92,217,241.92,213,245.92,209,241.92,213,250.92" style="stroke:#181818;stroke-width:1;"/></g><!--link Bus to D--><g class="link" data-entity-1="Bus" data-entity-2="D" data-source-line="19" data-uid="lnk10" id="link_Bus_D"><path d="M247.41,190.2 C271.8,208.41 299.5815,229.1514 323.9415,247.3314" fill="none" id="Bus-to-D" style="stroke:#181818;stroke-width:1;"/><polygon fill="#181818" points="328.75,250.92,323.9296,242.3314,324.7429,247.9295,319.1448,248.7427,328.75,250.92" style="stroke:#181818;stroke-width:1;"/></g><!--SRC=[ZO_FRi8m3CRlUGgB2-E0k7D0QbCEq_ve6zTTd1AsYDQfwXHfZyHpy6ABGLGH2XAdEFRlix-FzuuwxB65shUT9qjX4_uQ2xsj0z9FOvMQWfOP8mKeuEbZC8tZNzlFrAY1IO9yKy9C01aAMR8-25WEdCh6PXIzu6wFYoyqneMtpujIyDG00nfFT3fo_dWPzsm6mtNlpFLwcKTr1jLvjCgWbVXwTPOOOjf57Ai2vlELM8Rb9MtqBhzpTwpqM9rNlFjWarGKls1y2Bu5luioW6VQdewTfQtaL_45WMv9_J1PtIN_0G00]--></g></svg>