<svg xmlns="http://www.w3.org/2000/svg" xmlns:xlink="http://www.w3.org/1999/xlink" contentStyleType="text/css" data-diagram-type="SEQUENCE" height="269px" preserveAspectRatio="none" style="width:247px;height:269px;background:#FFFFFF;" version="1.1" viewBox="0 0 247 269" width="247px" zoomAndPan="magnify"><defs/><g><g><title>Client</title><rect fill="#000000" fill-opacity="0.00000" height="107.3984" width="8" x="24.2651" y="81.2969"/><line style="stroke:#181818;stroke-width:0.5;stroke-dasharray:5.0,5.0;" x1="28" x2="28" y1="81.2969" y2="188.6953"/></g><g><title>Compte</title><rect fill="#000000" fill-opacity="0.00000" height="107.3984" width="8" x="130.6704" y="81.2969"/><line style="stroke:#181818;stroke-width:0.5;stroke-dasharray:5.0,5.0;" x1="134.1865" x2="134.1865" y1="81.2969" y2="188.6953"/></g><g><title>Logger</title><rect fill="#000000" fill-opacity="0.00000" height="107.3984" width="8" x="206.4082" y="81.2969"/><line style="stroke:#181818;stroke-width:0.5;stroke-dasharray:5.0,5.0;" x1="210.1543" x2="210.1543" y1="81.2969" y2="188.6953"/></g><g class="participant participant-head" data-participant="Client"><text fill="#000000" font-family="sans-serif" font-size="14" lengthAdjust="spacing" textLength="40.5303" x="5" y="77.9951">Client</text><ellipse cx="28.2651" cy="13.5" fill="#E2E2F0" rx="8" ry="8" style="stroke:#181818;stroke-width:0.5;"/><path d="M28.2651,21.5 L28.2651,48.5 M15.2651,29.5 L41.2651,29.5 M28.2651,48.5 L15.2651,63.5 M28.2651,48.5 L41.2651,63.5" fill="none" style="stroke:#181818;stroke-width:0.5;"/></g><g class="participant participant-tail" data-participant="Client"><text fill="#000000" font-family="sans-serif" font-size="14" lengthAdjust="spacing" textLength="40.5303" x="5" y="200.6904">Client</text><ellipse cx="28.2651" cy="212.4922" fill="#E2E2F0" rx="8" ry="8" style="stroke:#181818;stroke-width:0.5;"/><path d="M28.2651,220.4922 L28.2651,247.4922 M15.2651,228.4922 L41.2651,228.4922 M28.2651,247.4922 L15.2651,262.4922 M28.2651,247.4922 L41.2651,262.4922" fill="none" style="stroke:#181818;stroke-width:0.5;"/></g><g class="participant participant-head" data-participant="Compte"><rect fill="#E2E2F0" height="30.2969" rx="2.5" ry="2.5" style="stroke:#181818;stroke-width:0.5;" width="68.9678" x="100.1865" y="50"/><text fill="#000000" font-family="sans-serif" font-size="14" lengthAdjust="spacing" textLength="54.9678" x="107.1865" y="69.9951">Compte</text></g><g class="participant participant-tail" data-participant="Compte"><rect fill="#E2E2F0" height="30.2969" rx="2.5" ry="2.5" style="stroke:#181818;stroke-width:0.5;" width="68.9678" x="100.1865" y="187.6953"/><text fill="#000000" font-family="sans-serif" font-size="14" lengthAdjust="spacing" textLength="54.9678" x="107.1865" y="207.6904">Compte</text></g><g class="participant participant-head" data-participant="Logger"><rect fill="#E2E2F0" height="30.2969" rx="2.5" ry="2.5" style="stroke:#181818;stroke-width:0.5;" width="62.5078" x="179.1543" y="50"/><text fill="#000000" font-family="sans-serif" font-size="14" lengthAdjust="spacing" textLength="48.5078" x="186.1543" y="69.9951">Logger</text></g><g class="participant participant-tail" data-participant="Logger"><rect fill="#E2E2F0" height="30.2969" rx="2.5" ry="2.5" style="stroke:#181818;stroke-width:0.5;" width="62.5078" x="179.1543" y="187.6953"/><text fill="#000000" font-family="sans-serif" font-size="14" lengthAdjust="spacing" textLength="48.5078" x="186.1543" y="207.6904">Logger</text></g><g class="message" data-participant-1="Client" data-participant-2="Compte"><polygon fill="#181818" points="122.6704,108.4297,132.6704,112.4297,122.6704,116.4297,126.6704,112.4297" style="stroke:#181818;stroke-width:1;"/><line style="stroke:#181818;stroke-width:1;" x1="28.2651" x2="128.6704" y1="112.4297" y2="112.4297"/><text fill="#000000" font-family="sans-serif" font-size="13" lengthAdjust="spacing" textLength="60.9375" x="35.2651" y="107.3638">crediter()</text></g><g class="message" data-participant-1="Compte" data-participant-2="Logger"><polygon fill="#181818" points="198.4082,137.5625,208.4082,141.5625,198.4082,145.5625,202.4082,141.5625" style="stroke:#181818;stroke-width:1;"/><line style="stroke:#181818;stroke-width:1;" x1="134.6704" x2="204.4082" y1="141.5625" y2="141.5625"/><text fill="#000000" font-family="sans-serif" font-size="13" lengthAdjust="spacing" textLength="29.9609" x="141.6704" y="136.4966">log()</text></g><g class="message" data-participant-1="Compte" data-participant-2="Client"><polygon fill="#181818" points="39.2651,166.6953,29.2651,170.6953,39.2651,174.6953,35.2651,170.6953" style="stroke:#181818;stroke-width:1;"/><line style="stroke:#181818;stroke-width:1;stroke-dasharray:2.0,2.0;" x1="33.2651" x2="133.6704" y1="170.6953" y2="170.6953"/><text fill="#000000" font-family="sans-serif" font-size="13" lengthAdjust="spacing" textLength="82.4053" x="45.2651" y="165.6294">confirmation</text></g><!--SRC=[LOix2e0m343td2AZ3hs0Y4jNBn5gB86sAI7tHqe5SNqVIgw6iGWtXqxcagHJSunQk_CFdPep6y2iCHnlj64oliJPbXKc6dBc6nRDWyzf3-6xjDrYbLoqFG00]--></g></svg>