<svg xmlns="http://www.w3.org/2000/svg" xmlns:xlink="http://www.w3.org/1999/xlink" contentStyleType="text/css" data-diagram-type="CLASS" height="134px" preserveAspectRatio="none" style="width:128px;height:134px;background:#FFFFFF;" version="1.1" viewBox="0 0 128 134" width="128px" zoomAndPan="magnify"><defs/><g><!--class Compte--><g class="entity" data-entity="Compte" data-source-line="1" data-uid="ent0002" id="entity_Compte"><rect fill="#F1F1F1" height="113.1875" rx="2.5" ry="2.5" style="stroke:#181818;stroke-width:0.5;" width="107.7373" x="7" y="7"/><ellipse cx="31.3463" cy="23" fill="#ADD1B2" rx="11" ry="11" style="stroke:#181818;stroke-width:1;"/><path d="M34.315,28.6406 Q33.7369,28.9375 33.0963,29.0781 Q32.4557,29.2344 31.7525,29.2344 Q29.2525,29.2344 27.9244,27.5938 Q26.6119,25.9375 26.6119,22.8125 Q26.6119,19.6875 27.9244,18.0313 Q29.2525,16.375 31.7525,16.375 Q32.4557,16.375 33.0963,16.5313 Q33.7525,16.6875 34.315,16.9844 L34.315,19.7031 Q33.69,19.125 33.0963,18.8594 Q32.5025,18.5781 31.8775,18.5781 Q30.5338,18.5781 29.8463,19.6563 Q29.1588,20.7188 29.1588,22.8125 Q29.1588,24.9063 29.8463,25.9844 Q30.5338,27.0469 31.8775,27.0469 Q32.5025,27.0469 33.0963,26.7813 Q33.69,26.5 34.315,25.9219 L34.315,28.6406 Z " fill="#000000"/><text fill="#000000" font-family="sans-serif" font-size="14" lengthAdjust="spacing" textLength="54.9678" x="47.4232" y="27.8467">Compte</text><line style="stroke:#181818;stroke-width:0.5;" x1="8" x2="113.7373" y1="39" y2="39"/><rect fill="none" height="6" style="stroke:#C82930;stroke-width:1;" width="6" x="15" y="49.6484"/><text fill="#000000" font-family="sans-serif" font-size="14" lengthAdjust="spacing" textLength="77.8682" x="27" y="55.9951">solde: float</text><rect fill="none" height="6" style="stroke:#C82930;stroke-width:1;" width="6" x="15" y="65.9453"/><text fill="#000000" font-family="sans-serif" font-size="14" lengthAdjust="spacing" textLength="81.7373" x="27" y="72.292">numero: int</text><line style="stroke:#181818;stroke-width:0.5;" x1="8" x2="113.7373" y1="79.5938" y2="79.5938"/><ellipse cx="18" cy="93.2422" fill="#84BE84" rx="3" ry="3" style="stroke:#038048;stroke-width:1;"/><text fill="#000000" font-family="sans-serif" font-size="14" lengthAdjust="spacing" textLength="65.625" x="27" y="96.5889">crediter()</text><ellipse cx="18" cy="109.5391" fill="#84BE84" rx="3" ry="3" style="stroke:#038048;stroke-width:1;"/><text fill="#000000" font-family="sans-serif" font-size="14" lengthAdjust="spacing" textLength="61.0586" x="27" y="112.8857">debiter()</text></g><!--SRC=[Iyv9B2vMSCxFBIX9LQZcKb3GLIZEpqb9jL98oybFB04Bv9NcfXRbMobave7usWh9HQafcIMfHHgQO6vAQXAKLmi0]--></g></svg>