<svg xmlns="http://www.w3.org/2000/svg" xmlns:xlink="http://www.w3.org/1999/xlink" contentStyleType="text/css" data-diagram-type="DESCRIPTION" height="375px" preserveAspectRatio="none" style="width:831px;height:375px;background:#FFFFFF;" version="1.1" viewBox="0 0 831 375" width="831px" zoomAndPan="magnify"><defs/><g><!--cluster System--><g class="cluster" data-entity="System" data-source-line="3" data-uid="ent0002" id="cluster_System"><rect fill="none" height="362" rx="2.5" ry="2.5" style="stroke:#181818;stroke-width:1;" width="776" x="49.8867" y="7"/><rect fill="none" height="10" style="stroke:#181818;stroke-width:1;" width="15" x="805.8867" y="12"/><rect fill="none" height="2" style="stroke:#181818;stroke-width:1;" width="4" x="803.8867" y="14"/><rect fill="none" height="2" style="stroke:#181818;stroke-width:1;" width="4" x="803.8867" y="18"/><text fill="#000000" font-family="sans-serif" font-size="14" font-weight="bold" lengthAdjust="spacing" textLength="58.3174" x="408.728" y="32.9951">System</text></g><!--cluster PaymentService--><g class="cluster" data-entity="PaymentService" data-source-line="5" data-uid="ent0003" id="cluster_PaymentService"><rect fill="none" height="191" rx="2.5" ry="2.5" style="stroke:#181818;stroke-width:1;" width="603" x="175.3867" y="162"/><rect fill="none" height="10" style="stroke:#181818;stroke-width:1;" width="15" x="758.3867" y="167"/><rect fill="none" height="2" style="stroke:#181818;stroke-width:1;" width="4" x="756.3867" y="169"/><rect fill="none" height="2" style="stroke:#181818;stroke-width:1;" width="4" x="756.3867" y="173"/><text fill="#000000" font-family="sans-serif" font-size="14" font-weight="bold" lengthAdjust="spacing" textLength="127.7773" x="412.998" y="187.9951">PaymentService</text></g><!--cluster Validator--><g class="cluster" data-entity="Validator" data-source-line="8" data-uid="ent0006" id="cluster_Validator"><rect fill="none" height="47" rx="2.5" ry="2.5" style="stroke:#181818;stroke-width:1;" width="243" x="346.3867" y="246"/><rect fill="none" height="10" style="stroke:#181818;stroke-width:1;" width="15" x="569.3867" y="251"/><rect fill="none" height="2" style="stroke:#181818;stroke-width:1;" width="4" x="567.3867" y="253"/><rect fill="none" height="2" style="stroke:#181818;stroke-width:1;" width="4" x="567.3867" y="257"/><text fill="#000000" font-family="sans-serif" font-size="14" font-weight="bold" lengthAdjust="spacing" textLength="72.5635" x="431.605" y="271.9951">Validator</text></g><!--cluster Ledger--><g class="cluster" data-entity="Ledger" data-source-line="11" data-uid="ent0008" id="cluster_Ledger"><rect fill="none" height="52" rx="2.5" ry="2.5" style="stroke:#181818;stroke-width:1;" width="230.5" x="531.8867" y="178"/><rect fill="none" height="10" style="stroke:#181818;stroke-width:1;" width="15" x="742.3867" y="183"/><rect fill="none" height="2" style="stroke:#181818;stroke-width:1;" width="4" x="740.3867" y="185"/><rect fill="none" height="2" style="stroke:#181818;stroke-width:1;" width="4" x="740.3867" y="189"/><text fill="#000000" font-family="sans-serif" font-size="14" font-weight="bold" lengthAdjust="spacing" textLength="54.8584" x="619.7075" y="203.9951">Ledger</text></g><!--cluster AuthService--><g class="cluster" data-entity="AuthService" data-source-line="16" data-uid="ent0010" id="cluster_AuthService"><rect fill="none" height="101" rx="2.5" ry="2.5" style="stroke:#181818;stroke-width:1;" width="485.5" x="324.3867" y="53"/><rect fill="none" height="10" style="stroke:#181818;stroke-width:1;" width="15" x="789.8867" y="58"/><rect fill="none" height="2" style="stroke:#181818;stroke-width:1;" width="4" x="787.8867" y="60"/><rect fill="none" height="2" style="stroke:#181818;stroke-width:1;" width="4" x="787.8867" y="64"/><text fill="#000000" font-family="sans-serif" font-size="14" font-weight="bold" lengthAdjust="spacing" textLength="95.6621" x="519.3057" y="78.9951">AuthService</text></g><!--cluster TokenManager--><g class="cluster" data-entity="TokenManager" data-source-line="19" data-uid="ent0012" id="cluster_TokenManager"><rect fill="none" height="52" rx="2.5" ry="2.5" style="stroke:#181818;stroke-width:1;" width="262.5" x="531.3867" y="86"/><rect fill="none" height="10" style="stroke:#181818;stroke-width:1;" width="15" x="773.8867" y="91"/><rect fill="none" height="2" style="stroke:#181818;stroke-width:1;" width="4" x="771.8867" y="93"/><rect fill="none" height="2" style="stroke:#181818;stroke-width:1;" width="4" x="771.8867" y="97"/><text fill="#000000" font-family="sans-serif" font-size="14" font-weight="bold" lengthAdjust="spacing" textLength="117.1543" x="604.0596" y="111.9951">TokenManager</text></g><g class="entity" data-entity="systemPort1" data-source-line="26" data-uid="ent0015" id="entity_systemPort1"><text fill="#000000" font-family="sans-serif" font-size="14" lengthAdjust="spacing" textLength="87.7734" x="6" y="162.6982">systemPort1</text><rect fill="#F1F1F1" height="12" style="stroke:#181818;stroke-width:1.5;" width="12" x="43.8867" y="178"/></g><g class="entity" data-entity="systemPort2" data-source-line="27" data-uid="ent0016" id="entity_systemPort2"><text fill="#000000" font-family="sans-serif" font-size="14" lengthAdjust="spacing" textLength="87.7734" x="6" y="84.6982">systemPort2</text><rect fill="#F1F1F1" height="12" style="stroke:#181818;stroke-width:1.5;" width="12" x="43.8867" y="100"/></g><g class="entity" data-entity="clientPort" data-source-line="6" data-uid="ent0004" id="entity_clientPort"><text fill="#000000" font-family="sans-serif" font-size="14" lengthAdjust="spacing" textLength="66.7051" x="142.0342" y="166.6982">clientPort</text><rect fill="#F1F1F1" height="12" style="stroke:#181818;stroke-width:1.5;" width="12" x="169.3867" y="182"/></g><g class="entity" data-entity="serverPort" data-source-line="7" data-uid="ent0005" id="entity_serverPort"><text fill="#000000" font-family="sans-serif" font-size="14" lengthAdjust="spacing" textLength="72.5703" x="140.1016" y="282.9951">serverPort</text><rect fill="#F1F1F1" height="12" style="stroke:#181818;stroke-width:1.5;" width="12" x="170.3867" y="258"/></g><g class="entity" data-entity="validatePort" data-source-line="9" data-uid="ent0007" id="entity_validatePort"><text fill="#000000" font-family="sans-serif" font-size="14" lengthAdjust="spacing" textLength="84.4648" x="304.1543" y="242.6982">validatePort</text><rect fill="#F1F1F1" height="12" style="stroke:#181818;stroke-width:1.5;" width="12" x="340.3867" y="258"/></g><g class="entity" data-entity="ledgerPort" data-source-line="12" data-uid="ent0009" id="entity_ledgerPort"><text fill="#000000" font-family="sans-serif" font-size="14" lengthAdjust="spacing" textLength="72.8984" x="495.4375" y="182.6982">ledgerPort</text><rect fill="#F1F1F1" height="12" style="stroke:#181818;stroke-width:1.5;" width="12" x="525.8867" y="198"/></g><g class="entity" data-entity="logPort" data-source-line="18" data-uid="ent0011" id="entity_logPort"><text fill="#000000" font-family="sans-serif" font-size="14" lengthAdjust="spacing" textLength="49.5947" x="317.5894" y="142.9951">logPort</text><rect fill="#F1F1F1" height="12" style="stroke:#181818;stroke-width:1.5;" width="12" x="336.3867" y="118"/></g><g class="entity" data-entity="authPort" data-source-line="22" data-uid="ent0014" id="entity_authPort"><text fill="#000000" font-family="sans-serif" font-size="14" lengthAdjust="spacing" textLength="60.0674" x="313.353" y="31.6982">authPort</text><rect fill="#F1F1F1" height="12" style="stroke:#181818;stroke-width:1.5;" width="12" x="337.3867" y="47"/></g><g class="entity" data-entity="tokenPort" data-source-line="20" data-uid="ent0013" id="entity_tokenPort"><text fill="#000000" font-family="sans-serif" font-size="14" lengthAdjust="spacing" textLength="67.9014" x="497.436" y="90.6982">tokenPort</text><rect fill="#F1F1F1" height="12" style="stroke:#181818;stroke-width:1.5;" width="12" x="525.3867" y="106"/></g><!--link clientPort to authPort--><g class="link" data-entity-1="clientPort" data-entity-2="authPort" data-source-line="31" data-uid="lnk17" id="link_clientPort_authPort"><path d="M181.7167,185.68 C188.7267,182.15 201.8767,174.89 210.8867,166 C240.5467,136.74 230.9867,114.8 262.8867,88 C286.6767,68.02 317.8303,58.9629 331.3703,55.6329" fill="none" id="clientPort-to-authPort" style="stroke:#181818;stroke-width:1;"/><polygon fill="#181818" points="337.1967,54.2,327.5019,52.4651,332.3414,55.3941,329.4124,60.2336,337.1967,54.2" style="stroke:#181818;stroke-width:1;"/></g><!--link serverPort to validatePort--><g class="link" data-entity-1="serverPort" data-entity-2="validatePort" data-source-line="32" data-uid="lnk18" id="link_serverPort_validatePort"><path d="M182.7167,264 C206.9667,264 309.1767,264 334.2067,264" fill="none" id="serverPort-to-validatePort" style="stroke:#181818;stroke-width:1;"/><polygon fill="#181818" points="340.2067,264,331.2067,260,335.2067,264,331.2067,268,340.2067,264" style="stroke:#181818;stroke-width:1;"/></g><!--link validatePort to ledgerPort--><g class="link" data-entity-1="validatePort" data-entity-2="ledgerPort" data-source-line="33" data-uid="lnk19" id="link_validatePort_ledgerPort"><path d="M352.6967,262.27 C379.3267,253.58 492.5021,216.6793 519.9921,207.7193" fill="none" id="validatePort-to-ledgerPort" style="stroke:#181818;stroke-width:1;"/><polygon fill="#181818" points="525.6967,205.86,515.9002,204.8459,520.9429,207.4095,518.3793,212.4521,525.6967,205.86" style="stroke:#181818;stroke-width:1;"/></g><!--link logPort to tokenPort--><g class="link" data-entity-1="logPort" data-entity-2="tokenPort" data-source-line="34" data-uid="lnk20" id="link_logPort_tokenPort"><path d="M348.3867,123.68 C374.8767,121.98 492.5589,114.4229 519.2989,112.7129" fill="none" id="logPort-to-tokenPort" style="stroke:#181818;stroke-width:1;"/><polygon fill="#181818" points="525.2867,112.33,516.0498,108.9125,520.2969,112.6491,516.5603,116.8962,525.2867,112.33" style="stroke:#181818;stroke-width:1;"/></g><!--link systemPort1 to clientPort--><g class="link" data-entity-1="systemPort1" data-entity-2="clientPort" data-source-line="35" data-uid="lnk21" id="link_systemPort1_clientPort"><path d="M56.0767,184.15 C75.3767,184.78 142.6098,186.9565 163.3698,187.6265" fill="none" id="systemPort1-to-clientPort" style="stroke:#181818;stroke-width:1;"/><polygon fill="#181818" points="169.3667,187.82,160.5004,183.5318,164.3693,187.6587,160.2424,191.5276,169.3667,187.82" style="stroke:#181818;stroke-width:1;"/></g><!--link systemPort2 to authPort--><g class="link" data-entity-1="systemPort2" data-entity-2="authPort" data-source-line="36" data-uid="lnk22" id="link_systemPort2_authPort"><path d="M55.9267,102.37 C67.3467,93.47 98.5467,70.7 128.8867,62 C209.1267,38.99 307.289,48.7687 331.329,51.6387" fill="none" id="systemPort2-to-authPort" style="stroke:#181818;stroke-width:1;"/><polygon fill="#181818" points="337.2867,52.35,328.8243,47.3113,332.322,51.7573,327.876,55.2549,337.2867,52.35" style="stroke:#181818;stroke-width:1;"/></g><!--SRC=[RL51JWCn3Bpd5Ru1XnxW0KY8AqYLMd4FMNSRaOrNZYciKF-EcovDiYMN93CUUp89k1CG0lRzNg3pZ4uyHMCS3ID5Z0ARAGaEy6CCG47NTXfqto0Vl4DbGTT8BE22LsAjnu8bBKE-OANDcms-iq8yTvZh3sSOBuhZGlU2NOyBKSXO8pcsffy-PTywBXO3zV_usz87nbSRxTKqEJ4BVvcmEcJ6_noSCyWvdfZxQ-Z1QE4DF5EC-WF42PAmTn8cU4VvGenPaU0seYO98-FEVsDtPqhSi5ezbkabyemtYTQNp5RHpJbakBonCf-PwfEhHpGEVW40]--></g></svg>