<svg xmlns="http://www.w3.org/2000/svg" xmlns:xlink="http://www.w3.org/1999/xlink" contentStyleType="text/css" data-diagram-type="DESCRIPTION" height="494px" preserveAspectRatio="none" style="width:598px;height:494px;background:#FFFFFF;" version="1.1" viewBox="0 0 598 494" width="598px" zoomAndPan="magnify"><defs/><g><!--cluster Composant M?tier (Compte)--><g class="cluster" data-entity="Composant M&#233;tier (Compte)" data-source-line="1" data-uid="ent0002" id="cluster_Composant M&#233;tier (Compte)"><path d="M8.5,6 L232.6113,6 A3.75,3.75 0 0 1 235.1113,8.5 L242.1113,28.2969 L389.5,28.2969 A2.5,2.5 0 0 1 392,30.7969 L392,484.5 A2.5,2.5 0 0 1 389.5,487 L8.5,487 A2.5,2.5 0 0 1 6,484.5 L6,8.5 A2.5,2.5 0 0 1 8.5,6" fill="none" style="stroke:#000000;stroke-width:1.5;"/><line style="stroke:#000000;stroke-width:1.5;" x1="6" x2="242.1113" y1="28.2969" y2="28.2969"/><text fill="#000000" font-family="sans-serif" font-size="14" font-weight="bold" lengthAdjust="spacing" textLength="223.1113" x="10" y="20.9951">Composant M&#233;tier (Compte)</text></g><!--cluster METIER--><g class="cluster" data-entity="METIER" data-source-line="2" data-uid="ent0003" id="cluster_METIER"><rect fill="none" height="113" rx="2.5" ry="2.5" style="stroke:#181818;stroke-width:1;" width="310" x="49" y="57"/><rect fill="none" height="10" style="stroke:#181818;stroke-width:1;" width="15" x="339" y="62"/><rect fill="none" height="2" style="stroke:#181818;stroke-width:1;" width="4" x="337" y="64"/><rect fill="none" height="2" style="stroke:#181818;stroke-width:1;" width="4" x="337" y="68"/><text fill="#000000" font-family="sans-serif" font-size="14" font-weight="bold" lengthAdjust="spacing" textLength="128.0234" x="139.9883" y="82.9951">Code m&#233;tier pur</text></g><!--cluster CONTENEUR--><g class="cluster" data-entity="CONTENEUR" data-source-line="7" data-uid="ent0006" id="cluster_CONTENEUR"><rect fill="none" height="220" rx="2.5" ry="2.5" style="stroke:#181818;stroke-width:1;" width="322" x="38" y="235"/><rect fill="none" height="10" style="stroke:#181818;stroke-width:1;" width="15" x="340" y="240"/><rect fill="none" height="2" style="stroke:#181818;stroke-width:1;" width="4" x="338" y="242"/><rect fill="none" height="2" style="stroke:#181818;stroke-width:1;" width="4" x="338" y="246"/><text fill="#000000" font-family="sans-serif" font-size="14" font-weight="bold" lengthAdjust="spacing" textLength="121.7344" x="138.1328" y="260.9951">Conteneur CCM</text></g><!--entity crediter()--><g class="entity" data-entity="crediter()" data-source-line="3" data-uid="ent0004" id="entity_crediter()"><rect fill="#F1F1F1" height="46.2969" rx="2.5" ry="2.5" style="stroke:#181818;stroke-width:0.5;" width="105.625" x="229" y="100"/><rect fill="#F1F1F1" height="10" style="stroke:#181818;stroke-width:0.5;" width="15" x="314.625" y="105"/><rect fill="#F1F1F1" height="2" style="stroke:#181818;stroke-width:0.5;" width="4" x="312.625" y="107"/><rect fill="#F1F1F1" height="2" style="stroke:#181818;stroke-width:0.5;" width="4" x="312.625" y="111"/><text fill="#000000" font-family="sans-serif" font-size="14" lengthAdjust="spacing" textLength="65.625" x="244" y="132.9951">crediter()</text></g><!--entity debiter()--><g class="entity" data-entity="debiter()" data-source-line="4" data-uid="ent0005" id="entity_debiter()"><rect fill="#F1F1F1" height="46.2969" rx="2.5" ry="2.5" style="stroke:#181818;stroke-width:0.5;" width="101.0586" x="92.5" y="100"/><rect fill="#F1F1F1" height="10" style="stroke:#181818;stroke-width:0.5;" width="15" x="173.5586" y="105"/><rect fill="#F1F1F1" height="2" style="stroke:#181818;stroke-width:0.5;" width="4" x="171.5586" y="107"/><rect fill="#F1F1F1" height="2" style="stroke:#181818;stroke-width:0.5;" width="4" x="171.5586" y="111"/><text fill="#000000" font-family="sans-serif" font-size="14" lengthAdjust="spacing" textLength="61.0586" x="107.5" y="132.9951">debiter()</text></g><!--entity Transaction--><g class="entity" data-entity="Transaction" data-source-line="8" data-uid="ent0007" id="entity_Transaction"><rect fill="#F1F1F1" height="46.2969" rx="2.5" ry="2.5" style="stroke:#181818;stroke-width:0.5;" width="122.1475" x="81" y="278"/><rect fill="#F1F1F1" height="10" style="stroke:#181818;stroke-width:0.5;" width="15" x="183.1475" y="283"/><rect fill="#F1F1F1" height="2" style="stroke:#181818;stroke-width:0.5;" width="4" x="181.1475" y="285"/><rect fill="#F1F1F1" height="2" style="stroke:#181818;stroke-width:0.5;" width="4" x="181.1475" y="289"/><text fill="#000000" font-family="sans-serif" font-size="14" lengthAdjust="spacing" textLength="82.1475" x="96" y="310.9951">Transaction</text></g><!--entity S?curit?--><g class="entity" data-entity="S&#233;curit&#233;" data-source-line="9" data-uid="ent0008" id="entity_S&#233;curit&#233;"><rect fill="#F1F1F1" height="46.2969" rx="2.5" ry="2.5" style="stroke:#181818;stroke-width:0.5;" width="97.8184" x="238" y="278"/><rect fill="#F1F1F1" height="10" style="stroke:#181818;stroke-width:0.5;" width="15" x="315.8184" y="283"/><rect fill="#F1F1F1" height="2" style="stroke:#181818;stroke-width:0.5;" width="4" x="313.8184" y="285"/><rect fill="#F1F1F1" height="2" style="stroke:#181818;stroke-width:0.5;" width="4" x="313.8184" y="289"/><text fill="#000000" font-family="sans-serif" font-size="14" lengthAdjust="spacing" textLength="57.8184" x="253" y="310.9951">S&#233;curit&#233;</text></g><!--entity Persistance--><g class="entity" data-entity="Persistance" data-source-line="10" data-uid="ent0009" id="entity_Persistance"><rect fill="#F1F1F1" height="46.2969" rx="2.5" ry="2.5" style="stroke:#181818;stroke-width:0.5;" width="120.541" x="78.5" y="385"/><rect fill="#F1F1F1" height="10" style="stroke:#181818;stroke-width:0.5;" width="15" x="179.041" y="390"/><rect fill="#F1F1F1" height="2" style="stroke:#181818;stroke-width:0.5;" width="4" x="177.041" y="392"/><rect fill="#F1F1F1" height="2" style="stroke:#181818;stroke-width:0.5;" width="4" x="177.041" y="396"/><text fill="#000000" font-family="sans-serif" font-size="14" lengthAdjust="spacing" textLength="80.541" x="93.5" y="417.9951">Persistance</text></g><!--entity Lifecycle--><g class="entity" data-entity="Lifecycle" data-source-line="11" data-uid="ent0010" id="entity_Lifecycle"><rect fill="#F1F1F1" height="46.2969" rx="2.5" ry="2.5" style="stroke:#181818;stroke-width:0.5;" width="101.4141" x="234.5" y="385"/><rect fill="#F1F1F1" height="10" style="stroke:#181818;stroke-width:0.5;" width="15" x="315.9141" y="390"/><rect fill="#F1F1F1" height="2" style="stroke:#181818;stroke-width:0.5;" width="4" x="313.9141" y="392"/><rect fill="#F1F1F1" height="2" style="stroke:#181818;stroke-width:0.5;" width="4" x="313.9141" y="396"/><text fill="#000000" font-family="sans-serif" font-size="14" lengthAdjust="spacing" textLength="61.4141" x="249.5" y="417.9951">Lifecycle</text></g><g class="entity" data-entity="GMN13" data-source-line="18" data-uid="ent0014" id="entity_GMN13"><path d="M408.5,281 L408.5,321.2656 L591.8032,321.2656 L591.8032,291 L581.8032,281 L408.5,281" fill="#FEFFDD" style="stroke:#181818;stroke-width:0.5;"/><path d="M581.8032,281 L581.8032,291 L591.8032,291 L581.8032,281" fill="#FEFFDD" style="stroke:#181818;stroke-width:1;"/><text fill="#000000" font-family="sans-serif" font-size="13" lengthAdjust="spacing" textLength="130.5459" x="414.5" y="298.0669">Services techniques</text><text fill="#000000" font-family="sans-serif" font-size="13" lengthAdjust="spacing" textLength="162.3032" x="414.5" y="313.1997">inject&#233;s par le conteneur</text></g><!--reverse link METIER to CONTENEUR--><g class="link" data-entity-1="METIER" data-entity-2="CONTENEUR" data-source-line="14" data-uid="lnk12" id="link_METIER_CONTENEUR"><path d="M53.7122,176.565 C53.6748,177.164 53.9554,172.6737 53.9175,173.2789 C53.7663,175.6997 53.612,178.1693 53.4552,180.6779 C52.8282,190.7126 52.1622,201.3722 51.4962,212.0313 C51.1633,217.3608 50.8303,222.6902 50.5023,227.9412 C50.4203,229.254 50.3386,230.5619 50.2573,231.8636 C50.2166,232.5145 50.176,233.1639 50.1356,233.8115 C50.1153,234.1354 50.0951,234.4588 50.075,234.7817" fill="none" id="METIER-backto-CONTENEUR" style="stroke:#181818;stroke-width:1;"/><polygon fill="#181818" points="54.0864,170.5767,49.5329,179.3097,53.7746,175.567,57.5173,179.8086,54.0864,170.5767" style="stroke:#181818;stroke-width:1;"/><text fill="#000000" font-family="sans-serif" font-size="13" lengthAdjust="spacing" textLength="106.2979" x="53" y="207.0669">Hooks/Callbacks</text></g><!--link CONTENEUR to GMN13--><g class="link" data-entity-1="CONTENEUR" data-entity-2="GMN13" data-source-line="18" data-uid="lnk15" id="link_CONTENEUR_GMN13"><path d="M51.9732,234.8779 C52.4275,233.5794 52.9103,232.2956 53.4233,231.0305 C54.4493,228.5001 55.596,226.0441 56.8764,223.6931 C61.9981,214.2894 69.26,206.5675 79.5,202.5 C132.17,181.59 279.86,187.47 334.5,202.5 C389.79,217.71 445.28,256.75 475.88,280.86" fill="none" id="CONTENEUR-GMN13" style="stroke:#181818;stroke-width:1;stroke-dasharray:7.0,7.0;"/></g><!--SRC=[NP2nJiCm48RtFCKfKpjKx0nTeaWWaO9ec123U_dRkatFgNr1GgWFbEV8Y-6KG1231t_t-xixDuQFPWTACtTgN32YLFITMdYQ3KWnJ-ap8UAXBeZr6Ar0fp7Lj3ub4wZ8o_ly-HebUcMFoYhyRFxs3IfiflibdlzAKGXQJrbMN7tPuwhCL_dBhxBqHe9XjKv6vxhlkFLM-su4J_311ZN26Cc3tO8_kCQVjfDvqJQBvS_ajtJdt37SPAQkD_5NGd994d4AydQtLtBRwMMqhE7VBIEGWlTYpor2f5OEu3XGeCPugX5t71TB81KDkYy0]--></g></svg>