<svg xmlns="http://www.w3.org/2000/svg" xmlns:xlink="http://www.w3.org/1999/xlink" contentStyleType="text/css" data-diagram-type="DESCRIPTION" height="284px" preserveAspectRatio="none" style="width:524px;height:284px;background:#FFFFFF;" version="1.1" viewBox="0 0 524 284" width="524px" zoomAndPan="magnify"><defs/><g><!--cluster CompteService--><g class="cluster" data-entity="CompteService" data-source-line="1" data-uid="ent0002" id="cluster_CompteService"><rect fill="none" height="175" rx="2.5" ry="2.5" style="stroke:#181818;stroke-width:1;" width="128" x="8.7202" y="82"/><rect fill="none" height="10" style="stroke:#181818;stroke-width:1;" width="15" x="116.7202" y="87"/><rect fill="none" height="2" style="stroke:#181818;stroke-width:1;" width="4" x="114.7202" y="89"/><rect fill="none" height="2" style="stroke:#181818;stroke-width:1;" width="4" x="114.7202" y="93"/><text fill="#000000" font-family="sans-serif" font-size="14" font-weight="bold" lengthAdjust="spacing" textLength="118.8906" x="13.2749" y="107.9951">CompteService</text></g><g class="entity" data-entity="PM" data-source-line="2" data-uid="ent0003" id="entity_PM"><text fill="#000000" font-family="sans-serif" font-size="14" lengthAdjust="spacing" textLength="44.4404" x="6" y="60.6982">M&#233;tier</text><rect fill="#F1F1F1" height="12" style="stroke:#181818;stroke-width:1.5;" width="12" x="22.2202" y="76"/></g><g class="entity" data-entity="PA" data-source-line="3" data-uid="ent0004" id="entity_PA"><text fill="#000000" font-family="sans-serif" font-size="14" lengthAdjust="spacing" textLength="44.8643" x="94.7881" y="60.6982">Admin</text><rect fill="#F1F1F1" height="12" style="stroke:#181818;stroke-width:1.5;" width="12" x="111.2202" y="76"/></g><g class="entity" data-entity="PP" data-source-line="4" data-uid="ent0005" id="entity_PP"><text fill="#000000" font-family="sans-serif" font-size="14" lengthAdjust="spacing" textLength="80.5752" x="53.4326" y="275.9951">Persistence</text><rect fill="#F1F1F1" height="12" style="stroke:#181818;stroke-width:1.5;" width="12" x="87.7202" y="251"/></g><g class="entity" data-entity="GMN6" data-source-line="8" data-uid="ent0007" id="entity_GMN6"><path d="M179.2202,69.5 L179.2202,94.6328 L305.2676,94.6328 L305.2676,79.5 L295.2676,69.5 L179.2202,69.5" fill="#FEFFDD" style="stroke:#181818;stroke-width:0.5;"/><path d="M295.2676,69.5 L295.2676,79.5 L305.2676,79.5 L295.2676,69.5" fill="#FEFFDD" style="stroke:#181818;stroke-width:1;"/><text fill="#000000" font-family="sans-serif" font-size="13" lengthAdjust="spacing" textLength="105.0474" x="185.2202" y="86.5669">Interface m&#233;tier</text></g><g class="entity" data-entity="GMN9" data-source-line="12" data-uid="ent0010" id="entity_GMN9"><path d="M340.2202,69.5 L340.2202,94.6328 L517.9819,94.6328 L517.9819,79.5 L507.9819,69.5 L340.2202,69.5" fill="#FEFFDD" style="stroke:#181818;stroke-width:0.5;"/><path d="M507.9819,69.5 L507.9819,79.5 L517.9819,79.5 L507.9819,69.5" fill="#FEFFDD" style="stroke:#181818;stroke-width:1;"/><text fill="#000000" font-family="sans-serif" font-size="13" lengthAdjust="spacing" textLength="156.7617" x="346.2202" y="86.5669">Interface administration</text></g><g class="entity" data-entity="GMN12" data-source-line="16" data-uid="ent0013" id="entity_GMN12"><path d="M167.2202,244.5 L167.2202,269.6328 A0,0 0 0 0 167.2202,269.6328 L185.7102,269.6328 L99.7502,261.65 L193.7102,269.6328 L339.2754,269.6328 A0,0 0 0 0 339.2754,269.6328 L339.2754,254.5 L329.2754,244.5 L167.2202,244.5 A0,0 0 0 0 167.2202,244.5" fill="#FEFFDD" style="stroke:#181818;stroke-width:0.5;"/><path d="M329.2754,244.5 L329.2754,254.5 L339.2754,254.5 L329.2754,244.5" fill="#FEFFDD" style="stroke:#181818;stroke-width:0.5;"/><text fill="#000000" font-family="sans-serif" font-size="13" lengthAdjust="spacing" textLength="151.0552" x="173.2202" y="261.5669">D&#233;pendance technique</text></g><!--link PM to GMN6--><g class="link" data-entity-1="PM" data-entity-2="GMN6" data-source-line="8" data-uid="lnk8" id="link_PM_GMN6"><path d="M32.4202,75.9 C41.3002,63.62 63.3302,36.22 89.7202,26 C114.5902,16.37 124.0402,18.83 149.7202,26 C179.9202,34.43 210.0802,55.69 227.4002,69.46" fill="none" id="PM-GMN6" style="stroke:#181818;stroke-width:1;stroke-dasharray:7.0,7.0;"/></g><!--link PA to GMN9--><g class="link" data-entity-1="PA" data-entity-2="GMN9" data-source-line="12" data-uid="lnk11" id="link_PA_GMN9"><path d="M121.5202,75.89 C130.5802,63.61 153.0502,36.2 179.7202,26 C232.0202,6 250.9802,14.17 305.7202,26 C344.1502,34.31 385.0002,55.61 408.7502,69.41" fill="none" id="PA-GMN9" style="stroke:#181818;stroke-width:1;stroke-dasharray:7.0,7.0;"/></g><!--SRC=[TOun3i8m34NtdCBAJI9O62f5uWHHwb8FiOlhiY0Er7FqOgGAGY34Pds_x-SiPH96DZZKoV2CUgECS7S0awWHW- -srGZLGveXTX-Bq1VY5eTNB8k1ZwWppOQSiMsZUpZ7OWXAbz50XdRen8OwfEehpU6GUzZ17pnyuMatLuKc8-7_hLXRnssTAf3gDs2OHwRhWk_A4m00]--></g></svg>