<svg xmlns="http://www.w3.org/2000/svg" xmlns:xlink="http://www.w3.org/1999/xlink" contentStyleType="text/css" data-diagram-type="DESCRIPTION" height="564px" preserveAspectRatio="none" style="width:443px;height:564px;background:#FFFFFF;" version="1.1" viewBox="0 0 443 564" width="443px" zoomAndPan="magnify"><defs/><g><!--cluster Application Layer--><g class="cluster" data-entity="Application Layer" data-source-line="11" data-uid="ent0003" id="cluster_Application Layer"><path d="M61.5,85 L200.5654,85 A3.75,3.75 0 0 1 203.0654,87.5 L210.0654,107.2969 L400.5,107.2969 A2.5,2.5 0 0 1 403,109.7969 L403,304.5 A2.5,2.5 0 0 1 400.5,307 L61.5,307 A2.5,2.5 0 0 1 59,304.5 L59,87.5 A2.5,2.5 0 0 1 61.5,85" fill="none" style="stroke:#000000;stroke-width:1.5;"/><line style="stroke:#000000;stroke-width:1.5;" x1="59" x2="210.0654" y1="107.2969" y2="107.2969"/><text fill="#000000" font-family="sans-serif" font-size="14" font-weight="bold" lengthAdjust="spacing" textLength="138.0654" x="63" y="99.9951">Application Layer</text></g><!--cluster Infrastructure Layer--><g class="cluster" data-entity="Infrastructure Layer" data-source-line="27" data-uid="ent0011" id="cluster_Infrastructure Layer"><path d="M8.5,331 L169.1396,331 A3.75,3.75 0 0 1 171.6396,333.5 L178.6396,353.2969 L433.5,353.2969 A2.5,2.5 0 0 1 436,355.7969 L436,554.5 A2.5,2.5 0 0 1 433.5,557 L8.5,557 A2.5,2.5 0 0 1 6,554.5 L6,333.5 A2.5,2.5 0 0 1 8.5,331" fill="none" style="stroke:#000000;stroke-width:1.5;"/><line style="stroke:#000000;stroke-width:1.5;" x1="6" x2="178.6396" y1="353.2969" y2="353.2969"/><text fill="#000000" font-family="sans-serif" font-size="14" font-weight="bold" lengthAdjust="spacing" textLength="159.6396" x="10" y="345.9951">Infrastructure Layer</text></g><!--entity UseCase--><g class="entity" data-entity="UseCase" data-source-line="13" data-uid="ent0004" id="entity_UseCase"><rect fill="#F9F9F9" height="52.5938" rx="2.5" ry="2.5" style="stroke:#181818;stroke-width:0.5;" width="254.2334" x="131" y="120"/><text fill="#000000" font-family="sans-serif" font-size="14" lengthAdjust="spacing" textLength="167.4121" x="141" y="142.9951">DebiterCompteUseCase</text><text fill="#000000" font-family="sans-serif" font-size="14" lengthAdjust="spacing" textLength="234.2334" x="141" y="159.292">(orchestration, pas de technique)</text></g><!--entity ICompteRepo--><g class="entity" data-entity="ICompteRepo" data-source-line="16" data-uid="ent0005" id="entity_ICompteRepo"><ellipse cx="130" cy="262" fill="#F1F1F1" rx="8" ry="8" style="stroke:#181818;stroke-width:0.5;"/><text fill="#000000" font-family="sans-serif" font-size="14" lengthAdjust="spacing" textLength="94.8896" x="82.5552" y="291.9951">ICompteRepo</text></g><!--entity ISecurity--><g class="entity" data-entity="ISecurity" data-source-line="17" data-uid="ent0006" id="entity_ISecurity"><ellipse cx="258" cy="262" fill="#F1F1F1" rx="8" ry="8" style="stroke:#181818;stroke-width:0.5;"/><text fill="#000000" font-family="sans-serif" font-size="14" lengthAdjust="spacing" textLength="61.6191" x="227.1904" y="291.9951">ISecurity</text></g><!--entity IAudit--><g class="entity" data-entity="IAudit" data-source-line="18" data-uid="ent0007" id="entity_IAudit"><ellipse cx="359" cy="262" fill="#F1F1F1" rx="8" ry="8" style="stroke:#181818;stroke-width:0.5;"/><text fill="#000000" font-family="sans-serif" font-size="14" lengthAdjust="spacing" textLength="40.8447" x="338.5776" y="291.9951">IAudit</text></g><!--entity JpaRepo--><g class="entity" data-entity="JpaRepo" data-source-line="29" data-uid="ent0012" id="entity_JpaRepo"><rect fill="#F1F1F1" height="52.5938" rx="2.5" ry="2.5" style="stroke:#181818;stroke-width:0.5;" width="111.6768" x="51" y="366"/><text fill="#000000" font-family="sans-serif" font-size="14" lengthAdjust="spacing" textLength="57.3877" x="61" y="388.9951">JpaRepo</text><text fill="#000000" font-family="sans-serif" font-size="14" lengthAdjust="spacing" textLength="91.6768" x="61" y="405.292">(PostgreSQL)</text></g><!--entity KeyCloak--><g class="entity" data-entity="KeyCloak" data-source-line="30" data-uid="ent0013" id="entity_KeyCloak"><rect fill="#F1F1F1" height="52.5938" rx="2.5" ry="2.5" style="stroke:#181818;stroke-width:0.5;" width="84.9961" x="215.5" y="366"/><text fill="#000000" font-family="sans-serif" font-size="14" lengthAdjust="spacing" textLength="64.9961" x="225.5" y="388.9951">KeyCloak</text><text fill="#000000" font-family="sans-serif" font-size="14" lengthAdjust="spacing" textLength="57.4902" x="225.5" y="405.292">Security</text></g><!--entity ELK--><g class="entity" data-entity="ELK" data-source-line="31" data-uid="ent0014" id="entity_ELK"><rect fill="#F1F1F1" height="52.5938" rx="2.5" ry="2.5" style="stroke:#181818;stroke-width:0.5;" width="56.7158" x="348.5" y="366"/><text fill="#000000" font-family="sans-serif" font-size="14" lengthAdjust="spacing" textLength="25.8262" x="358.5" y="388.9951">ELK</text><text fill="#000000" font-family="sans-serif" font-size="14" lengthAdjust="spacing" textLength="36.7158" x="358.5" y="405.292">Audit</text></g><!--entity MongoDB--><g class="entity" data-entity="MongoDB" data-source-line="39" data-uid="ent0018" id="entity_MongoDB"><path d="M22,489 C22,479 89.1758,479 89.1758,479 C89.1758,479 156.3516,479 156.3516,489 L156.3516,530.5938 C156.3516,540.5938 89.1758,540.5938 89.1758,540.5938 C89.1758,540.5938 22,540.5938 22,530.5938 L22,489" fill="#F1F1F1" style="stroke:#181818;stroke-width:0.5;"/><path d="M22,489 C22,499 89.1758,499 89.1758,499 C89.1758,499 156.3516,499 156.3516,489" fill="none" style="stroke:#181818;stroke-width:0.5;"/><text fill="#000000" font-family="sans-serif" font-size="14" lengthAdjust="spacing" textLength="67.3545" x="32" y="515.9951">MongoDB</text><text fill="#000000" font-family="sans-serif" font-size="14" lengthAdjust="spacing" textLength="114.3516" x="32" y="532.292">Interchangeable</text></g><!--entity LDAP--><g class="entity" data-entity="LDAP" data-source-line="40" data-uid="ent0019" id="entity_LDAP"><path d="M191,489 C191,479 258.1758,479 258.1758,479 C258.1758,479 325.3516,479 325.3516,489 L325.3516,530.5938 C325.3516,540.5938 258.1758,540.5938 258.1758,540.5938 C258.1758,540.5938 191,540.5938 191,530.5938 L191,489" fill="#F1F1F1" style="stroke:#181818;stroke-width:0.5;"/><path d="M191,489 C191,499 258.1758,499 258.1758,499 C258.1758,499 325.3516,499 325.3516,489" fill="none" style="stroke:#181818;stroke-width:0.5;"/><text fill="#000000" font-family="sans-serif" font-size="14" lengthAdjust="spacing" textLength="36.5996" x="201" y="515.9951">LDAP</text><text fill="#000000" font-family="sans-serif" font-size="14" lengthAdjust="spacing" textLength="114.3516" x="201" y="532.292">Interchangeable</text></g><!--entity Kafka--><g class="entity" data-entity="Kafka" data-source-line="41" data-uid="ent0020" id="entity_Kafka"><path d="M360.5,497.5 C360.5,487.5 390.1875,487.5 390.1875,487.5 C390.1875,487.5 419.875,487.5 419.875,497.5 L419.875,522.7969 C419.875,532.7969 390.1875,532.7969 390.1875,532.7969 C390.1875,532.7969 360.5,532.7969 360.5,522.7969 L360.5,497.5" fill="#F1F1F1" style="stroke:#181818;stroke-width:0.5;"/><path d="M360.5,497.5 C360.5,507.5 390.1875,507.5 390.1875,507.5 C390.1875,507.5 419.875,507.5 419.875,497.5" fill="none" style="stroke:#181818;stroke-width:0.5;"/><text fill="#000000" font-family="sans-serif" font-size="14" lengthAdjust="spacing" textLength="39.375" x="370.5" y="524.4951">Kafka</text></g><!--entity APILayer--><g class="entity" data-entity="APILayer" data-source-line="8" data-uid="ent0002" id="entity_APILayer"><rect fill="#F9F9F9" height="52.5938" rx="2.5" ry="2.5" style="stroke:#181818;stroke-width:0.5;" width="254.7666" x="130.5" y="7"/><text fill="#000000" font-family="sans-serif" font-size="14" lengthAdjust="spacing" textLength="65.6318" x="140.5" y="29.9951">API Layer</text><text fill="#000000" font-family="sans-serif" font-size="14" lengthAdjust="spacing" textLength="234.7666" x="140.5" y="46.292">CompteController (REST adapter)</text></g><!--link UseCase to ICompteRepo--><g class="link" data-entity-1="UseCase" data-entity-2="ICompteRepo" data-source-line="21" data-uid="lnk8" id="link_UseCase_ICompteRepo"><path d="M228.95,173.25 C200.19,198.76 162.3191,232.3391 143.7691,248.7891" fill="none" id="UseCase-to-ICompteRepo" style="stroke:#181818;stroke-width:1;"/><polygon fill="#181818" points="139.28,252.77,148.6676,249.7914,143.0209,249.4526,143.3597,243.8059,139.28,252.77" style="stroke:#181818;stroke-width:1;"/></g><!--link UseCase to ISecurity--><g class="link" data-entity-1="UseCase" data-entity-2="ISecurity" data-source-line="22" data-uid="lnk9" id="link_UseCase_ISecurity"><path d="M258,173.25 C258,198.76 258,230.32 258,246.77" fill="none" id="UseCase-to-ISecurity" style="stroke:#181818;stroke-width:1;"/><polygon fill="#181818" points="258,252.77,262,243.77,258,247.77,254,243.77,258,252.77" style="stroke:#181818;stroke-width:1;"/></g><!--link UseCase to IAudit--><g class="link" data-entity-1="UseCase" data-entity-2="IAudit" data-source-line="23" data-uid="lnk10" id="link_UseCase_IAudit"><path d="M280.92,173.25 C303.62,198.76 333.0511,231.838 347.6911,248.288" fill="none" id="UseCase-to-IAudit" style="stroke:#181818;stroke-width:1;"/><polygon fill="#181818" points="351.68,252.77,348.6847,243.3877,348.3559,249.035,342.7086,248.7062,351.68,252.77" style="stroke:#181818;stroke-width:1;"/></g><!--link ICompteRepo to JpaRepo--><g class="link" data-entity-1="ICompteRepo" data-entity-2="JpaRepo" data-source-line="34" data-uid="lnk15" id="link_ICompteRepo_JpaRepo"><path d="M128.56,271.04 C125.23,289.66 117.9178,330.524 112.6378,360.004" fill="none" id="ICompteRepo-to-JpaRepo" style="stroke:#181818;stroke-width:1;"/><polygon fill="#181818" points="111.58,365.91,117.104,357.7562,112.4615,360.9883,109.2293,356.3458,111.58,365.91" style="stroke:#181818;stroke-width:1;"/></g><!--link ISecurity to KeyCloak--><g class="link" data-entity-1="ISecurity" data-entity-2="KeyCloak" data-source-line="35" data-uid="lnk16" id="link_ISecurity_KeyCloak"><path d="M258,271.04 C258,289.66 258,330.43 258,359.91" fill="none" id="ISecurity-to-KeyCloak" style="stroke:#181818;stroke-width:1;"/><polygon fill="#181818" points="258,365.91,262,356.91,258,360.91,254,356.91,258,365.91" style="stroke:#181818;stroke-width:1;"/></g><!--link IAudit to ELK--><g class="link" data-entity-1="IAudit" data-entity-2="ELK" data-source-line="36" data-uid="lnk17" id="link_IAudit_ELK"><path d="M360.13,271.04 C362.74,289.66 368.4576,330.488 372.5876,359.968" fill="none" id="IAudit-to-ELK" style="stroke:#181818;stroke-width:1;"/><polygon fill="#181818" points="373.42,365.91,376.1327,356.4421,372.7263,360.9584,368.21,357.552,373.42,365.91" style="stroke:#181818;stroke-width:1;"/></g><!--link JpaRepo to MongoDB--><g class="link" data-entity-1="JpaRepo" data-entity-2="MongoDB" data-source-line="43" data-uid="lnk21" id="link_JpaRepo_MongoDB"><path d="M103.01,419.13 C100.25,436.81 97.5063,454.4519 94.6063,473.0119" fill="none" id="JpaRepo-to-MongoDB" style="stroke:#181818;stroke-width:1;"/><polygon fill="#181818" points="93.68,478.94,99.0214,470.6654,94.4519,473.9999,91.1173,469.4304,93.68,478.94" style="stroke:#181818;stroke-width:1;"/></g><!--link KeyCloak to LDAP--><g class="link" data-entity-1="KeyCloak" data-entity-2="LDAP" data-source-line="44" data-uid="lnk22" id="link_KeyCloak_LDAP"><path d="M258,419.13 C258,436.81 258,454.38 258,472.94" fill="none" id="KeyCloak-to-LDAP" style="stroke:#181818;stroke-width:1;"/><polygon fill="#181818" points="258,478.94,262,469.94,258,473.94,254,469.94,258,478.94" style="stroke:#181818;stroke-width:1;"/></g><!--link ELK to Kafka--><g class="link" data-entity-1="ELK" data-entity-2="Kafka" data-source-line="45" data-uid="lnk23" id="link_ELK_Kafka"><path d="M379.89,419.13 C382.19,439.6 384.7083,462.0077 386.8883,481.3577" fill="none" id="ELK-to-Kafka" style="stroke:#181818;stroke-width:1;"/><polygon fill="#181818" points="387.56,487.32,390.5273,477.9288,387.0002,482.3514,382.5776,478.8244,387.56,487.32" style="stroke:#181818;stroke-width:1;"/></g><!--link APILayer to UseCase--><g class="link" data-entity-1="APILayer" data-entity-2="UseCase" data-source-line="49" data-uid="lnk24" id="link_APILayer_UseCase"><path d="M258,60.24 C258,78.18 258,95.99 258,113.89" fill="none" id="APILayer-to-UseCase" style="stroke:#181818;stroke-width:1;"/><polygon fill="#181818" points="258,119.89,262,110.89,258,114.89,254,110.89,258,119.89" style="stroke:#181818;stroke-width:1;"/></g><!--SRC=[RLDBZjGm4Dtd5AMmc46QqQpP8FLdHWeTf6O2ksogdUgqrMuxOpj02x7b0Do2St0JJe8_-MkKZQlgrNjLBxOvSzcWnWimTMcK96aBUnK4cfX5MGjAp00PSl0Z0IXEMAblNDPmH678PTR8phLMhQmsIYWDRvxU-I_vcIGtiDfdaEELT3BIf4Eob1kdRscZfDLA2D9m-_nOV0QiqANrsnJGU8v8uVcQHd26bYlPyJPE7clFkYobRc0ttqHuImVkQAFe5qCRD5JAMwNPYOpLeVSE6gTP4LXY9ybVMefJT73FU0EPT3H7P6HSoFi0qYnIFrEZGjCaNW0BOgtczXfXVRG0hTgAsuW8noYUSvB3FF2Lj1cR_3nzvVx-_MA0MMMYESj7fV3tCddKw8nfcMqrBGr_hTfvFbmhI3yqwDMTpNjbRAsf-9H7HxlA7BwZwqOeF9Tovb2VdeCVyrqfHvDS61tQ_ltJaAnGHaCc9eGLH-71X92VY4GNGdPWNJkB33p0XOnn1dIkivExN8G74QGgj7ZmLgOVbQpLTbtAR8uAatR5MKE-NUrVH_lA3Bh3uncZB_xan-js2XEFxFr68TtHk7tYjg4r_ESdqNuFJ_NVhz_J9vRqJoyqTBVaFm00]--></g></svg>