<svg xmlns="http://www.w3.org/2000/svg" xmlns:xlink="http://www.w3.org/1999/xlink" contentStyleType="text/css" data-diagram-type="CLASS" height="283px" preserveAspectRatio="none" style="width:308px;height:283px;background:#FFFFFF;" version="1.1" viewBox="0 0 308 283" width="308px" zoomAndPan="magnify"><defs/><g><!--class Compte--><g class="entity" data-entity="Compte" data-source-line="3" data-uid="ent0002" id="entity_Compte"><rect fill="#F1F1F1" height="113.1875" rx="2.5" ry="2.5" style="stroke:#181818;stroke-width:0.5;" width="89.3555" x="101.5" y="7"/><ellipse cx="117.5745" cy="23" fill="#ADD1B2" rx="11" ry="11" style="stroke:#181818;stroke-width:1;"/><path d="M120.5432,28.6406 Q119.9651,28.9375 119.3245,29.0781 Q118.6838,29.2344 117.9807,29.2344 Q115.4807,29.2344 114.1526,27.5938 Q112.8401,25.9375 112.8401,22.8125 Q112.8401,19.6875 114.1526,18.0313 Q115.4807,16.375 117.9807,16.375 Q118.6838,16.375 119.3245,16.5313 Q119.9807,16.6875 120.5432,16.9844 L120.5432,19.7031 Q119.9182,19.125 119.3245,18.8594 Q118.7307,18.5781 118.1057,18.5781 Q116.762,18.5781 116.0745,19.6563 Q115.387,20.7188 115.387,22.8125 Q115.387,24.9063 116.0745,25.9844 Q116.762,27.0469 118.1057,27.0469 Q118.7307,27.0469 119.3245,26.7813 Q119.9182,26.5 120.5432,25.9219 L120.5432,28.6406 Z " fill="#000000"/><text fill="#000000" font-family="sans-serif" font-size="14" lengthAdjust="spacing" textLength="54.9678" x="131.8132" y="27.8467">Compte</text><line style="stroke:#181818;stroke-width:0.5;" x1="102.5" x2="189.8555" y1="39" y2="39"/><text fill="#000000" font-family="sans-serif" font-size="14" lengthAdjust="spacing" textLength="42.3008" x="107.5" y="55.9951">-solde</text><text fill="#000000" font-family="sans-serif" font-size="14" lengthAdjust="spacing" textLength="59.3701" x="107.5" y="72.292">-numero</text><line style="stroke:#181818;stroke-width:0.5;" x1="102.5" x2="189.8555" y1="79.5938" y2="79.5938"/><text fill="#000000" font-family="sans-serif" font-size="14" lengthAdjust="spacing" textLength="77.3555" x="107.5" y="96.5889">+crediter()</text><text fill="#000000" font-family="sans-serif" font-size="14" lengthAdjust="spacing" textLength="72.7891" x="107.5" y="112.8857">+debiter()</text></g><!--class Transaction--><g class="entity" data-entity="Transaction" data-source-line="10" data-uid="ent0003" id="entity_Transaction"><rect fill="#F1F1F1" height="96.8906" rx="2.5" ry="2.5" style="stroke:#181818;stroke-width:0.5;" width="114.1475" x="7" y="180"/><ellipse cx="22" cy="196" fill="#ADD1B2" rx="11" ry="11" style="stroke:#181818;stroke-width:1;"/><path d="M24.9688,201.6406 Q24.3906,201.9375 23.75,202.0781 Q23.1094,202.2344 22.4063,202.2344 Q19.9063,202.2344 18.5781,200.5938 Q17.2656,198.9375 17.2656,195.8125 Q17.2656,192.6875 18.5781,191.0313 Q19.9063,189.375 22.4063,189.375 Q23.1094,189.375 23.75,189.5313 Q24.4063,189.6875 24.9688,189.9844 L24.9688,192.7031 Q24.3438,192.125 23.75,191.8594 Q23.1563,191.5781 22.5313,191.5781 Q21.1875,191.5781 20.5,192.6563 Q19.8125,193.7188 19.8125,195.8125 Q19.8125,197.9063 20.5,198.9844 Q21.1875,200.0469 22.5313,200.0469 Q23.1563,200.0469 23.75,199.7813 Q24.3438,199.5 24.9688,198.9219 L24.9688,201.6406 Z " fill="#000000"/><text fill="#000000" font-family="sans-serif" font-size="14" lengthAdjust="spacing" textLength="82.1475" x="36" y="200.8467">Transaction</text><line style="stroke:#181818;stroke-width:0.5;" x1="8" x2="120.1475" y1="212" y2="212"/><text fill="#000000" font-family="sans-serif" font-size="14" lengthAdjust="spacing" textLength="64.5586" x="13" y="228.9951">-montant</text><text fill="#000000" font-family="sans-serif" font-size="14" lengthAdjust="spacing" textLength="36.6201" x="13" y="245.292">-date</text><line style="stroke:#181818;stroke-width:0.5;" x1="8" x2="120.1475" y1="252.5938" y2="252.5938"/><text fill="#000000" font-family="sans-serif" font-size="14" lengthAdjust="spacing" textLength="84.5947" x="13" y="269.5889">+executer()</text></g><!--class CompteEpargne--><g class="entity" data-entity="CompteEpargne" data-source-line="16" data-uid="ent0004" id="entity_CompteEpargne"><rect fill="#F1F1F1" height="48" rx="2.5" ry="2.5" style="stroke:#181818;stroke-width:0.5;" width="145.4082" x="156.5" y="204.5"/><ellipse cx="171.5" cy="220.5" fill="#ADD1B2" rx="11" ry="11" style="stroke:#181818;stroke-width:1;"/><path d="M174.4688,226.1406 Q173.8906,226.4375 173.25,226.5781 Q172.6094,226.7344 171.9063,226.7344 Q169.4063,226.7344 168.0781,225.0938 Q166.7656,223.4375 166.7656,220.3125 Q166.7656,217.1875 168.0781,215.5313 Q169.4063,213.875 171.9063,213.875 Q172.6094,213.875 173.25,214.0313 Q173.9063,214.1875 174.4688,214.4844 L174.4688,217.2031 Q173.8438,216.625 173.25,216.3594 Q172.6563,216.0781 172.0313,216.0781 Q170.6875,216.0781 170,217.1563 Q169.3125,218.2188 169.3125,220.3125 Q169.3125,222.4063 170,223.4844 Q170.6875,224.5469 172.0313,224.5469 Q172.6563,224.5469 173.25,224.2813 Q173.8438,224 174.4688,223.4219 L174.4688,226.1406 Z " fill="#000000"/><text fill="#000000" font-family="sans-serif" font-size="14" lengthAdjust="spacing" textLength="113.4082" x="185.5" y="225.3467">CompteEpargne</text><line style="stroke:#181818;stroke-width:0.5;" x1="157.5" x2="300.9082" y1="236.5" y2="236.5"/><line style="stroke:#181818;stroke-width:0.5;" x1="157.5" x2="300.9082" y1="244.5" y2="244.5"/></g><!--reverse link Compte to CompteEpargne--><g class="link" data-entity-1="Compte" data-entity-2="CompteEpargne" data-source-line="18" data-uid="lnk5" id="link_Compte_CompteEpargne"><path codeLine="18" d="M182.4978,136.1802 C197.1478,164.9502 206.08,182.49 217.2,204.32" fill="none" id="Compte-backto-CompteEpargne" style="stroke:#181818;stroke-width:1;"/><polygon fill="none" points="174.33,120.14,177.1511,138.9028,187.8445,133.4575,174.33,120.14" style="stroke:#181818;stroke-width:1;"/></g><!--reverse link Compte to Transaction--><g class="link" data-entity-1="Compte" data-entity-2="Transaction" data-source-line="19" data-uid="lnk6" id="link_Compte_Transaction"><path codeLine="19" d="M112.617,130.8599 C102.827,150.3199 97.33,161.25 87.9,179.99" fill="none" id="Compte-backto-Transaction" style="stroke:#181818;stroke-width:1;"/><polygon fill="none" points="118.01,120.14,111.7402,123.7023,112.617,130.8599,118.8868,127.2976,118.01,120.14" style="stroke:#181818;stroke-width:1;"/><text fill="#000000" font-family="sans-serif" font-size="13" lengthAdjust="spacing" textLength="8.271" x="105.9059" y="140.4213">1</text><text fill="#000000" font-family="sans-serif" font-size="13" lengthAdjust="spacing" textLength="6.5" x="84.9956" y="168.8482">*</text></g><!--SRC=[NOwx2W8n44NxVCMGoWS1xMr4BApr1sQJGOARcIMP1V7nxounWcntBuVxABV80sPCu7iiPQ-QOpSgdRpmEJu8DiPK0WT9Wn8y3O238dsWgdXCb6MIQ_2PGbJAYsMrWRhcth-EIqOkw3KAjw8ahCXQTK2bcgGx-N4M_SuVfwzN9cFQcztBkHbgn6ujo0JjolxFVW00]--></g></svg>