<svg xmlns="http://www.w3.org/2000/svg" xmlns:xlink="http://www.w3.org/1999/xlink" contentStyleType="text/css" data-diagram-type="DESCRIPTION" height="1053px" preserveAspectRatio="none" style="width:2080px;height:1053px;" version="1.1" viewBox="0 0 2080 1053" width="2080px" zoomAndPan="magnify"><defs/><g><!--cluster 1990s-2000s--><g class="cluster" data-entity="1990s-2000s" data-source-line="4" data-uid="ent0002" id="cluster_1990s-2000s"><path d="M13.5,11 L114.9063,11 A3.75,3.75 0 0 1 117.4063,13.5 L124.4063,33.2969 L501.5,33.2969 A2.5,2.5 0 0 1 504,35.7969 L504,441.5 A2.5,2.5 0 0 1 501.5,444 L13.5,444 A2.5,2.5 0 0 1 11,441.5 L11,13.5 A2.5,2.5 0 0 1 13.5,11" fill="#FFFFFF" style="stroke:#000000;stroke-width:1;"/><line style="stroke:#000000;stroke-width:1;" x1="11" x2="124.4063" y1="33.2969" y2="33.2969"/><text fill="#000000" font-family="Verdana" font-size="14" font-weight="bold" lengthAdjust="spacing" textLength="100.4063" x="15" y="25.9951">1990s-2000s</text></g><!--cluster CCM--><g class="cluster" data-entity="CCM" data-source-line="5" data-uid="ent0003" id="cluster_CCM"><rect fill="#FFFFFF" height="350" rx="2.5" ry="2.5" style="stroke:#000000;stroke-width:1;" width="429" x="43" y="62"/><text fill="#000000" font-family="Verdana" font-size="14" font-weight="bold" lengthAdjust="spacing" textLength="155.4082" x="179.7959" y="76.9951">CCM/EJB Containers</text></g><!--cluster 2000s--><g class="cluster" data-entity="2000s" data-source-line="12" data-uid="ent0007" id="cluster_2000s"><path d="M530.5,231 L578.7979,231 A3.75,3.75 0 0 1 581.2979,233.5 L588.2979,253.2969 L959.5,253.2969 A2.5,2.5 0 0 1 962,255.7969 L962,695 A2.5,2.5 0 0 1 959.5,697.5 L530.5,697.5 A2.5,2.5 0 0 1 528,695 L528,233.5 A2.5,2.5 0 0 1 530.5,231" fill="#FFFFFF" style="stroke:#000000;stroke-width:1;"/><line style="stroke:#000000;stroke-width:1;" x1="528" x2="588.2979" y1="253.2969" y2="253.2969"/><text fill="#000000" font-family="Verdana" font-size="14" font-weight="bold" lengthAdjust="spacing" textLength="47.2979" x="532" y="245.9951">2000s</text></g><!--cluster IOC--><g class="cluster" data-entity="IOC" data-source-line="13" data-uid="ent0008" id="cluster_IOC"><rect fill="#FFFFFF" height="383.5" rx="2.5" ry="2.5" style="stroke:#000000;stroke-width:1;" width="370" x="560" y="282"/><text fill="#000000" font-family="Verdana" font-size="14" font-weight="bold" lengthAdjust="spacing" textLength="115.4727" x="687.2637" y="296.9951">IoC Containers</text></g><!--cluster 2010s--><g class="cluster" data-entity="2010s" data-source-line="20" data-uid="ent0012" id="cluster_2010s"><path d="M988.5,493 L1036.7979,493 A3.75,3.75 0 0 1 1039.2979,495.5 L1046.2979,515.2969 L1413.5,515.2969 A2.5,2.5 0 0 1 1416,517.7969 L1416,957 A2.5,2.5 0 0 1 1413.5,959.5 L988.5,959.5 A2.5,2.5 0 0 1 986,957 L986,495.5 A2.5,2.5 0 0 1 988.5,493" fill="#FFFFFF" style="stroke:#000000;stroke-width:1;"/><line style="stroke:#000000;stroke-width:1;" x1="986" x2="1046.2979" y1="515.2969" y2="515.2969"/><text fill="#000000" font-family="Verdana" font-size="14" font-weight="bold" lengthAdjust="spacing" textLength="47.2979" x="990" y="507.9951">2010s</text></g><!--cluster DOCKER--><g class="cluster" data-entity="DOCKER" data-source-line="21" data-uid="ent0013" id="cluster_DOCKER"><rect fill="#FFFFFF" height="383.5" rx="2.5" ry="2.5" style="stroke:#000000;stroke-width:1;" width="366" x="1018" y="544"/><text fill="#000000" font-family="Verdana" font-size="14" font-weight="bold" lengthAdjust="spacing" textLength="112.3555" x="1144.8223" y="558.9951">OS Containers</text></g><!--cluster Continu--><g class="cluster" data-entity="Continu" data-source-line="28" data-uid="ent0017" id="cluster_Continu"><path d="M1442.5,746.5 L1504.7842,746.5 A3.75,3.75 0 0 1 1507.2842,749 L1514.2842,768.7969 L2070.5,768.7969 A2.5,2.5 0 0 1 2073,771.2969 L2073,957 A2.5,2.5 0 0 1 2070.5,959.5 L1442.5,959.5 A2.5,2.5 0 0 1 1440,957 L1440,749 A2.5,2.5 0 0 1 1442.5,746.5" fill="#FFFFFF" style="stroke:#000000;stroke-width:1;"/><line style="stroke:#000000;stroke-width:1;" x1="1440" x2="1514.2842" y1="768.7969" y2="768.7969"/><text fill="#000000" font-family="Verdana" font-size="14" font-weight="bold" lengthAdjust="spacing" textLength="61.2842" x="1444" y="761.4951">Continu</text></g><!--cluster VM--><g class="cluster" data-entity="VM" data-source-line="29" data-uid="ent0018" id="cluster_VM"><rect fill="#FFFFFF" height="130" rx="2.5" ry="2.5" style="stroke:#000000;stroke-width:1;" width="569" x="1472" y="797.5"/><text fill="#000000" font-family="Verdana" font-size="14" font-weight="bold" lengthAdjust="spacing" textLength="130.0605" x="1691.4697" y="812.4951">VMs &amp; Networks</text></g><!--entity Services techniques\nstandardis?s--><g class="entity" data-entity="Services techniques\nstandardis&#233;s" data-source-line="6" data-uid="ent0004" id="entity_Services techniques\nstandardis&#233;s"><rect fill="#FFFFFF" height="62.5938" rx="2.5" ry="2.5" style="stroke:#000000;stroke-width:1;" width="180.5879" x="67.5" y="105"/><rect fill="#FFFFFF" height="10" style="stroke:#000000;stroke-width:1;" width="15" x="228.0879" y="110"/><rect fill="#FFFFFF" height="2" style="stroke:#000000;stroke-width:1;" width="4" x="226.0879" y="112"/><rect fill="#FFFFFF" height="2" style="stroke:#000000;stroke-width:1;" width="4" x="226.0879" y="116"/><text fill="#000000" font-family="Verdana" font-size="14" lengthAdjust="spacing" textLength="140.5879" x="82.5" y="137.9951">Services techniques</text><text fill="#000000" font-family="Verdana" font-size="14" lengthAdjust="spacing" textLength="89.4346" x="82.5" y="154.292">standardis&#233;s</text></g><!--entity Hooks lifecycle--><g class="entity" data-entity="Hooks lifecycle" data-source-line="7" data-uid="ent0005" id="entity_Hooks lifecycle"><rect fill="#FFFFFF" height="46.2969" rx="2.5" ry="2.5" style="stroke:#000000;stroke-width:1;" width="145.0137" x="283.5" y="113.5"/><rect fill="#FFFFFF" height="10" style="stroke:#000000;stroke-width:1;" width="15" x="408.5137" y="118.5"/><rect fill="#FFFFFF" height="2" style="stroke:#000000;stroke-width:1;" width="4" x="406.5137" y="120.5"/><rect fill="#FFFFFF" height="2" style="stroke:#000000;stroke-width:1;" width="4" x="406.5137" y="124.5"/><text fill="#000000" font-family="Verdana" font-size="14" lengthAdjust="spacing" textLength="105.0137" x="298.5" y="146.4951">Hooks lifecycle</text></g><!--entity S?paration\nm?tier/technique--><g class="entity" data-entity="S&#233;paration\nm&#233;tier/technique" data-source-line="8" data-uid="ent0006" id="entity_S&#233;paration\nm&#233;tier/technique"><rect fill="#FFFFFF" height="62.5938" rx="2.5" ry="2.5" style="stroke:#000000;stroke-width:1;" width="160.5244" x="77.5" y="325"/><rect fill="#FFFFFF" height="10" style="stroke:#000000;stroke-width:1;" width="15" x="218.0244" y="330"/><rect fill="#FFFFFF" height="2" style="stroke:#000000;stroke-width:1;" width="4" x="216.0244" y="332"/><rect fill="#FFFFFF" height="2" style="stroke:#000000;stroke-width:1;" width="4" x="216.0244" y="336"/><text fill="#000000" font-family="Verdana" font-size="14" lengthAdjust="spacing" textLength="76.1182" x="92.5" y="357.9951">S&#233;paration</text><text fill="#000000" font-family="Verdana" font-size="14" lengthAdjust="spacing" textLength="120.5244" x="92.5" y="374.292">m&#233;tier/technique</text></g><!--entity Spring, Guice--><g class="entity" data-entity="Spring, Guice" data-source-line="14" data-uid="ent0009" id="entity_Spring, Guice"><rect fill="#FFFFFF" height="46.2969" rx="2.5" ry="2.5" style="stroke:#000000;stroke-width:1;" width="134.001" x="584" y="333.5"/><rect fill="#FFFFFF" height="10" style="stroke:#000000;stroke-width:1;" width="15" x="698.001" y="338.5"/><rect fill="#FFFFFF" height="2" style="stroke:#000000;stroke-width:1;" width="4" x="696.001" y="340.5"/><rect fill="#FFFFFF" height="2" style="stroke:#000000;stroke-width:1;" width="4" x="696.001" y="344.5"/><text fill="#000000" font-family="Verdana" font-size="14" lengthAdjust="spacing" textLength="94.001" x="599" y="366.4951">Spring, Guice</text></g><!--entity Injection de\nd?pendances--><g class="entity" data-entity="Injection de\nd&#233;pendances" data-source-line="15" data-uid="ent0010" id="entity_Injection de\nd&#233;pendances"><rect fill="#FFFFFF" height="62.5938" rx="2.5" ry="2.5" style="stroke:#000000;stroke-width:1;" width="133.8164" x="753" y="325"/><rect fill="#FFFFFF" height="10" style="stroke:#000000;stroke-width:1;" width="15" x="866.8164" y="330"/><rect fill="#FFFFFF" height="2" style="stroke:#000000;stroke-width:1;" width="4" x="864.8164" y="332"/><rect fill="#FFFFFF" height="2" style="stroke:#000000;stroke-width:1;" width="4" x="864.8164" y="336"/><text fill="#000000" font-family="Verdana" font-size="14" lengthAdjust="spacing" textLength="81.9697" x="768" y="357.9951">Injection de</text><text fill="#000000" font-family="Verdana" font-size="14" lengthAdjust="spacing" textLength="93.8164" x="768" y="374.292">d&#233;pendances</text></g><!--entity Configuration\nexternalis?e--><g class="entity" data-entity="Configuration\nexternalis&#233;e" data-source-line="16" data-uid="ent0011" id="entity_Configuration\nexternalis&#233;e"><rect fill="#FFFFFF" height="62.5938" rx="2.5" ry="2.5" style="stroke:#000000;stroke-width:1;" width="134.9443" x="584.5" y="578.5"/><rect fill="#FFFFFF" height="10" style="stroke:#000000;stroke-width:1;" width="15" x="699.4443" y="583.5"/><rect fill="#FFFFFF" height="2" style="stroke:#000000;stroke-width:1;" width="4" x="697.4443" y="585.5"/><rect fill="#FFFFFF" height="2" style="stroke:#000000;stroke-width:1;" width="4" x="697.4443" y="589.5"/><text fill="#000000" font-family="Verdana" font-size="14" lengthAdjust="spacing" textLength="94.9443" x="599.5" y="611.4951">Configuration</text><text fill="#000000" font-family="Verdana" font-size="14" lengthAdjust="spacing" textLength="86.5088" x="599.5" y="627.792">externalis&#233;e</text></g><!--entity Docker--><g class="entity" data-entity="Docker" data-source-line="22" data-uid="ent0014" id="entity_Docker"><rect fill="#FFFFFF" height="46.2969" rx="2.5" ry="2.5" style="stroke:#000000;stroke-width:1;" width="89.5195" x="1042" y="587"/><rect fill="#FFFFFF" height="10" style="stroke:#000000;stroke-width:1;" width="15" x="1111.5195" y="592"/><rect fill="#FFFFFF" height="2" style="stroke:#000000;stroke-width:1;" width="4" x="1109.5195" y="594"/><rect fill="#FFFFFF" height="2" style="stroke:#000000;stroke-width:1;" width="4" x="1109.5195" y="598"/><text fill="#000000" font-family="Verdana" font-size="14" lengthAdjust="spacing" textLength="49.5195" x="1057" y="619.9951">Docker</text></g><!--entity Isolation processus--><g class="entity" data-entity="Isolation processus" data-source-line="23" data-uid="ent0015" id="entity_Isolation processus"><rect fill="#FFFFFF" height="46.2969" rx="2.5" ry="2.5" style="stroke:#000000;stroke-width:1;" width="173.998" x="1167" y="587"/><rect fill="#FFFFFF" height="10" style="stroke:#000000;stroke-width:1;" width="15" x="1320.998" y="592"/><rect fill="#FFFFFF" height="2" style="stroke:#000000;stroke-width:1;" width="4" x="1318.998" y="594"/><rect fill="#FFFFFF" height="2" style="stroke:#000000;stroke-width:1;" width="4" x="1318.998" y="598"/><text fill="#000000" font-family="Verdana" font-size="14" lengthAdjust="spacing" textLength="133.998" x="1182" y="619.9951">Isolation processus</text></g><!--entity Portabilit?\nd?ploiement--><g class="entity" data-entity="Portabilit&#233;\nd&#233;ploiement" data-source-line="24" data-uid="ent0016" id="entity_Portabilit&#233;\nd&#233;ploiement"><rect fill="#FFFFFF" height="62.5938" rx="2.5" ry="2.5" style="stroke:#000000;stroke-width:1;" width="127.958" x="1042" y="840.5"/><rect fill="#FFFFFF" height="10" style="stroke:#000000;stroke-width:1;" width="15" x="1149.958" y="845.5"/><rect fill="#FFFFFF" height="2" style="stroke:#000000;stroke-width:1;" width="4" x="1147.958" y="847.5"/><rect fill="#FFFFFF" height="2" style="stroke:#000000;stroke-width:1;" width="4" x="1147.958" y="851.5"/><text fill="#000000" font-family="Verdana" font-size="14" lengthAdjust="spacing" textLength="71.4902" x="1057" y="873.4951">Portabilit&#233;</text><text fill="#000000" font-family="Verdana" font-size="14" lengthAdjust="spacing" textLength="87.958" x="1057" y="889.792">d&#233;ploiement</text></g><!--entity VMware, KVM--><g class="entity" data-entity="VMware, KVM" data-source-line="30" data-uid="ent0019" id="entity_VMware, KVM"><rect fill="#FFFFFF" height="46.2969" rx="2.5" ry="2.5" style="stroke:#000000;stroke-width:1;" width="135.792" x="1881" y="849"/><rect fill="#FFFFFF" height="10" style="stroke:#000000;stroke-width:1;" width="15" x="1996.792" y="854"/><rect fill="#FFFFFF" height="2" style="stroke:#000000;stroke-width:1;" width="4" x="1994.792" y="856"/><rect fill="#FFFFFF" height="2" style="stroke:#000000;stroke-width:1;" width="4" x="1994.792" y="860"/><text fill="#000000" font-family="Verdana" font-size="14" lengthAdjust="spacing" textLength="95.792" x="1896" y="881.9951">VMware, KVM</text></g><!--entity Isolation\ninfrastructure--><g class="entity" data-entity="Isolation\ninfrastructure" data-source-line="31" data-uid="ent0020" id="entity_Isolation\ninfrastructure"><rect fill="#FFFFFF" height="62.5938" rx="2.5" ry="2.5" style="stroke:#000000;stroke-width:1;" width="135.8672" x="1710" y="840.5"/><rect fill="#FFFFFF" height="10" style="stroke:#000000;stroke-width:1;" width="15" x="1825.8672" y="845.5"/><rect fill="#FFFFFF" height="2" style="stroke:#000000;stroke-width:1;" width="4" x="1823.8672" y="847.5"/><rect fill="#FFFFFF" height="2" style="stroke:#000000;stroke-width:1;" width="4" x="1823.8672" y="851.5"/><text fill="#000000" font-family="Verdana" font-size="14" lengthAdjust="spacing" textLength="59.2744" x="1725" y="873.4951">Isolation</text><text fill="#000000" font-family="Verdana" font-size="14" lengthAdjust="spacing" textLength="95.8672" x="1725" y="889.792">infrastructure</text></g><!--entity Software-defined\nnetworking--><g class="entity" data-entity="Software-defined\nnetworking" data-source-line="32" data-uid="ent0021" id="entity_Software-defined\nnetworking"><rect fill="#FFFFFF" height="62.5938" rx="2.5" ry="2.5" style="stroke:#000000;stroke-width:1;" width="160.0117" x="1515" y="840.5"/><rect fill="#FFFFFF" height="10" style="stroke:#000000;stroke-width:1;" width="15" x="1655.0117" y="845.5"/><rect fill="#FFFFFF" height="2" style="stroke:#000000;stroke-width:1;" width="4" x="1653.0117" y="847.5"/><rect fill="#FFFFFF" height="2" style="stroke:#000000;stroke-width:1;" width="4" x="1653.0117" y="851.5"/><text fill="#000000" font-family="Verdana" font-size="14" lengthAdjust="spacing" textLength="120.0117" x="1530" y="873.4951">Software-defined</text><text fill="#000000" font-family="Verdana" font-size="14" lengthAdjust="spacing" textLength="78.5039" x="1530" y="889.792">networking</text></g><g class="entity" data-entity="GMN25" data-source-line="41" data-uid="ent0026" id="entity_GMN25"><path d="M1421,1006.5 L1421,1046.7656 A0,0 0 0 0 1421,1046.7656 L1768.6504,1046.7656 A0,0 0 0 0 1768.6504,1046.7656 L1768.6504,1016.5 L1758.6504,1006.5 L1599,1006.5 L1595,903.86 L1591,1006.5 L1421,1006.5 A0,0 0 0 0 1421,1006.5" fill="#FFFFFF" style="stroke:#000000;stroke-width:1;"/><path d="M1758.6504,1006.5 L1758.6504,1016.5 L1768.6504,1016.5 L1758.6504,1006.5" fill="#FFFFFF" style="stroke:#000000;stroke-width:1;"/><text fill="#000000" font-family="Verdana" font-size="13" lengthAdjust="spacing" textLength="326.6504" x="1427" y="1023.5669">Chaque niveau applique la s&#233;paration of concerns</text><text fill="#000000" font-family="Verdana" font-size="13" lengthAdjust="spacing" textLength="225.6909" x="1427" y="1038.6997">&#224; un niveau d'abstraction diff&#233;rent</text></g><!--link CCM to IOC--><g class="link" data-entity-1="CCM" data-entity-2="IOC" data-source-line="36" data-uid="lnk22" id="link_CCM_IOC"><path d="M472.3687,137.8511 C472.6042,137.8618 472.8443,137.8728 473.089,137.884 C473.5784,137.9065 474.0864,137.9301 474.6125,137.9547 C476.717,138.0532 479.1125,138.169 481.779,138.3036 C492.4448,138.8416 507.4459,139.6786 525.4992,140.9003 C561.6059,143.3438 609.9219,147.3263 660.1837,153.535 C760.7075,165.9525 869.015,187.275 903,223 C913.09,233.6075 919.3644,247.0187 923.0902,261.2114 C924.0216,264.7596 924.7938,268.3566 925.4264,271.9708 C925.7428,273.7779 926.0242,275.5894 926.2733,277.4012 C926.3978,278.307 926.5143,279.213 926.6229,280.1186 C926.6772,280.5714 926.0646,275.0611 926.1151,275.5136" fill="none" id="CCM-to-IOC" style="stroke:#000000;stroke-width:1;"/><polygon fill="#000000" points="926.7801,281.4766,929.7579,272.0887,926.2259,276.5074,921.8072,272.9754,926.7801,281.4766" style="stroke:#000000;stroke-width:1;"/><text fill="#000000" font-family="Verdana" font-size="13" lengthAdjust="spacing" textLength="60.3979" x="895" y="211.0669">&#233;volution</text></g><!--link IOC to DOCKER--><g class="link" data-entity-1="IOC" data-entity-2="DOCKER" data-source-line="37" data-uid="lnk23" id="link_IOC_DOCKER"><path d="M930.326,358.7149 C930.5602,358.7498 930.7991,358.7854 931.0425,358.8218 C931.5294,358.8945 932.0347,358.9702 932.5581,359.0488 C934.6515,359.3633 937.0344,359.7249 939.6867,360.1326 C950.2957,361.7634 965.2148,364.1334 983.1639,367.19 C1019.0622,373.3031 1067.0806,382.1625 1116.9788,393.3475 C1216.775,415.7175 1324.09,447.39 1357,485 C1366.035,495.325 1371.7738,508.0781 1375.2914,521.4389 C1377.0502,528.1193 1378.2538,534.9516 1379.0365,541.7083 C1379.0854,542.1306 1379.1327,542.5525 1379.1783,542.9742 C1379.2011,543.185 1378.5995,537.4283 1378.6215,537.6389" fill="none" id="IOC-to-DOCKER" style="stroke:#000000;stroke-width:1;"/><polygon fill="#000000" points="1379.2456,543.6064,1382.2878,534.2391,1378.7255,538.6335,1374.3312,535.0713,1379.2456,543.6064" style="stroke:#000000;stroke-width:1;"/><text fill="#000000" font-family="Verdana" font-size="13" lengthAdjust="spacing" textLength="60.3979" x="1349" y="473.0669">&#233;volution</text></g><!--link DOCKER to VM--><g class="link" data-entity-1="DOCKER" data-entity-2="VM" data-source-line="38" data-uid="lnk24" id="link_DOCKER_VM"><path d="M1384.278,631.6929 C1384.3925,631.9792 1384.5081,632.268 1384.6246,632.5593 C1385.0907,633.7246 1385.5727,634.9295 1386.0699,636.1723 C1388.0584,641.1436 1390.2892,646.7204 1392.7138,652.7816 C1402.4119,677.0263 1415.21,709.0213 1428.0075,741.015 C1440.805,773.0088 1453.6019,805.0013 1463.2975,829.2409 C1465.7214,835.3009 1467.9515,840.8762 1469.9393,845.8459 C1470.4362,847.0884 1470.918,848.2929 1471.384,849.4578 C1471.5004,849.749 1471.6159,850.0377 1471.7304,850.3239 C1471.7876,850.467 1469.6164,845.0386 1469.6731,845.1804" fill="none" id="DOCKER-to-VM" style="stroke:#000000;stroke-width:1;"/><polygon fill="#000000" points="1471.9014,850.7513,1472.2729,840.9095,1470.0445,846.1089,1464.845,843.8805,1471.9014,850.7513" style="stroke:#000000;stroke-width:1;"/><text fill="#000000" font-family="Verdana" font-size="13" lengthAdjust="spacing" textLength="77.6572" x="1423" y="726.5669">coexistence</text></g><!--SRC=[RPEzSjD04CTxFSMI0ffuuj0b1GLA1ap6cC4pRX35MLh9XywxuZxiC4pUXLRFeHVBdYq9SDpkr_-tj_zxvJUuHMYCqfIuMbEZhDh2MkLrPJbGaR9X2zugSf92yadII59L21VNDpTJDtaxdKxT1VnE02pcNb5b99UcywlxJ-yXPV8o6wsKA0SIFbG2V5kYtUaS7NZCDwH_1dGPEUalb2sqwrht_LZuaRbsO7I9-Q_SO1zTTcrazPefestNUetsQXmLYvwIftzWpsFEE3r5d2tI4R6ncgfB-104jDUTqGzf5rKeCAD2A528IHRf2sHSgQimeE6ZHqlAn8tEObsVmLeiJwdk5kd3_TS1x8xp6kr0vDWSnA2nB1mk32XVs7grraRxhZso6jPoR_8lGQAUfl02PJLty1e-ez-phOyig_66g_bUJ7493wlvAKn6caghdBSXzy6EP-FInvv9WQLiLsH4nz7oq2DKTCcau3rDtXtESGjTksCJujma1ePa_oh_vVlOK2Amjv0pFchdKSwK9CGUOStUyrO4quqIlm3f7Qe0gcbCz0yO1Uwlmu1BcI7TbfpqT7yWqD1Il55hsLBrfj1bsRM7ZoA-WAZr3000]--></g></svg>