<svg xmlns="http://www.w3.org/2000/svg" version="1.1" viewBox="-5.0 -10.0 110.0 135.0">
 <path d="m94.449 65.512-15.844-9.1445c-0.33984-0.19531-0.75781-0.19531-1.0977 0l-15.84 9.1445c-0.33984 0.19531-0.55078 0.55859-0.55078 0.94922v18.293c0 0.39062 0.21094 0.75391 0.55078 0.94922l15.84 9.1445c0.16797 0.097656 0.35938 0.14844 0.54688 0.14844 0.19141 0 0.37891-0.050782 0.54687-0.14844l15.844-9.1445c0.33984-0.19531 0.55078-0.55859 0.55078-0.94922v-18.293c0-0.39063-0.21094-0.75391-0.55078-0.94922zm-16.391 8.8281-3.7461-2.1602 13.645-7.8789 3.7461 2.1641-13.648 7.8789zm-6.9766 2.6406-1.75-1.0117-0.054687-4.1641 1.75 1.0117zm-0.73047-7.0898 13.648-7.8789 1.7656 1.0195-13.645 7.8789-1.7656-1.0195zm7.707-11.309 3.7461 2.1641-13.648 7.8789-3.7461-2.1641 13.645-7.8789zm-14.742 9.7812 3.7539 2.168 0.078126 6.0938c0.003906 0.38672 0.21484 0.74219 0.54687 0.9375l3.9609 2.2852c0.16797 0.097656 0.35938 0.14844 0.54688 0.14844 0.19141 0 0.38281-0.050782 0.55469-0.15234 0.33984-0.19922 0.54688-0.56641 0.54297-0.96094l-0.0625-4.7891 3.7188 2.1484v15.758l-13.645-7.8789v-15.758zm15.84 23.637v-15.758l13.645-7.8789v15.758zm11.734-10.078c0.30469 0.52344 0.125 1.1953-0.40234 1.5l-3.9609 2.2852c-0.17188 0.10156-0.35938 0.14844-0.54688 0.14844-0.37891 0-0.74609-0.19531-0.95312-0.55078-0.30469-0.52344-0.125-1.1953 0.40234-1.5l3.9609-2.2852c0.52344-0.30469 1.1953-0.125 1.5 0.40234zm-59.859 3.3828c-0.30469-0.52344-0.125-1.1953 0.40234-1.5l3.9609-2.2852c0.52344-0.30469 1.1953-0.125 1.5 0.40234 0.30469 0.52344 0.125 1.1953-0.40234 1.5l-3.9609 2.2852c-0.17188 0.10156-0.35938 0.14844-0.54688 0.14844-0.37891 0-0.74609-0.19531-0.95312-0.55078zm9.8047-19.418c-0.097657-0.16016-0.23828-0.27344-0.39453-0.36328l0.007813-0.011719-15.84-9.1484c-0.33984-0.19531-0.75781-0.19531-1.0977 0l-15.844 9.1484 0.007812 0.011719c-0.15234 0.089843-0.29297 0.19922-0.39453 0.36328l-2.1211 3.4453c-0.15625 0.25391-0.20312 0.55859-0.12891 0.84375 0.074219 0.28906 0.25781 0.53516 0.51562 0.68359l1.5703 0.90625v12.988c0 0.39062 0.21094 0.75391 0.55078 0.94922l15.844 9.1445c0.16797 0.097656 0.35938 0.14844 0.54688 0.14844 0.19141 0 0.37891-0.050782 0.54688-0.14844l15.84-9.1445c0.33984-0.19531 0.55078-0.55859 0.55078-0.94922v-12.988l1.5703-0.90625c0.25781-0.14844 0.44141-0.39453 0.51562-0.68359 0.070313-0.28906 0.023438-0.58984-0.12891-0.84375l-2.1211-3.4453zm-14.281 11.684-0.96875-1.5742 13.941-8.0469 0.96875 1.5742zm-2.4961-18.984 13.648 7.8789-13.648 7.8789-13.648-7.8789zm-15.469 9.3633 13.941 8.0469-0.96875 1.5742-13.941-8.0469zm0.72266 5.0859 12.074 6.9727c0.17188 0.10156 0.35938 0.14844 0.54688 0.14844 0.36719 0 0.73047-0.1875 0.9375-0.52344l0.089844-0.14453v12.516l-13.645-7.8789v-11.09zm29.488 11.09-13.645 7.8789v-12.512l0.085938 0.14453c0.20703 0.33594 0.56641 0.52344 0.9375 0.52344 0.1875 0 0.375-0.046875 0.54687-0.14844l12.074-6.9727v11.09zm26.871-23.191c0.17578-0.30078 0.19531-0.66797 0.054687-0.98828l-4.3477-9.9805c-0.16406-0.37891-0.53125-0.63281-0.94531-0.65625-0.41797-0.027344-0.80469 0.1875-1.0117 0.54688l-1.4297 2.4805c-8.1133-2.9688-16.008-0.76953-23.488 6.5547-0.38672 0.37891-0.4375 0.98438-0.125 1.4219 0.31641 0.4375 0.90234 0.58203 1.3867 0.33984 6.1953-3.1211 12.387-3.707 18.43-1.7461l-1.2422 2.1523c-0.20703 0.35938-0.19531 0.80469 0.03125 1.1484 0.20312 0.3125 0.55078 0.49609 0.91797 0.49609 0.039062 0 0.082031-0.003906 0.125-0.007813l10.816-1.2266c0.34766-0.039062 0.65234-0.24219 0.82812-0.54297zm-9.7305-0.66016 0.8125-1.4102c0.16016-0.27734 0.19141-0.61328 0.085938-0.91406-0.10938-0.30469-0.34375-0.54297-0.64062-0.65625-2.9922-1.1445-6.0156-1.7188-9.0586-1.7188-1.9727 0-3.9531 0.24219-5.9375 0.72266 5.4805-3.4688 11.039-3.9805 16.848-1.582 0.51172 0.21094 1.0938 0.011718 1.3711-0.46484l0.8125-1.4102 2.8867 6.625-7.1797 0.8125zm-48.473-30.641 1.0742 0.62109c-0.32422 1.6836-0.32422 3.4219 0 5.1094l-1.0742 0.62109c-1.3203 0.76172-1.7773 2.457-1.0156 3.7812l1.6094 2.7852c0.36719 0.64062 0.96484 1.0977 1.6797 1.2891 0.71875 0.19141 1.4609 0.09375 2.1016-0.27344l1.0781-0.62109c1.2969 1.125 2.8008 1.9961 4.418 2.5547v1.2422c0 1.5273 1.2422 2.7695 2.7695 2.7695h3.2148c1.5273 0 2.7695-1.2422 2.7695-2.7695v-1.2422c1.6172-0.55859 3.1211-1.4297 4.418-2.5547l1.0781 0.62109c0.63672 0.37109 1.3828 0.46875 2.1016 0.27344 0.71484-0.19141 1.3125-0.64844 1.6836-1.2891l0.63672-1.1016c0.17578-0.066407 0.35156-0.13672 0.51953-0.23438l1.6836-0.97266c1.8203 1.6289 3.9648 2.8711 6.2773 3.6289v1.9414c0 1.8438 1.5 3.3438 3.3438 3.3438h4.3242c1.8438 0 3.3438-1.5 3.3438-3.3438v-1.9414c2.3125-0.75781 4.457-2 6.2773-3.6289l1.6875 0.97266c0.16797 0.097656 0.34375 0.16797 0.51953 0.23438l0.63672 1.1016c0.37109 0.64062 0.96484 1.0977 1.6836 1.2891 0.71875 0.19531 1.4609 0.09375 2.1016-0.27344l1.0781-0.62109c1.2969 1.125 2.8008 1.9961 4.418 2.5547v1.2422c0 1.5273 1.2422 2.7695 2.7695 2.7695h3.2148c1.5273 0 2.7695-1.2422 2.7695-2.7695v-1.2422c1.6172-0.55859 3.1211-1.4297 4.4219-2.5547l1.0781 0.62109c0.63672 0.37109 1.3867 0.46484 2.1016 0.27344 0.71875-0.19141 1.3125-0.64844 1.6836-1.2891l1.6094-2.7852c0.76172-1.3242 0.30859-3.0195-1.0117-3.7812l-1.0742-0.62109c0.32422-1.6836 0.32422-3.4219 0-5.1094l1.0742-0.62109c1.3203-0.76172 1.7773-2.4609 1.0156-3.7812l-1.6094-2.7852c-0.37109-0.64062-0.96484-1.0977-1.6836-1.2891-0.71484-0.19531-1.4609-0.09375-2.1016 0.27344l-1.0781 0.62109c-1.2969-1.125-2.8008-1.9961-4.418-2.5547v-1.2422c0-1.5273-1.2422-2.7695-2.7695-2.7695h-3.2148c-1.5273 0-2.7695 1.2422-2.7695 2.7695v1.2422c-1.6172 0.55859-3.1211 1.4297-4.418 2.5547l-0.43359-0.25c0.73047-0.44922 1.2578-1.1445 1.4805-1.9766 0.23047-0.86328 0.11328-1.7656-0.33203-2.5391l-2.1602-3.7461c-0.92188-1.5977-2.9727-2.1484-4.5703-1.2227l-1.6836 0.97266c-1.8203-1.6289-3.9648-2.8711-6.2773-3.6289v-1.9414c0-1.8438-1.5-3.3438-3.3438-3.3438h-4.3242c-1.8438 0-3.3438 1.5-3.3438 3.3438v1.9414c-2.3125 0.75781-4.457 2-6.2773 3.6289l-1.6836-0.97266c-0.77344-0.44531-1.6758-0.5625-2.5391-0.33203-0.86328 0.23047-1.5859 0.78516-2.0312 1.5547l-2.1602 3.7461c-0.44531 0.77344-0.5625 1.6719-0.33203 2.5391 0.22266 0.83594 0.75 1.5312 1.4805 1.9766l-0.43359 0.25c-1.2969-1.125-2.8047-1.9961-4.418-2.5547v-1.2422c0-1.5273-1.2422-2.7695-2.7695-2.7695h-3.2148c-1.5273 0-2.7695 1.2422-2.7695 2.7695v1.2422c-1.6172 0.55859-3.1211 1.4297-4.418 2.5547l-1.0781-0.62109c-1.3203-0.76172-3.0156-0.30859-3.7812 1.0156l-1.6094 2.7852c-0.76172 1.3242-0.30859 3.0195 1.0117 3.7812zm62.938-4.8203c1.3633-1.3438 3.0547-2.3203 4.8867-2.8242 0.47656-0.13281 0.80859-0.5625 0.80859-1.0586v-2.0508c0-0.3125 0.26172-0.57422 0.57422-0.57422h3.2148c0.3125 0 0.57422 0.26172 0.57422 0.57422v2.0508c0 0.49609 0.33203 0.92578 0.80859 1.0586 1.8359 0.50391 3.5234 1.4805 4.8867 2.8242 0.35156 0.34766 0.89062 0.41797 1.3203 0.16797l1.7773-1.0273c0.17969-0.10156 0.34766-0.078125 0.43359-0.054687 0.085938 0.023437 0.24609 0.089843 0.34766 0.26562l1.6094 2.7852c0.15625 0.26953 0.058593 0.62891-0.21094 0.78516l-1.7734 1.0234c-0.42578 0.24609-0.63672 0.74609-0.51172 1.2266 0.48047 1.8477 0.48047 3.8008 0 5.6484-0.125 0.47656 0.085937 0.98047 0.51172 1.2266l1.7734 1.0234c0.26953 0.15625 0.36328 0.51563 0.21094 0.78516l-1.6094 2.7852c-0.10156 0.17578-0.26172 0.24219-0.34766 0.26562-0.085937 0.023438-0.25781 0.046875-0.43359-0.054688l-1.7773-1.0273c-0.42578-0.24609-0.96484-0.17969-1.3203 0.16797-1.3633 1.3438-3.0547 2.3203-4.8906 2.8242-0.47656 0.13281-0.80469 0.5625-0.80469 1.0586v2.0508c0 0.3125-0.26172 0.57422-0.57422 0.57422h-3.2148c-0.3125 0-0.57422-0.26172-0.57422-0.57422v-2.0508c0-0.49609-0.33203-0.92578-0.80469-1.0586-1.8359-0.50391-3.5234-1.4805-4.8867-2.8242-0.35156-0.34766-0.89062-0.41406-1.3203-0.16797l-1.7773 1.0273c-0.17578 0.10156-0.34766 0.078126-0.43359 0.054688-0.085937-0.023438-0.24609-0.089844-0.34766-0.26562l-0.046875-0.082031c0.63281-0.27734 1.1875-0.73828 1.5586-1.3828l2.1602-3.7422c0.44531-0.77344 0.5625-1.6719 0.33203-2.5391-0.23047-0.86328-0.78516-1.5859-1.5547-2.0312l-1.6797-0.96875c0.46094-2.2031 0.48828-4.4844 0.10156-6.6992l1.6914 0.97656c0.42578 0.24609 0.96484 0.17969 1.3203-0.16797zm-38.707-5.8047 2.1602-3.7422c0.15234-0.26562 0.40234-0.45312 0.69922-0.53516 0.29688-0.078125 0.60547-0.039063 0.87109 0.11328l2.3906 1.3789c0.42578 0.24609 0.96875 0.17969 1.3203-0.16797 1.8789-1.8516 4.2109-3.1992 6.7383-3.8945 0.47656-0.13281 0.80469-0.5625 0.80469-1.0586v-2.7578c0-0.63281 0.51562-1.1484 1.1484-1.1484h4.3242c0.63281 0 1.1484 0.51563 1.1484 1.1484v2.7578c0 0.49609 0.33203 0.92578 0.80469 1.0586 2.5273 0.69531 4.8594 2.043 6.7383 3.8945 0.35547 0.34766 0.89453 0.41406 1.3203 0.16797l2.3906-1.3789c0.55078-0.31641 1.2539-0.12891 1.5703 0.42188l2.1602 3.7461c0.15234 0.26562 0.19141 0.57422 0.11328 0.87109-0.078125 0.29688-0.26953 0.54688-0.53125 0.69922l-2.3867 1.3789c-0.42578 0.24609-0.63672 0.74609-0.51172 1.2266 0.66016 2.5469 0.66016 5.2422 0 7.7891-0.125 0.47656 0.085938 0.98047 0.51172 1.2266l2.3867 1.3789c0.26562 0.15234 0.45312 0.40234 0.53516 0.69922 0.078125 0.29688 0.039062 0.60547-0.11328 0.87109l-2.1602 3.7461c-0.31641 0.55078-1.0234 0.73828-1.5703 0.42187l-2.3906-1.3789c-0.42578-0.24609-0.96875-0.17969-1.3203 0.16797-1.8789 1.8516-4.2109 3.1992-6.7383 3.8945-0.47656 0.13281-0.80469 0.5625-0.80469 1.0586v2.7578c0 0.63281-0.51562 1.1484-1.1484 1.1484h-4.3242c-0.63281 0-1.1484-0.51562-1.1484-1.1484v-2.7539c0-0.49219-0.33203-0.92578-0.80469-1.0586-2.5273-0.69531-4.8594-2.043-6.7383-3.8984-0.21094-0.20703-0.48828-0.31641-0.76953-0.31641-0.1875 0-0.37891 0.046875-0.54688 0.14844l-2.3906 1.3789c-0.55078 0.31641-1.2539 0.12891-1.5703-0.42187l-2.1602-3.7461c-0.15234-0.26172-0.19141-0.57422-0.11328-0.87109s0.26953-0.54688 0.53125-0.69922l2.3867-1.3789c0.42578-0.24609 0.63672-0.74609 0.51172-1.2266-0.66016-2.5469-0.66016-5.2422 0-7.7891 0.125-0.47656-0.085938-0.98047-0.51172-1.2266l-2.3867-1.3789c-0.26562-0.15234-0.45312-0.40234-0.53125-0.69922-0.082031-0.29687-0.039062-0.60937 0.11328-0.87109zm-23.344 7.9414 1.6094-2.7852c0.15625-0.26953 0.51562-0.36719 0.78516-0.21094l1.7773 1.0273c0.42578 0.24609 0.96875 0.17969 1.3203-0.16797 1.3633-1.3438 3.0547-2.3203 4.8867-2.8242 0.47656-0.13281 0.80859-0.5625 0.80859-1.0586v-2.0508c0-0.3125 0.26172-0.57422 0.57422-0.57422h3.2148c0.3125 0 0.57422 0.26172 0.57422 0.57422v2.0508c0 0.49609 0.33203 0.92578 0.80859 1.0586 1.832 0.50391 3.5234 1.4805 4.8867 2.8242 0.35547 0.34766 0.89063 0.41406 1.3203 0.16797l1.6914-0.97656c-0.39062 2.2148-0.35938 4.4961 0.10156 6.6992l-1.6797 0.96875c-0.77344 0.44531-1.3242 1.168-1.5547 2.0312s-0.11328 1.7656 0.33203 2.5391l2.1602 3.7461c0.37109 0.64062 0.92969 1.1055 1.5625 1.3789l-0.046875 0.082031c-0.10156 0.17578-0.26172 0.24219-0.34766 0.26562-0.085937 0.023437-0.25781 0.046875-0.43359-0.054688l-1.7773-1.0273c-0.42578-0.24609-0.96875-0.17969-1.3203 0.16797-1.3633 1.3438-3.0547 2.3203-4.8867 2.8242-0.47656 0.13281-0.80469 0.5625-0.80469 1.0586v2.0508c0 0.3125-0.26172 0.57422-0.57422 0.57422h-3.2148c-0.3125 0-0.57422-0.26172-0.57422-0.57422v-2.0508c0-0.49609-0.33203-0.92578-0.80469-1.0586-1.8359-0.50391-3.5234-1.4805-4.8867-2.8242-0.35547-0.34766-0.89453-0.41406-1.3203-0.16797l-1.7773 1.0273c-0.17578 0.10156-0.34766 0.078125-0.43359 0.054688-0.085937-0.023438-0.24609-0.085938-0.34766-0.26562l-1.6094-2.7852c-0.10156-0.17578-0.078125-0.34766-0.054688-0.43359 0.023438-0.085938 0.085938-0.24609 0.26563-0.34766l1.7734-1.0234c0.42578-0.24609 0.63672-0.75 0.51172-1.2266-0.48047-1.8477-0.48047-3.8008 0-5.6484 0.125-0.47656-0.085938-0.98047-0.51172-1.2266l-1.7734-1.0234c-0.26953-0.15625-0.36328-0.51562-0.21094-0.78516zm13.363 12.461c3.6406 0 6.6016-2.9609 6.6016-6.6016s-2.9609-6.6016-6.6016-6.6016-6.6016 2.9609-6.6016 6.6016 2.9609 6.6016 6.6016 6.6016zm0-11.012c2.4297 0 4.4062 1.9766 4.4062 4.4062 0 2.4297-1.9766 4.4062-4.4062 4.4062s-4.4062-1.9766-4.4062-4.4062c0-2.4297 1.9766-4.4062 4.4062-4.4062zm56.562 11.012c3.6406 0 6.6016-2.9609 6.6016-6.6016s-2.9609-6.6016-6.6016-6.6016-6.6016 2.9609-6.6016 6.6016 2.9609 6.6016 6.6016 6.6016zm0-11.012c2.4297 0 4.4062 1.9766 4.4062 4.4062 0 2.4297-1.9766 4.4062-4.4062 4.4062s-4.4062-1.9766-4.4062-4.4062c0-2.4297 1.9766-4.4062 4.4062-4.4062zm-28.281 9.7891c6.1289 0 11.113-4.9844 11.113-11.113 0-6.1289-4.9844-11.113-11.113-11.113s-11.113 4.9844-11.113 11.113c0 6.1289 4.9844 11.113 11.113 11.113zm0-20.031c4.918 0 8.918 4 8.918 8.918s-4 8.918-8.918 8.918-8.918-4-8.918-8.918 4-8.918 8.918-8.918z"/>
<text x="0.0" y="117.5" font-size="5.0" font-weight="bold" font-family="Arbeit Regular, Helvetica, Arial-Unicode, Arial, Sans-serif" fill="#000000">Created by San D</text><text x="0.0" y="122.5" font-size="5.0" font-weight="bold" font-family="Arbeit Regular, Helvetica, Arial-Unicode, Arial, Sans-serif" fill="#000000">from Noun Project</text></svg>