<svg xmlns="http://www.w3.org/2000/svg" version="1.1" viewBox="-5.0 -10.0 110.0 135.0">
 <path d="m73.047 71.625c0.28125 0.53516 0.074219 1.1992-0.46094 1.4805l-8.3008 4.3516c-0.16406 0.085938-0.33594 0.125-0.50781 0.125-0.39453 0-0.77734-0.21484-0.97266-0.58984-0.28125-0.53516-0.074219-1.1992 0.46094-1.4805l8.3008-4.3516c0.53906-0.28125 1.1992-0.074218 1.4805 0.46094zm18.195-22.379-1.3047 2.2617c-0.32812 0.56641-0.85547 0.97266-1.4922 1.1406-0.63281 0.17187-1.2969 0.082031-1.8633-0.24219l-0.75-0.43359c-1.0117 0.85547-2.168 1.5234-3.4062 1.9688v0.86328c0 0.78516-0.37891 1.4805-0.95312 1.9297v19.75c0 0.40625-0.22656 0.78125-0.58984 0.97266l-33.203 17.414c-0.16016 0.082031-0.33594 0.125-0.51172 0.125s-0.35156-0.042969-0.51172-0.125l-33.203-17.414c-0.35938-0.19141-0.58984-0.5625-0.58984-0.97266v-25.27l-3.8594-2.0234c-0.27734-0.14453-0.48047-0.40234-0.55469-0.70312-0.074219-0.30469-0.019531-0.625 0.15625-0.88281l4.4453-6.5586c0.10547-0.15625 0.25-0.26172 0.40625-0.34375l-0.007812-0.015625 18.676-9.793c-0.19141-0.49609-0.29297-1.0312-0.29688-1.5977 0-0.29688-0.003906-0.59766-0.003906-0.89453-0.52344 0.10156-0.97266 0.35547-1.3633 0.77344-2.1016 2.2539-5.0742 3.5508-8.1562 3.5508-3.7109 0-7.1719-1.8398-9.25-4.9219-0.22656-0.33594-0.25-0.76953-0.058594-1.1289s0.5625-0.58203 0.96875-0.58203h6.918l2.6055-4.5156-2.6055-4.5156h-6.918c-0.40625 0-0.77734-0.22266-0.96875-0.58203s-0.16797-0.79297 0.058594-1.1289c2.0781-3.082 5.5352-4.9219 9.25-4.9219 3.082 0 6.0547 1.293 8.1562 3.5508 0.51562 0.55469 1.1367 0.82422 1.8906 0.82422h0.85156c0.26562-0.28906 0.5625-0.55078 0.88281-0.77734v-4.6484c0-2.4102 1.9609-4.375 4.375-4.375 1.3047 0 2.4727 0.57812 3.2773 1.4844 0.80078-0.91016 1.9727-1.4844 3.2773-1.4844s2.4727 0.57812 3.2773 1.4844c0.80078-0.91016 1.9727-1.4844 3.2773-1.4844 1.3047 0 2.4727 0.57812 3.2773 1.4844 0.80078-0.91016 1.9727-1.4844 3.2773-1.4844 2.4102 0 4.375 1.9609 4.375 4.375v5.4258h13.809c2.8164 0 5.1055 2.2891 5.1055 5.1055v3.3438c0 2.8125-2.2891 5.1055-5.1055 5.1055h-13.809v0.93359c0 0.57031-0.10547 1.1094-0.29688 1.6094l6.6055 3.4648c0.625-0.1875 1.3203-0.13281 1.9297 0.21875l0.75 0.43359c1.0117-0.85547 2.168-1.5234 3.4062-1.9688v-0.86328c0-1.3555 1.1016-2.457 2.457-2.457h2.6094c1.3555 0 2.457 1.1016 2.457 2.457v0.86328c1.2383 0.44922 2.3945 1.1172 3.4062 1.9688l0.74609-0.43359c0.56641-0.32813 1.2305-0.41406 1.8633-0.24219 0.63672 0.16797 1.1641 0.57422 1.4922 1.1445l1.3047 2.2617c0.67578 1.1719 0.27344 2.6758-0.89844 3.3516l-0.74609 0.43359c0.11719 0.64844 0.17578 1.3047 0.17578 1.9688 0 0.66016-0.058594 1.3203-0.17578 1.9688l0.74609 0.43359c0.56641 0.32812 0.97266 0.85547 1.1406 1.4922 0.16797 0.63281 0.082032 1.2969-0.24609 1.8633zm-25.148-11.504 1.0312-1.7891-6.1992-3.25-3.3594 3.0117c-0.50781 0.45312-0.75391 1.0078-0.75391 1.6875v15.379l8.9648-4.7031c-0.019532-0.86719 0.41016-1.7227 1.2148-2.1836l0.74609-0.43359c-0.11719-0.64844-0.17578-1.3047-0.17578-1.9688 0-0.66406 0.058594-1.3203 0.17578-1.9688l-0.74609-0.42969c-1.1719-0.67578-1.5742-2.1797-0.89844-3.3516zm-17.32 21.734 3.207 4.7305 21.148-11.09c-0.57422-0.33203-1.1172-0.71094-1.625-1.1406l-0.75 0.43359c-1.168 0.67578-2.6758 0.27344-3.3516-0.89844l-0.79688-1.3828-17.828 9.3477zm11.543-31.121h-16.836v2.4375c0 0.60547-0.49219 1.0977-1.0977 1.0977-0.60547 0-1.0977-0.49219-1.0977-1.0977v-5.8164c0-1.8398 1.5-3.3398 3.3398-3.3398h1.6094c1.7656 0 3.1992-1.4336 3.1992-3.1992s-1.4336-3.1992-3.1992-3.1992h-9.043c-1.7617 0-3.1992 1.4336-3.1992 3.1992 0 2.0742 0.011718 4.1523 0.023437 6.2305 0.003906 0.85938 0.007813 1.7148 0.011719 2.5742v0.015624 0.015626c0.003906 0.67187 0.007812 1.3477 0.011718 2.0195 0 0.67969 0.24609 1.2305 0.75391 1.6836l3.4609 3.1016c0.97266 0.87109 1.4844 2.0195 1.4844 3.3242v16.535l7.4375 3.8984 7.4414-3.9023v-16.531c0-1.3047 0.51172-2.4531 1.4844-3.3242l3.4609-3.1016c0.50781-0.45312 0.75391-1.0078 0.75391-1.6875zm-43.98 13.309 21.207 11.121v-15.383c0-0.68359-0.24609-1.2344-0.75391-1.6875l-3.3633-3.0117zm59.984-24.668h-14.32c-0.73438 1.3867-2.1914 2.332-3.8633 2.332-1.3047 0-2.4766-0.57812-3.2773-1.4844-0.80078 0.91016-1.9727 1.4844-3.2773 1.4844-0.011719 0-0.023437-0.003906-0.035156-0.003906-0.42578 2.5508-2.6445 4.5078-5.3164 4.5078h-1.6094c-0.63281 0-1.1445 0.51172-1.1445 1.1445v1.1836h32.844c1.6055 0 2.9102-1.3047 2.9102-2.9102v-3.3438c0-1.6055-1.3047-2.9102-2.9102-2.9102zm-20.363-7.625v5.582c0 1.2031 0.97656 2.1797 2.1797 2.1797s2.1797-0.97656 2.1797-2.1797v-5.582c0-1.2031-0.97656-2.1797-2.1797-2.1797s-2.1797 0.97656-2.1797 2.1797zm-6.5547 0v4.7109c1.0039 0.73047 1.7422 1.8008 2.0508 3.0352 0.042969 0.003906 0.085937 0.011718 0.125 0.011718 1.2031 0 2.1797-0.97656 2.1797-2.1797v-5.582c0-1.2031-0.97656-2.1797-2.1797-2.1797s-2.1797 0.97656-2.1797 2.1797zm-6.5547 0v3.6719h3.3828c0.33203 0 0.66016 0.035156 0.97656 0.09375v-3.7656c0-1.2031-0.97656-2.1797-2.1797-2.1797s-2.1797 0.97656-2.1797 2.1797zm-6.5547 3.75c0.28906-0.046875 0.58594-0.078125 0.89062-0.078125h3.4688v-3.6719c0-1.2031-0.97656-2.1797-2.1797-2.1797s-2.1797 0.97656-2.1797 2.1797zm-4.4688 13.066c-0.003907-0.50391-0.003907-1.0078-0.007813-1.5117-0.011718-2.082-0.023437-4.1641-0.023437-6.2422 0-0.50781 0.074219-0.99219 0.20703-1.457-1.2109-0.085937-2.2891-0.59766-3.1328-1.5039-1.6875-1.8125-4.0781-2.8516-6.5508-2.8516-2.2109 0-4.3086 0.8125-5.9297 2.2422h5.1406c0.39062 0 0.75391 0.21094 0.94922 0.55078l3.2422 5.6133c0.19531 0.33984 0.19531 0.75781 0 1.0977l-3.2422 5.6133c-0.19531 0.33984-0.55859 0.55078-0.94922 0.55078h-5.1406c1.6172 1.4297 3.7148 2.2422 5.9297 2.2422 2.4766 0 4.8633-1.0391 6.5508-2.8516 0.80469-0.86328 1.8164-1.3711 2.957-1.4922zm-20.703 21.633 31.246 16.387 3.207-4.7305-31.246-16.387zm3.9453 28.004 31.008 16.262v-29.434l-2.4375 3.5977c-0.21094 0.3125-0.55469 0.48047-0.91016 0.48047-0.17187 0-0.34766-0.039063-0.50781-0.125l-27.148-14.238v23.453zm64.207 0v-18.562h-1.9141c-1.3555 0-2.457-1.1016-2.457-2.4531v-0.14453l-22.777 11.945c-0.16406 0.085937-0.33594 0.125-0.50781 0.125-0.35547 0-0.69922-0.17188-0.91016-0.48047l-2.4375-3.5977v29.434l31.008-16.262zm8.5273-35.797 1.4414-0.83203c0.078124-0.046874 0.10937-0.11719 0.11719-0.16016 0.011719-0.046875 0.019531-0.12109-0.023437-0.19531l-1.3047-2.2617c-0.070312-0.12109-0.23438-0.16406-0.35547-0.09375l-1.4414 0.83203c-0.42969 0.24609-0.96875 0.17969-1.3203-0.16797-1.082-1.0664-2.4219-1.8398-3.8789-2.2422-0.47656-0.13281-0.80859-0.5625-0.80859-1.0586v-1.6641c0-0.14062-0.11719-0.26172-0.26172-0.26172h-2.6094c-0.14062 0-0.26172 0.11719-0.26172 0.26172v1.6641c0 0.49609-0.33203 0.92578-0.80469 1.0586-1.457 0.40234-2.7969 1.1758-3.8789 2.2422-0.35156 0.34766-0.89062 0.41406-1.3203 0.16797l-1.4453-0.83203c-0.12109-0.070313-0.28516-0.027344-0.35547 0.09375l-1.3047 2.2617c-0.070313 0.12109-0.027344 0.28516 0.09375 0.35547l1.4414 0.83203c0.42969 0.24609 0.63672 0.75 0.51172 1.2266-0.1875 0.72656-0.28516 1.4805-0.28516 2.2422 0 0.76172 0.09375 1.5156 0.28516 2.2422 0.125 0.47656-0.085938 0.98047-0.51172 1.2266l-1.4414 0.83203c-0.12109 0.070313-0.16406 0.23438-0.09375 0.35547l1.3047 2.2617c0.070313 0.12109 0.23047 0.16406 0.35547 0.09375l1.4453-0.83203c0.17188-0.097656 0.35938-0.14844 0.54688-0.14844 0.28125 0 0.55859 0.10938 0.76953 0.31641 1.082 1.0664 2.4219 1.8438 3.8789 2.2422 0.47656 0.13281 0.80469 0.5625 0.80469 1.0586v1.6641c0 0.14062 0.11719 0.25781 0.26172 0.25781h2.6094c0.14062 0 0.26172-0.11719 0.26172-0.25781v-1.6641c0-0.49609 0.33203-0.92578 0.80859-1.0586 1.457-0.40234 2.7969-1.1758 3.8789-2.2422 0.35156-0.34766 0.89062-0.41406 1.3203-0.16797l1.4414 0.83203c0.12109 0.070313 0.28516 0.027344 0.35547-0.09375l1.3047-2.2617c0.042969-0.074219 0.039063-0.14844 0.023438-0.19531-0.011719-0.039062-0.039063-0.11328-0.11719-0.15625l-1.4414-0.83203c-0.42578-0.24609-0.63672-0.74609-0.51172-1.2266 0.1875-0.72656 0.28516-1.4844 0.28516-2.2422 0-0.76172-0.09375-1.5156-0.28516-2.2422-0.125-0.47656 0.085938-0.98047 0.51172-1.2266zm-3.543 3.4688c0 3.0859-2.5117 5.5977-5.5977 5.5977-3.0859 0-5.5977-2.5117-5.5977-5.5977 0-3.0859 2.5117-5.5977 5.5977-5.5977 3.0859 0 5.5977 2.5117 5.5977 5.5977zm-2.1953 0c0-1.875-1.5234-3.4023-3.4023-3.4023-1.875 0-3.4023 1.5234-3.4023 3.4023 0 1.875 1.5273 3.4023 3.4023 3.4023s3.4023-1.5273 3.4023-3.4023z"/>
<text x="0.0" y="117.5" font-size="5.0" font-weight="bold" font-family="Arbeit Regular, Helvetica, Arial-Unicode, Arial, Sans-serif" fill="#000000">Created by San D</text><text x="0.0" y="122.5" font-size="5.0" font-weight="bold" font-family="Arbeit Regular, Helvetica, Arial-Unicode, Arial, Sans-serif" fill="#000000">from Noun Project</text></svg>