<svg xmlns="http://www.w3.org/2000/svg" xmlns:xlink="http://www.w3.org/1999/xlink" contentStyleType="text/css" data-diagram-type="SEQUENCE" height="599px" preserveAspectRatio="none" style="width:730px;height:599px;background:#FFFFFF;" version="1.1" viewBox="0 0 730 599" width="730px" zoomAndPan="magnify"><defs/><g><g><title>Client</title><rect fill="#000000" fill-opacity="0.00000" height="437.7266" width="8" x="24.2651" y="81.2969"/><line style="stroke:#181818;stroke-width:0.5;stroke-dasharray:5.0,5.0;" x1="28" x2="28" y1="81.2969" y2="519.0234"/></g><g><title>OrderSaga</title><rect fill="#000000" fill-opacity="0.00000" height="437.7266" width="8" x="106.4297" y="81.2969"/><line style="stroke:#181818;stroke-width:0.5;stroke-dasharray:5.0,5.0;" x1="109.9482" x2="109.9482" y1="81.2969" y2="519.0234"/></g><g><title>Inventory</title><rect fill="#000000" fill-opacity="0.00000" height="437.7266" width="8" x="213.8364" y="81.2969"/><line style="stroke:#181818;stroke-width:0.5;stroke-dasharray:5.0,5.0;" x1="217.4019" x2="217.4019" y1="81.2969" y2="519.0234"/></g><g><title>PaymentSvc</title><rect fill="#000000" fill-opacity="0.00000" height="437.7266" width="8" x="314.6655" y="81.2969"/><line style="stroke:#181818;stroke-width:0.5;stroke-dasharray:5.0,5.0;" x1="318.271" x2="318.271" y1="81.2969" y2="519.0234"/></g><g><title>EventBus</title><rect fill="#000000" fill-opacity="0.00000" height="437.7266" width="8" x="537.6147" y="81.2969"/><line style="stroke:#181818;stroke-width:0.5;stroke-dasharray:5.0,5.0;" x1="540.6758" x2="540.6758" y1="81.2969" y2="519.0234"/></g><g><title>NotificationSvc</title><rect fill="#000000" fill-opacity="0.00000" height="437.7266" width="8" x="661.1787" y="81.2969"/><line style="stroke:#181818;stroke-width:0.5;stroke-dasharray:5.0,5.0;" x1="664.5796" x2="664.5796" y1="81.2969" y2="519.0234"/></g><g class="participant participant-head" data-participant="Client"><text fill="#000000" font-family="sans-serif" font-size="14" lengthAdjust="spacing" textLength="40.5303" x="5" y="77.9951">Client</text><ellipse cx="28.2651" cy="13.5" fill="#E2E2F0" rx="8" ry="8" style="stroke:#181818;stroke-width:0.5;"/><path d="M28.2651,21.5 L28.2651,48.5 M15.2651,29.5 L41.2651,29.5 M28.2651,48.5 L15.2651,63.5 M28.2651,48.5 L41.2651,63.5" fill="none" style="stroke:#181818;stroke-width:0.5;"/></g><g class="participant participant-tail" data-participant="Client"><text fill="#000000" font-family="sans-serif" font-size="14" lengthAdjust="spacing" textLength="40.5303" x="5" y="531.0186">Client</text><ellipse cx="28.2651" cy="542.8203" fill="#E2E2F0" rx="8" ry="8" style="stroke:#181818;stroke-width:0.5;"/><path d="M28.2651,550.8203 L28.2651,577.8203 M15.2651,558.8203 L41.2651,558.8203 M28.2651,577.8203 L15.2651,592.8203 M28.2651,577.8203 L41.2651,592.8203" fill="none" style="stroke:#181818;stroke-width:0.5;"/></g><g class="participant participant-head" data-participant="OrderSaga"><rect fill="#E2E2F0" height="30.2969" rx="2.5" ry="2.5" style="stroke:#181818;stroke-width:0.5;" width="88.9629" x="65.9482" y="50"/><text fill="#000000" font-family="sans-serif" font-size="14" lengthAdjust="spacing" textLength="74.9629" x="72.9482" y="69.9951">OrderSaga</text></g><g class="participant participant-tail" data-participant="OrderSaga"><rect fill="#E2E2F0" height="30.2969" rx="2.5" ry="2.5" style="stroke:#181818;stroke-width:0.5;" width="88.9629" x="65.9482" y="518.0234"/><text fill="#000000" font-family="sans-serif" font-size="14" lengthAdjust="spacing" textLength="74.9629" x="72.9482" y="538.0186">OrderSaga</text></g><g class="participant participant-head" data-participant="Inventory"><rect fill="#E2E2F0" height="30.2969" rx="2.5" ry="2.5" style="stroke:#181818;stroke-width:0.5;" width="80.8691" x="177.4019" y="50"/><text fill="#000000" font-family="sans-serif" font-size="14" lengthAdjust="spacing" textLength="66.8691" x="184.4019" y="69.9951">Inventory</text></g><g class="participant participant-tail" data-participant="Inventory"><rect fill="#E2E2F0" height="30.2969" rx="2.5" ry="2.5" style="stroke:#181818;stroke-width:0.5;" width="80.8691" x="177.4019" y="518.0234"/><text fill="#000000" font-family="sans-serif" font-size="14" lengthAdjust="spacing" textLength="66.8691" x="184.4019" y="538.0186">Inventory</text></g><g class="participant participant-head" data-participant="PaymentSvc"><rect fill="#E2E2F0" height="30.2969" rx="2.5" ry="2.5" style="stroke:#181818;stroke-width:0.5;" width="100.7891" x="268.271" y="50"/><text fill="#000000" font-family="sans-serif" font-size="14" lengthAdjust="spacing" textLength="86.7891" x="275.271" y="69.9951">PaymentSvc</text></g><g class="participant participant-tail" data-participant="PaymentSvc"><rect fill="#E2E2F0" height="30.2969" rx="2.5" ry="2.5" style="stroke:#181818;stroke-width:0.5;" width="100.7891" x="268.271" y="518.0234"/><text fill="#000000" font-family="sans-serif" font-size="14" lengthAdjust="spacing" textLength="86.7891" x="275.271" y="538.0186">PaymentSvc</text></g><g class="participant participant-head" data-participant="EventBus"><rect fill="#E2E2F0" height="30.2969" rx="2.5" ry="2.5" style="stroke:#181818;stroke-width:0.5;" width="79.8779" x="501.6758" y="50"/><text fill="#000000" font-family="sans-serif" font-size="14" lengthAdjust="spacing" textLength="65.8779" x="508.6758" y="69.9951">EventBus</text></g><g class="participant participant-tail" data-participant="EventBus"><rect fill="#E2E2F0" height="30.2969" rx="2.5" ry="2.5" style="stroke:#181818;stroke-width:0.5;" width="79.8779" x="501.6758" y="518.0234"/><text fill="#000000" font-family="sans-serif" font-size="14" lengthAdjust="spacing" textLength="65.8779" x="508.6758" y="538.0186">EventBus</text></g><g class="participant participant-head" data-participant="NotificationSvc"><rect fill="#E2E2F0" height="30.2969" rx="2.5" ry="2.5" style="stroke:#181818;stroke-width:0.5;" width="119.1982" x="605.5796" y="50"/><text fill="#000000" font-family="sans-serif" font-size="14" lengthAdjust="spacing" textLength="105.1982" x="612.5796" y="69.9951">NotificationSvc</text></g><g class="participant participant-tail" data-participant="NotificationSvc"><rect fill="#E2E2F0" height="30.2969" rx="2.5" ry="2.5" style="stroke:#181818;stroke-width:0.5;" width="119.1982" x="605.5796" y="518.0234"/><text fill="#000000" font-family="sans-serif" font-size="14" lengthAdjust="spacing" textLength="105.1982" x="612.5796" y="538.0186">NotificationSvc</text></g><g class="message" data-participant-1="Client" data-participant-2="OrderSaga"><polygon fill="#181818" points="98.4297,108.4297,108.4297,112.4297,98.4297,116.4297,102.4297,112.4297" style="stroke:#181818;stroke-width:1;"/><line style="stroke:#181818;stroke-width:1;" x1="28.2651" x2="104.4297" y1="112.4297" y2="112.4297"/><text fill="#000000" font-family="sans-serif" font-size="13" font-weight="bold" lengthAdjust="spacing" textLength="9.0454" x="35.2651" y="107.3638">1</text><text fill="#000000" font-family="sans-serif" font-size="13" lengthAdjust="spacing" textLength="45.1191" x="48.3105" y="107.3638">place()</text></g><g class="message" data-participant-1="OrderSaga" data-participant-2="OrderSaga"><line style="stroke:#181818;stroke-width:1;" x1="110.4297" x2="152.4297" y1="141.5625" y2="141.5625"/><line style="stroke:#181818;stroke-width:1;" x1="152.4297" x2="152.4297" y1="141.5625" y2="154.5625"/><line style="stroke:#181818;stroke-width:1;" x1="111.4297" x2="152.4297" y1="154.5625" y2="154.5625"/><polygon fill="#181818" points="121.4297,150.5625,111.4297,154.5625,121.4297,158.5625,117.4297,154.5625" style="stroke:#181818;stroke-width:1;"/><text fill="#000000" font-family="sans-serif" font-size="13" font-weight="bold" lengthAdjust="spacing" textLength="9.0454" x="117.4297" y="136.4966">2</text><text fill="#000000" font-family="sans-serif" font-size="13" lengthAdjust="spacing" textLength="51.6953" x="130.4751" y="136.4966">create()</text></g><g class="message" data-participant-1="OrderSaga" data-participant-2="EventBus"><polygon fill="#181818" points="529.6147,179.6953,539.6147,183.6953,529.6147,187.6953,533.6147,183.6953" style="stroke:#181818;stroke-width:1;"/><line style="stroke:#181818;stroke-width:1;" x1="110.4297" x2="535.6147" y1="183.6953" y2="183.6953"/><text fill="#000000" font-family="sans-serif" font-size="13" font-weight="bold" lengthAdjust="spacing" textLength="9.0454" x="117.4297" y="178.6294">3</text><text fill="#000000" font-family="sans-serif" font-size="13" lengthAdjust="spacing" textLength="146.0278" x="130.4751" y="178.6294">publish(OrderCreated)</text></g><g class="message" data-participant-1="OrderSaga" data-participant-2="Inventory"><polygon fill="#181818" points="205.8364,208.8281,215.8364,212.8281,205.8364,216.8281,209.8364,212.8281" style="stroke:#181818;stroke-width:1;"/><line style="stroke:#181818;stroke-width:1;" x1="110.4297" x2="211.8364" y1="212.8281" y2="212.8281"/><text fill="#000000" font-family="sans-serif" font-size="13" font-weight="bold" lengthAdjust="spacing" textLength="9.0454" x="117.4297" y="207.7622">4</text><text fill="#000000" font-family="sans-serif" font-size="13" lengthAdjust="spacing" textLength="59.2935" x="130.4751" y="207.7622">reserve()</text></g><g class="message" data-participant-1="Inventory" data-participant-2="OrderSaga"><polygon fill="#181818" points="121.4297,237.9609,111.4297,241.9609,121.4297,245.9609,117.4297,241.9609" style="stroke:#181818;stroke-width:1;"/><line style="stroke:#181818;stroke-width:1;stroke-dasharray:2.0,2.0;" x1="115.4297" x2="216.8364" y1="241.9609" y2="241.9609"/><text fill="#000000" font-family="sans-serif" font-size="13" font-weight="bold" lengthAdjust="spacing" textLength="9.0454" x="127.4297" y="236.895">5</text><text fill="#000000" font-family="sans-serif" font-size="13" lengthAdjust="spacing" textLength="50.8511" x="140.4751" y="236.895">success</text></g><g class="message" data-participant-1="OrderSaga" data-participant-2="EventBus"><polygon fill="#181818" points="529.6147,267.0938,539.6147,271.0938,529.6147,275.0938,533.6147,271.0938" style="stroke:#181818;stroke-width:1;"/><line style="stroke:#181818;stroke-width:1;" x1="110.4297" x2="535.6147" y1="271.0938" y2="271.0938"/><text fill="#000000" font-family="sans-serif" font-size="13" font-weight="bold" lengthAdjust="spacing" textLength="9.0454" x="117.4297" y="266.0278">6</text><text fill="#000000" font-family="sans-serif" font-size="13" lengthAdjust="spacing" textLength="184.2598" x="130.4751" y="266.0278">publish(PaymentRequested)</text></g><g class="message" data-participant-1="EventBus" data-participant-2="PaymentSvc"><polygon fill="#181818" points="329.6655,296.2266,319.6655,300.2266,329.6655,304.2266,325.6655,300.2266" style="stroke:#181818;stroke-width:1;"/><line style="stroke:#181818;stroke-width:1;" x1="323.6655" x2="540.6147" y1="300.2266" y2="300.2266"/><text fill="#000000" font-family="sans-serif" font-size="13" font-weight="bold" lengthAdjust="spacing" textLength="9.0454" x="335.6655" y="295.1606">7</text><text fill="#000000" font-family="sans-serif" font-size="13" lengthAdjust="spacing" textLength="127.1372" x="348.7109" y="295.1606">PaymentRequested</text></g><g class="message" data-participant-1="PaymentSvc" data-participant-2="PaymentSvc"><line style="stroke:#181818;stroke-width:1;" x1="318.6655" x2="360.6655" y1="329.3594" y2="329.3594"/><line style="stroke:#181818;stroke-width:1;" x1="360.6655" x2="360.6655" y1="329.3594" y2="342.3594"/><line style="stroke:#181818;stroke-width:1;" x1="319.6655" x2="360.6655" y1="342.3594" y2="342.3594"/><polygon fill="#181818" points="329.6655,338.3594,319.6655,342.3594,329.6655,346.3594,325.6655,342.3594" style="stroke:#181818;stroke-width:1;"/><text fill="#000000" font-family="sans-serif" font-size="13" font-weight="bold" lengthAdjust="spacing" textLength="9.0454" x="325.6655" y="324.2935">8</text><text fill="#000000" font-family="sans-serif" font-size="13" lengthAdjust="spacing" textLength="55.0913" x="338.7109" y="324.2935">charge()</text></g><g class="message" data-participant-1="PaymentSvc" data-participant-2="EventBus"><polygon fill="#181818" points="529.6147,367.4922,539.6147,371.4922,529.6147,375.4922,533.6147,371.4922" style="stroke:#181818;stroke-width:1;"/><line style="stroke:#181818;stroke-width:1;" x1="318.6655" x2="535.6147" y1="371.4922" y2="371.4922"/><text fill="#000000" font-family="sans-serif" font-size="13" font-weight="bold" lengthAdjust="spacing" textLength="9.0454" x="325.6655" y="366.4263">9</text><text fill="#000000" font-family="sans-serif" font-size="13" lengthAdjust="spacing" textLength="185.9038" x="338.7109" y="366.4263">publish(PaymentSucceeded)</text></g><g class="message" data-participant-1="EventBus" data-participant-2="OrderSaga"><polygon fill="#181818" points="121.4297,396.625,111.4297,400.625,121.4297,404.625,117.4297,400.625" style="stroke:#181818;stroke-width:1;"/><line style="stroke:#181818;stroke-width:1;" x1="115.4297" x2="540.6147" y1="400.625" y2="400.625"/><text fill="#000000" font-family="sans-serif" font-size="13" font-weight="bold" lengthAdjust="spacing" textLength="18.0908" x="127.4297" y="395.5591">10</text><text fill="#000000" font-family="sans-serif" font-size="13" lengthAdjust="spacing" textLength="128.7813" x="149.5205" y="395.5591">PaymentSucceeded</text></g><g class="message" data-participant-1="OrderSaga" data-participant-2="OrderSaga"><line style="stroke:#181818;stroke-width:1;" x1="110.4297" x2="152.4297" y1="429.7578" y2="429.7578"/><line style="stroke:#181818;stroke-width:1;" x1="152.4297" x2="152.4297" y1="429.7578" y2="442.7578"/><line style="stroke:#181818;stroke-width:1;" x1="111.4297" x2="152.4297" y1="442.7578" y2="442.7578"/><polygon fill="#181818" points="121.4297,438.7578,111.4297,442.7578,121.4297,446.7578,117.4297,442.7578" style="stroke:#181818;stroke-width:1;"/><text fill="#000000" font-family="sans-serif" font-size="13" font-weight="bold" lengthAdjust="spacing" textLength="18.0908" x="117.4297" y="424.6919">11</text><text fill="#000000" font-family="sans-serif" font-size="13" lengthAdjust="spacing" textLength="71.3159" x="139.5205" y="424.6919">markPaid()</text></g><g class="message" data-participant-1="OrderSaga" data-participant-2="EventBus"><polygon fill="#181818" points="529.6147,467.8906,539.6147,471.8906,529.6147,475.8906,533.6147,471.8906" style="stroke:#181818;stroke-width:1;"/><line style="stroke:#181818;stroke-width:1;" x1="110.4297" x2="535.6147" y1="471.8906" y2="471.8906"/><text fill="#000000" font-family="sans-serif" font-size="13" font-weight="bold" lengthAdjust="spacing" textLength="18.0908" x="117.4297" y="466.8247">12</text><text fill="#000000" font-family="sans-serif" font-size="13" lengthAdjust="spacing" textLength="165.1978" x="139.5205" y="466.8247">publish(OrderCompleted)</text></g><g class="message" data-participant-1="EventBus" data-participant-2="NotificationSvc"><polygon fill="#181818" points="653.1787,497.0234,663.1787,501.0234,653.1787,505.0234,657.1787,501.0234" style="stroke:#181818;stroke-width:1;"/><line style="stroke:#181818;stroke-width:1;" x1="541.6147" x2="659.1787" y1="501.0234" y2="501.0234"/><text fill="#000000" font-family="sans-serif" font-size="13" font-weight="bold" lengthAdjust="spacing" textLength="18.0908" x="548.6147" y="495.9575">13</text><text fill="#000000" font-family="sans-serif" font-size="13" lengthAdjust="spacing" textLength="77.4731" x="570.7056" y="495.9575">sendEmail()</text></g><!--SRC=[ZP8nRiCm34LtdaB8Kdl81JfqQ9gXInFK9w1bDX5gIoub6SYHSevSh9RQs9Q2e1r9FPB_VmYzCzftDJ40IcTOR5f5sW7qo4v9rQDsOhNZXhZ20wu4MZ5LAVIgXt7Iy2b2KvL2UpnrOxyQPAJcCiMsOVZPsmXTYnHvCqvzA8bE6NrTb_K07iJBvLnx9nelhBoSDR8oyEDHh9zcA-9Hz2rAAagOUnaWcT3T45TrOOElMsMFHNpVHBef8SMdN4QUoH8FOUFSNMT7hPUIh8K_Z_v6-KvVdcmyF47Zm1pqE9AZ08ld79P7v4FGc3Bt5LH1CJNH-bB2qbMEtW-zG_xSesh-7Rlf-fPk_6S_8mHBkjbsgDgY_0O0]--></g></svg>