<svg xmlns="http://www.w3.org/2000/svg" xmlns:xlink="http://www.w3.org/1999/xlink" contentStyleType="text/css" data-diagram-type="DESCRIPTION" height="338px" preserveAspectRatio="none" style="width:435px;height:338px;background:#FFFFFF;" version="1.1" viewBox="0 0 435 338" width="435px" zoomAndPan="magnify"><defs/><g><!--cluster SystemeBancaire--><g class="cluster" data-entity="SystemeBancaire" data-source-line="1" data-uid="ent0002" id="cluster_SystemeBancaire"><path d="M8.5,6 L146.3418,6 A3.75,3.75 0 0 1 148.8418,8.5 L155.8418,28.2969 L210.5,28.2969 A2.5,2.5 0 0 1 213,30.7969 L213,328.5 A2.5,2.5 0 0 1 210.5,331 L8.5,331 A2.5,2.5 0 0 1 6,328.5 L6,8.5 A2.5,2.5 0 0 1 8.5,6" fill="none" style="stroke:#000000;stroke-width:1.5;"/><line style="stroke:#000000;stroke-width:1.5;" x1="6" x2="155.8418" y1="28.2969" y2="28.2969"/><text fill="#000000" font-family="sans-serif" font-size="14" font-weight="bold" lengthAdjust="spacing" textLength="136.8418" x="10" y="20.9951">SystemeBancaire</text></g><!--entity Comptes--><g class="entity" data-entity="Comptes" data-source-line="2" data-uid="ent0003" id="entity_Comptes"><rect fill="#F1F1F1" height="46.2969" rx="2.5" ry="2.5" style="stroke:#181818;stroke-width:0.5;" width="102.2617" x="52" y="49"/><rect fill="#F1F1F1" height="10" style="stroke:#181818;stroke-width:0.5;" width="15" x="134.2617" y="54"/><rect fill="#F1F1F1" height="2" style="stroke:#181818;stroke-width:0.5;" width="4" x="132.2617" y="56"/><rect fill="#F1F1F1" height="2" style="stroke:#181818;stroke-width:0.5;" width="4" x="132.2617" y="60"/><text fill="#000000" font-family="sans-serif" font-size="14" lengthAdjust="spacing" textLength="62.2617" x="67" y="81.9951">Comptes</text></g><!--entity Paiements--><g class="entity" data-entity="Paiements" data-source-line="3" data-uid="ent0004" id="entity_Paiements"><rect fill="#F1F1F1" height="46.2969" rx="2.5" ry="2.5" style="stroke:#181818;stroke-width:0.5;" width="113.4316" x="30.5" y="155"/><rect fill="#F1F1F1" height="10" style="stroke:#181818;stroke-width:0.5;" width="15" x="123.9316" y="160"/><rect fill="#F1F1F1" height="2" style="stroke:#181818;stroke-width:0.5;" width="4" x="121.9316" y="162"/><rect fill="#F1F1F1" height="2" style="stroke:#181818;stroke-width:0.5;" width="4" x="121.9316" y="166"/><text fill="#000000" font-family="sans-serif" font-size="14" lengthAdjust="spacing" textLength="73.4316" x="45.5" y="187.9951">Paiements</text></g><!--entity Conformit?--><g class="entity" data-entity="Conformit&#233;" data-source-line="4" data-uid="ent0005" id="entity_Conformit&#233;"><rect fill="#F1F1F1" height="46.2969" rx="2.5" ry="2.5" style="stroke:#181818;stroke-width:0.5;" width="118.0938" x="46" y="261"/><rect fill="#F1F1F1" height="10" style="stroke:#181818;stroke-width:0.5;" width="15" x="144.0938" y="266"/><rect fill="#F1F1F1" height="2" style="stroke:#181818;stroke-width:0.5;" width="4" x="142.0938" y="268"/><rect fill="#F1F1F1" height="2" style="stroke:#181818;stroke-width:0.5;" width="4" x="142.0938" y="272"/><text fill="#000000" font-family="sans-serif" font-size="14" lengthAdjust="spacing" textLength="78.0938" x="61" y="293.9951">Conformit&#233;</text></g><g class="entity" data-entity="GMN9" data-source-line="12" data-uid="ent0010" id="entity_GMN9"><path d="M237.5,158 L237.5,198.2656 L428.9409,198.2656 L428.9409,168 L418.9409,158 L237.5,158" fill="#FEFFDD" style="stroke:#181818;stroke-width:0.5;"/><path d="M418.9409,158 L418.9409,168 L428.9409,168 L418.9409,158" fill="#FEFFDD" style="stroke:#181818;stroke-width:1;"/><text fill="#000000" font-family="sans-serif" font-size="13" lengthAdjust="spacing" textLength="170.4409" x="243.5" y="175.0669">Comportement &#233;mergent:</text><text fill="#000000" font-family="sans-serif" font-size="13" lengthAdjust="spacing" textLength="128.2861" x="243.5" y="190.1997">d&#233;tection de fraude</text></g><!--link Comptes to Paiements--><g class="link" data-entity-1="Comptes" data-entity-2="Paiements" data-source-line="6" data-uid="lnk6" id="link_Comptes_Paiements"><path d="M99.61,95.06 C96.89,112.7 94.0111,131.4096 91.3011,149.0496" fill="none" id="Comptes-to-Paiements" style="stroke:#181818;stroke-width:1;"/><polygon fill="#181818" points="90.39,154.98,95.7102,146.6918,91.1492,150.038,87.803,145.477,90.39,154.98" style="stroke:#181818;stroke-width:1;"/></g><!--link Comptes to Conformit?--><g class="link" data-entity-1="Comptes" data-entity-2="Conformit&#233;" data-source-line="7" data-uid="lnk7" id="link_Comptes_Conformit&#233;"><path d="M124.55,95.26 C137.89,110.67 153.82,132.4 161,155 C167.19,174.48 167.03,181.47 161,201 C154.03,223.57 142.3284,240.8568 129.3784,256.3468" fill="none" id="Comptes-to-Conformit&#233;" style="stroke:#181818;stroke-width:1;"/><polygon fill="#181818" points="125.53,260.95,134.3714,256.6108,128.737,257.114,128.2338,251.4795,125.53,260.95" style="stroke:#181818;stroke-width:1;"/></g><!--link Paiements to Conformit?--><g class="link" data-entity-1="Paiements" data-entity-2="Conformit&#233;" data-source-line="8" data-uid="lnk8" id="link_Paiements_Conformit&#233;"><path d="M90.82,201.06 C93.87,218.7 97.1045,237.4283 100.1645,255.0683" fill="none" id="Paiements-to-Conformit&#233;" style="stroke:#181818;stroke-width:1;"/><polygon fill="#181818" points="101.19,260.98,103.5929,251.4288,100.3354,256.0536,95.7106,252.7961,101.19,260.98" style="stroke:#181818;stroke-width:1;"/></g><!--link SystemeBancaire to GMN9--><g class="link" data-entity-1="SystemeBancaire" data-entity-2="GMN9" data-source-line="12" data-uid="lnk11" id="link_SystemeBancaire_GMN9"><path d="M213.2252,79.6875 C213.4111,79.8385 213.5998,79.9918 213.7911,80.1472 C214.1738,80.4581 214.5672,80.7777 214.971,81.1057 C215.7786,81.7618 216.6278,82.4517 217.5158,83.1731 C224.6197,88.9444 234.2056,96.7325 244.8338,105.3675 C266.09,122.6375 291.515,143.295 309.59,157.98" fill="none" id="SystemeBancaire-GMN9" style="stroke:#181818;stroke-width:1;stroke-dasharray:7.0,7.0;"/></g><!--SRC=[POv12W8n40JlUKMpz_s01m_w0S4Nn6Io1CdCaem74H-KT-HZHbd4NM4EJNTNCxDrLpiHXlEzA2KwM7OsPXhmC82JD0iJAuvTAPMLTxAn4wnbq-GWEKLjjVlz5XJZk5yXl_uQ-hR-igSnB4guYAeaIC3cxsLNiduMq6gYF7MrwublLSbf58OdX6nldWonntlp1G00]--></g></svg>