<svg xmlns="http://www.w3.org/2000/svg" xmlns:xlink="http://www.w3.org/1999/xlink" contentStyleType="text/css" data-diagram-type="DESCRIPTION" height="245px" preserveAspectRatio="none" style="width:586px;height:245px;background:#FFFFFF;" version="1.1" viewBox="0 0 586 245" width="586px" zoomAndPan="magnify"><defs/><g><!--cluster Syst?me de Syst?mes Bancaire--><g class="cluster" data-entity="Syst&#232;me de Syst&#232;mes Bancaire" data-source-line="4" data-uid="ent0002" id="cluster_Syst&#232;me de Syst&#232;mes Bancaire"><path d="M13.5,11 L261.626,11 A3.75,3.75 0 0 1 264.126,13.5 L271.126,33.2969 L376.5,33.2969 A2.5,2.5 0 0 1 379,35.7969 L379,235.5 A2.5,2.5 0 0 1 376.5,238 L13.5,238 A2.5,2.5 0 0 1 11,235.5 L11,13.5 A2.5,2.5 0 0 1 13.5,11" fill="#FFFFFF" style="stroke:#000000;stroke-width:1;"/><line style="stroke:#000000;stroke-width:1;" x1="11" x2="271.126" y1="33.2969" y2="33.2969"/><text fill="#000000" font-family="Verdana" font-size="14" font-weight="bold" lengthAdjust="spacing" textLength="247.126" x="15" y="25.9951">Syst&#232;me de Syst&#232;mes Bancaire</text></g><!--entity SP--><g class="entity" data-entity="SP" data-source-line="5" data-uid="ent0003" id="entity_SP"><rect fill="#FFFFFF" height="52.5938" rx="2.5" ry="2.5" style="stroke:#000000;stroke-width:1;" width="86.1377" x="277" y="46"/><text fill="#000000" font-family="Verdana" font-size="14" lengthAdjust="spacing" textLength="60.8193" x="287" y="68.9951">Syst&#232;me</text><text fill="#000000" font-family="Verdana" font-size="14" lengthAdjust="spacing" textLength="66.1377" x="287" y="85.292">Paiement</text></g><!--entity SC--><g class="entity" data-entity="SC" data-source-line="6" data-uid="ent0004" id="entity_SC"><rect fill="#FFFFFF" height="52.5938" rx="2.5" ry="2.5" style="stroke:#000000;stroke-width:1;" width="80.8193" x="160.5" y="46"/><text fill="#000000" font-family="Verdana" font-size="14" lengthAdjust="spacing" textLength="60.8193" x="170.5" y="68.9951">Syst&#232;me</text><text fill="#000000" font-family="Verdana" font-size="14" lengthAdjust="spacing" textLength="42.4102" x="170.5" y="85.292">Cr&#233;dit</text></g><!--entity SCONF--><g class="entity" data-entity="SCONF" data-source-line="7" data-uid="ent0005" id="entity_SCONF"><rect fill="#FFFFFF" height="52.5938" rx="2.5" ry="2.5" style="stroke:#000000;stroke-width:1;" width="98.0938" x="27" y="46"/><text fill="#000000" font-family="Verdana" font-size="14" lengthAdjust="spacing" textLength="60.8193" x="37" y="68.9951">Syst&#232;me</text><text fill="#000000" font-family="Verdana" font-size="14" lengthAdjust="spacing" textLength="78.0938" x="37" y="85.292">Conformit&#233;</text></g><!--entity EMERG--><g class="entity" data-entity="EMERG" data-source-line="9" data-uid="ent0006" id="entity_EMERG"><path d="M128.2927,167.4958 C132.9918,162.1481 138.4276,161.726 142.0567,168.6919 C146.4726,161.1076 151.9229,161.4441 156.6232,168.4072 C160.2692,162.2617 166.2753,162.3197 169.992,168.3295 C172.7685,160.5566 179.2036,160.0702 183.7025,166.6886 C188.2145,159.7555 193.0198,159.121 198.2477,165.9308 C202.9842,159.8284 210.2059,159.748 213.7261,167.3086 C217.7541,160.5878 222.7574,161.1801 227.1673,166.8958 C230.5917,159.3531 236.7634,158.3002 241.6245,165.4857 C246.7353,159.328 251.5241,158.7658 255.6606,166.4721 C261.1192,159.0081 265.536,159.5758 269.8827,167.4998 C273.9663,160.7933 278.5627,161.6947 283.1273,166.9681 C287.6496,159.9078 294.0913,159.3745 298.5364,167.0488 C303.3895,160.9898 308.6489,161.8343 311.6274,168.9163 C314.6316,161.0861 322.1412,161.6744 326.6234,167.2648 C337.5871,171.5416 340.0739,182.2037 331.655,190.6507 C341.8758,199.9098 338.5138,211.2844 324.9911,213.6699 C321.8159,219.525 314.899,220.0724 310.9873,214.5786 C307.285,221.6047 302.6851,221.9143 296.9714,216.9248 C291.8302,223.0189 287.4525,221.5205 284.4481,214.8315 C280.3286,223.1559 273.778,221.421 269.2414,215.2697 C265.5349,221.6858 260.7634,223.6849 255.2608,217.2189 C251.5085,223.2233 245.9332,224.849 241.4322,218.026 C237.2199,225.1651 231.2643,226.9052 226.0954,219.0014 C222.3625,225.5557 215.6655,225.3247 212.6127,218.3249 C206.6867,224.912 202.1884,222.2158 198.6993,215.7311 C193.9025,222.3264 188.9928,223.0994 184.397,215.5281 C181.0447,223.3221 175.1864,223.7152 170.3587,216.9508 C165.886,222.5006 159.2139,221.7177 156.8263,214.7047 C152.6629,221.5107 146.7789,222.0638 141.4966,216.0418 C137.0417,221.9476 132.3207,222.7296 128.1588,215.7387 C114.143,213.1756 111.4753,202.9497 118.0899,191.7333 C110.5391,180.9138 114.9944,169.5389 128.2927,167.4958" fill="#FFFFFF" style="stroke:#000000;stroke-width:1;"/><text fill="#000000" font-family="Verdana" font-size="14" lengthAdjust="spacing" textLength="183.5518" x="134" y="186.9951">Comportement &#233;mergent:</text><text fill="#000000" font-family="Verdana" font-size="14" lengthAdjust="spacing" textLength="140.0479" x="134" y="203.292">D&#233;tection de fraude</text></g><g class="entity" data-entity="GMN10" data-source-line="17" data-uid="ent0011" id="entity_GMN10"><path d="M394.5,170.5 L394.5,186.5 L333.05,190.5 L394.5,194.5 L394.5,210.7656 A0,0 0 0 0 394.5,210.7656 L579.2759,210.7656 A0,0 0 0 0 579.2759,210.7656 L579.2759,180.5 L569.2759,170.5 L394.5,170.5 A0,0 0 0 0 394.5,170.5" fill="#FFFFFF" style="stroke:#000000;stroke-width:1;"/><path d="M569.2759,170.5 L569.2759,180.5 L579.2759,180.5 L569.2759,170.5" fill="#FFFFFF" style="stroke:#000000;stroke-width:1;"/><text fill="#000000" font-family="Verdana" font-size="13" lengthAdjust="spacing" textLength="103.6064" x="400.5" y="187.5669">Impossible sans</text><text fill="#000000" font-family="Verdana" font-size="13" lengthAdjust="spacing" textLength="163.7759" x="400.5" y="202.6997">l'ensemble des syst&#232;mes</text></g><!--link SP to EMERG--><g class="link" data-entity-1="SP" data-entity-2="EMERG" data-source-line="11" data-uid="lnk7" id="link_SP_EMERG"><path d="M299.14,99.24 C284.86,116.87 269.6381,135.6489 254.5781,154.2289" fill="none" id="SP-to-EMERG" style="stroke:#000000;stroke-width:1;"/><polygon fill="#000000" points="250.8,158.89,259.5745,154.417,253.9484,155.0057,253.3597,149.3796,250.8,158.89" style="stroke:#000000;stroke-width:1;"/></g><!--link SC to EMERG--><g class="link" data-entity-1="SC" data-entity-2="EMERG" data-source-line="12" data-uid="lnk8" id="link_SC_EMERG"><path d="M206.55,99.24 C210.35,116.87 214.1372,134.4444 218.1372,153.0244" fill="none" id="SC-to-EMERG" style="stroke:#000000;stroke-width:1;"/><polygon fill="#000000" points="219.4,158.89,221.4162,149.2497,218.3477,154.002,213.5954,150.9334,219.4,158.89" style="stroke:#000000;stroke-width:1;"/></g><!--link SCONF to EMERG--><g class="link" data-entity-1="SCONF" data-entity-2="EMERG" data-source-line="13" data-uid="lnk9" id="link_SCONF_EMERG"><path d="M109.29,99.24 C132.08,116.87 157.6434,136.6399 181.6734,155.2199" fill="none" id="SCONF-to-EMERG" style="stroke:#000000;stroke-width:1;"/><polygon fill="#000000" points="186.42,158.89,181.7468,150.2204,182.4645,155.8316,176.8533,156.5493,186.42,158.89" style="stroke:#000000;stroke-width:1;"/></g><!--SRC=[VL2xJiH03EptAqmQgli12Wh2WIWE8j9UOx9ERdMxtcZN9tH2_0_vZlmOJhW7Ge0hQpmpjkT2DXG8Ue-EJTuwxZ5XW2Q6FZAnrBBt18aQGUuy6TDZiyMEeAZtMSOFrLg2Ov_X1hb1bwY0DmDQ9wEpOCqLEbtAKW1cgAk_YMKQ1-iElF8VNkGsfk1a70xSfyUxcVwbyN5deIWdQP9vDOn3eDHfTxNcst4G_T15dfvf4-uipJxBrVBv_knJLx2myPKNrzycTVahg0VymD-DuIWQfkis0h4zqH_qh9pTYmQTaRCY_f8uKvWGgw7cOxo6sC9ayWa0]--></g></svg>