<svg xmlns="http://www.w3.org/2000/svg" xmlns:xlink="http://www.w3.org/1999/xlink" contentStyleType="text/css" data-diagram-type="DESCRIPTION" height="291px" preserveAspectRatio="none" style="width:920px;height:291px;background:#FFFFFF;" version="1.1" viewBox="0 0 920 291" width="920px" zoomAndPan="magnify"><defs/><g><!--cluster GestionCompte--><g class="cluster" data-entity="GestionCompte" data-source-line="4" data-uid="ent0002" id="cluster_GestionCompte"><rect fill="none" height="197.72" rx="2.5" ry="2.5" style="stroke:#181818;stroke-width:1;" width="561" x="7" y="7"/><text fill="#000000" font-family="sans-serif" font-size="14" font-style="italic" lengthAdjust="spacing" textLength="96.4824" x="239.2588" y="21.9951">&#171;component&#187;</text><text fill="#000000" font-family="sans-serif" font-size="14" font-weight="bold" lengthAdjust="spacing" textLength="121.085" x="226.9575" y="38.292">GestionCompte</text></g><!--entity ICompte--><g class="entity" data-entity="ICompte" data-source-line="6" data-uid="ent0003" id="entity_ICompte"><rect fill="#F1F1F1" height="52.5938" rx="2.5" ry="2.5" style="stroke:#181818;stroke-width:0.5;" width="101.7207" x="305" y="127.72"/><text fill="#000000" font-family="sans-serif" font-size="14" font-style="italic" lengthAdjust="spacing" textLength="79.7207" x="316" y="150.7151">&#171;interface&#187;</text><text fill="#000000" font-family="sans-serif" font-size="14" lengthAdjust="spacing" textLength="44.4404" x="333.6401" y="167.012">M&#233;tier</text></g><!--entity IAdmin--><g class="entity" data-entity="IAdmin" data-source-line="7" data-uid="ent0004" id="entity_IAdmin"><rect fill="#F1F1F1" height="52.5938" rx="2.5" ry="2.5" style="stroke:#181818;stroke-width:0.5;" width="101.7207" x="442" y="127.72"/><text fill="#000000" font-family="sans-serif" font-size="14" font-style="italic" lengthAdjust="spacing" textLength="79.7207" x="453" y="150.7151">&#171;interface&#187;</text><text fill="#000000" font-family="sans-serif" font-size="14" lengthAdjust="spacing" textLength="44.8643" x="470.4282" y="167.012">Admin</text></g><!--entity IRepository--><g class="entity" data-entity="IRepository" data-source-line="8" data-uid="ent0005" id="entity_IRepository"><rect fill="#F1F1F1" height="52.5938" rx="2.5" ry="2.5" style="stroke:#181818;stroke-width:0.5;" width="101.7207" x="168" y="127.72"/><text fill="#000000" font-family="sans-serif" font-size="14" font-style="italic" lengthAdjust="spacing" textLength="79.7207" x="179" y="150.7151">&#171;interface&#187;</text><text fill="#000000" font-family="sans-serif" font-size="14" lengthAdjust="spacing" textLength="80.5752" x="178.5728" y="167.012">Persistence</text></g><!--entity IEvents--><g class="entity" data-entity="IEvents" data-source-line="9" data-uid="ent0006" id="entity_IEvents"><rect fill="#F1F1F1" height="52.5938" rx="2.5" ry="2.5" style="stroke:#181818;stroke-width:0.5;" width="101.7207" x="31" y="127.72"/><text fill="#000000" font-family="sans-serif" font-size="14" font-style="italic" lengthAdjust="spacing" textLength="79.7207" x="42" y="150.7151">&#171;interface&#187;</text><text fill="#000000" font-family="sans-serif" font-size="14" lengthAdjust="spacing" textLength="80.3291" x="41.6958" y="167.012">Notification</text></g><!--entity JpaPersistence--><g class="entity" data-entity="JpaPersistence" data-source-line="14" data-uid="ent0007" id="entity_JpaPersistence"><rect fill="#F1F1F1" height="52.5938" rx="2.5" ry="2.5" style="stroke:#181818;stroke-width:0.5;" width="122.1699" x="592" y="127.72"/><text fill="#000000" font-family="sans-serif" font-size="14" font-style="italic" lengthAdjust="spacing" textLength="96.4824" x="604.8438" y="150.7151">&#171;component&#187;</text><text fill="#000000" font-family="sans-serif" font-size="14" lengthAdjust="spacing" textLength="102.1699" x="602" y="167.012">JpaPersistence</text></g><!--entity KafkaEvents--><g class="entity" data-entity="KafkaEvents" data-source-line="15" data-uid="ent0008" id="entity_KafkaEvents"><rect fill="#F1F1F1" height="52.5938" rx="2.5" ry="2.5" style="stroke:#181818;stroke-width:0.5;" width="118.4824" x="753" y="127.72"/><text fill="#000000" font-family="sans-serif" font-size="14" font-style="italic" lengthAdjust="spacing" textLength="96.4824" x="764" y="150.7151">&#171;component&#187;</text><text fill="#000000" font-family="sans-serif" font-size="14" lengthAdjust="spacing" textLength="86.7754" x="768.8535" y="167.012">KafkaEvents</text></g><g class="entity" data-entity="GMN13" data-source-line="27" data-uid="ent0014" id="entity_GMN13"><path d="M588.5,259.72 L588.5,284.8528 A0,0 0 0 0 588.5,284.8528 L715.6836,284.8528 A0,0 0 0 0 715.6836,284.8528 L715.6836,269.72 L705.6836,259.72 L656.1,259.72 L652.78,180.96 L648.1,259.72 L588.5,259.72 A0,0 0 0 0 588.5,259.72" fill="#FEFFDD" style="stroke:#181818;stroke-width:0.5;"/><path d="M705.6836,259.72 L705.6836,269.72 L715.6836,269.72 L705.6836,259.72" fill="#FEFFDD" style="stroke:#181818;stroke-width:0.5;"/><text fill="#000000" font-family="sans-serif" font-size="13" lengthAdjust="spacing" textLength="106.1836" x="594.5" y="276.7869">Interchangeable</text></g><g class="entity" data-entity="GMN16" data-source-line="31" data-uid="ent0017" id="entity_GMN16"><path d="M750.5,259.72 L750.5,284.8528 A0,0 0 0 0 750.5,284.8528 L877.6836,284.8528 A0,0 0 0 0 877.6836,284.8528 L877.6836,269.72 L867.6836,259.72 L817.8,259.72 L812.44,180.96 L809.8,259.72 L750.5,259.72 A0,0 0 0 0 750.5,259.72" fill="#FEFFDD" style="stroke:#181818;stroke-width:0.5;"/><path d="M867.6836,259.72 L867.6836,269.72 L877.6836,269.72 L867.6836,259.72" fill="#FEFFDD" style="stroke:#181818;stroke-width:0.5;"/><text fill="#000000" font-family="sans-serif" font-size="13" lengthAdjust="spacing" textLength="106.1836" x="756.5" y="276.7869">Interchangeable</text></g><!--link GestionCompte to JpaPersistence--><g class="link" data-entity-1="GestionCompte" data-entity-2="JpaPersistence" data-source-line="18" data-uid="lnk9" id="link_GestionCompte_JpaPersistence"><path d="M568.0401,83.5531 C568.191,83.6769 568.3421,83.8008 568.4935,83.9249 C568.7961,84.1731 569.0996,84.422 569.4038,84.6714 C571.8376,86.6671 574.3197,88.7025 576.8328,90.7632 C581.859,94.8848 587.0092,99.108 592.1447,103.3191 C602.4156,111.7413 607.9879,116.3105 617.0304,123.7255" fill="none" id="GestionCompte-to-JpaPersistence" style="stroke:#181818;stroke-width:1;"/><polygon fill="#181818" points="621.67,127.53,617.247,118.7302,617.8037,124.3596,612.1743,124.9163,621.67,127.53" style="stroke:#181818;stroke-width:1;"/><text fill="#000000" font-family="sans-serif" font-size="13" lengthAdjust="spacing" textLength="162.6396" x="585" y="93.7869">Persistence (IRepository)</text></g><!--link GestionCompte to KafkaEvents--><g class="link" data-entity-1="GestionCompte" data-entity-2="KafkaEvents" data-source-line="19" data-uid="lnk10" id="link_GestionCompte_KafkaEvents"><path d="M568.9168,52.3871 C569.5411,52.4194 570.1704,52.4523 570.8048,52.4857 C572.0735,52.5525 573.3622,52.6216 574.6695,52.693 C579.8991,52.9786 585.4286,53.3014 591.1829,53.6652 C602.6915,54.3929 615.0991,55.2847 627.8038,56.3713 C678.6225,60.7175 734.195,68.18 756,80.72 C774.75,91.5 786.3184,106.1299 795.9184,122.3099" fill="none" id="GestionCompte-to-KafkaEvents" style="stroke:#181818;stroke-width:1;"/><polygon fill="#181818" points="798.98,127.47,797.8276,117.6888,796.4287,123.1699,790.9475,121.7709,798.98,127.47" style="stroke:#181818;stroke-width:1;"/><text fill="#000000" font-family="sans-serif" font-size="13" lengthAdjust="spacing" textLength="136.7158" x="776" y="93.7869">Notification (IEvents)</text></g><!--link GestionCompte to ICompte--><g class="link" data-entity-1="GestionCompte" data-entity-2="ICompte" data-source-line="22" data-uid="lnk11" id="link_GestionCompte_ICompte"><path d="M527.88,50.76 C525.36,51.53 484.64,64.1 455,80.72 C430.84,94.26 410.4016,109.035 391.4916,123.945" fill="none" id="GestionCompte-to-ICompte" style="stroke:#181818;stroke-width:1;"/><polygon fill="#181818" points="386.78,127.66,396.324,125.2286,390.7063,124.5642,391.3707,118.9465,386.78,127.66" style="stroke:#181818;stroke-width:1;"/><text fill="#000000" font-family="sans-serif" font-size="13" lengthAdjust="spacing" textLength="41.2661" x="456" y="93.7869">M&#233;tier</text></g><!--link GestionCompte to IAdmin--><g class="link" data-entity-1="GestionCompte" data-entity-2="IAdmin" data-source-line="23" data-uid="lnk12" id="link_GestionCompte_IAdmin"><path d="M527.97,50.77 C527.3,51.7 516.5,66.93 511,80.72 C505,95.78 501.7927,107.548 498.8327,121.648" fill="none" id="GestionCompte-to-IAdmin" style="stroke:#181818;stroke-width:1;"/><polygon fill="#181818" points="497.6,127.52,503.3637,119.5338,498.6273,122.6267,495.5344,117.8902,497.6,127.52" style="stroke:#181818;stroke-width:1;"/><text fill="#000000" font-family="sans-serif" font-size="13" lengthAdjust="spacing" textLength="41.6597" x="512" y="93.7869">Admin</text></g><!--SRC=[VLBBRi8m4BpxArPS2WT-0A58gAeg-X9gZrKFYzc0HR9ExIqgglf1V0S_LZjkaHDGJx6zCvhPcVYjuGOTrg1jtLWcbXVPLmIEj22lArBg2gxZp2CBDCwmDWrMW3lIq5WdNfseCBWbByPo90WDO3ezpOe2lfG2U7qy7iIGUmFqC4_0W3Civ4hKL1GHD5lLXXEaFPuZ5kIyyKAiAU6UANWqOjt-7FnanPH6O_IMq3UxuCdtaEgxiwq78RrXy_v1dINl6ipKUrlcm7iijvYK-gYWys28FOIhevH-gwaw4S9uN41N3oQGtuRPugCBvCn3OEP116fw7qKtYrWbrAcSO4i0s-27fu32usTGEXx8NnBwwt82lmrVmgGo9z1-e-oCsKfhnqEhf3VXjoDSLY7pC29OMX5RWorxEOHUvrs28bv1vAW-CmlX7zeF]--></g></svg>