<svg xmlns="http://www.w3.org/2000/svg" xmlns:xlink="http://www.w3.org/1999/xlink" contentStyleType="text/css" data-diagram-type="DESCRIPTION" height="305px" preserveAspectRatio="none" style="width:566px;height:305px;background:#FFFFFF;" version="1.1" viewBox="0 0 566 305" width="566px" zoomAndPan="magnify"><defs/><g><!--entity OrderService--><g class="entity" data-entity="OrderService" data-source-line="4" data-uid="ent0002" id="entity_OrderService"><rect fill="#F1F1F1" height="62.5938" rx="2.5" ry="2.5" style="stroke:#181818;stroke-width:0.5;" width="146.2783" x="31" y="7"/><rect fill="#F1F1F1" height="10" style="stroke:#181818;stroke-width:0.5;" width="15" x="157.2783" y="12"/><rect fill="#F1F1F1" height="2" style="stroke:#181818;stroke-width:0.5;" width="4" x="155.2783" y="14"/><rect fill="#F1F1F1" height="2" style="stroke:#181818;stroke-width:0.5;" width="4" x="155.2783" y="18"/><text fill="#000000" font-family="sans-serif" font-size="14" lengthAdjust="spacing" textLength="91.7725" x="46" y="39.9951">OrderService</text><text fill="#000000" font-family="sans-serif" font-size="14" lengthAdjust="spacing" textLength="106.2783" x="46" y="56.292">(orchestrateur)</text></g><!--entity InventoryService--><g class="entity" data-entity="InventoryService" data-source-line="5" data-uid="ent0003" id="entity_InventoryService"><rect fill="#F1F1F1" height="46.2969" rx="2.5" ry="2.5" style="stroke:#181818;stroke-width:0.5;" width="158.6104" x="212.5" y="15.5"/><rect fill="#F1F1F1" height="10" style="stroke:#181818;stroke-width:0.5;" width="15" x="351.1104" y="20.5"/><rect fill="#F1F1F1" height="2" style="stroke:#181818;stroke-width:0.5;" width="4" x="349.1104" y="22.5"/><rect fill="#F1F1F1" height="2" style="stroke:#181818;stroke-width:0.5;" width="4" x="349.1104" y="26.5"/><text fill="#000000" font-family="sans-serif" font-size="14" lengthAdjust="spacing" textLength="118.6104" x="227.5" y="48.4951">InventoryService</text></g><!--entity PaymentService--><g class="entity" data-entity="PaymentService" data-source-line="6" data-uid="ent0004" id="entity_PaymentService"><rect fill="#F1F1F1" height="46.2969" rx="2.5" ry="2.5" style="stroke:#181818;stroke-width:0.5;" width="153.6611" x="407" y="15.5"/><rect fill="#F1F1F1" height="10" style="stroke:#181818;stroke-width:0.5;" width="15" x="540.6611" y="20.5"/><rect fill="#F1F1F1" height="2" style="stroke:#181818;stroke-width:0.5;" width="4" x="538.6611" y="22.5"/><rect fill="#F1F1F1" height="2" style="stroke:#181818;stroke-width:0.5;" width="4" x="538.6611" y="26.5"/><text fill="#000000" font-family="sans-serif" font-size="14" lengthAdjust="spacing" textLength="113.6611" x="422" y="48.4951">PaymentService</text></g><!--entity EventBus--><g class="entity" data-entity="EventBus" data-source-line="9" data-uid="ent0005" id="entity_EventBus"><rect fill="#F1F1F1" height="62.5938" rx="2.5" ry="2.5" style="stroke:#181818;stroke-width:0.5;" width="110.3281" x="237" y="130"/><rect fill="#F1F1F1" height="10" style="stroke:#181818;stroke-width:0.5;" width="15" x="327.3281" y="135"/><rect fill="#F1F1F1" height="2" style="stroke:#181818;stroke-width:0.5;" width="4" x="325.3281" y="137"/><rect fill="#F1F1F1" height="2" style="stroke:#181818;stroke-width:0.5;" width="4" x="325.3281" y="141"/><text fill="#000000" font-family="sans-serif" font-size="14" lengthAdjust="spacing" textLength="70.3281" x="252" y="162.9951">Event Bus</text><text fill="#000000" font-family="sans-serif" font-size="14" lengthAdjust="spacing" textLength="50.2988" x="252" y="179.292">(Kafka)</text></g><!--entity NotificationService--><g class="entity" data-entity="NotificationService" data-source-line="12" data-uid="ent0006" id="entity_NotificationService"><rect fill="#F1F1F1" height="46.2969" rx="2.5" ry="2.5" style="stroke:#181818;stroke-width:0.5;" width="172.0703" x="7" y="253"/><rect fill="#F1F1F1" height="10" style="stroke:#181818;stroke-width:0.5;" width="15" x="159.0703" y="258"/><rect fill="#F1F1F1" height="2" style="stroke:#181818;stroke-width:0.5;" width="4" x="157.0703" y="260"/><rect fill="#F1F1F1" height="2" style="stroke:#181818;stroke-width:0.5;" width="4" x="157.0703" y="264"/><text fill="#000000" font-family="sans-serif" font-size="14" lengthAdjust="spacing" textLength="132.0703" x="22" y="285.9951">NotificationService</text></g><!--entity AnalyticsService--><g class="entity" data-entity="AnalyticsService" data-source-line="13" data-uid="ent0007" id="entity_AnalyticsService"><rect fill="#F1F1F1" height="46.2969" rx="2.5" ry="2.5" style="stroke:#181818;stroke-width:0.5;" width="155.3154" x="214.5" y="253"/><rect fill="#F1F1F1" height="10" style="stroke:#181818;stroke-width:0.5;" width="15" x="349.8154" y="258"/><rect fill="#F1F1F1" height="2" style="stroke:#181818;stroke-width:0.5;" width="4" x="347.8154" y="260"/><rect fill="#F1F1F1" height="2" style="stroke:#181818;stroke-width:0.5;" width="4" x="347.8154" y="264"/><text fill="#000000" font-family="sans-serif" font-size="14" lengthAdjust="spacing" textLength="115.3154" x="229.5" y="285.9951">AnalyticsService</text></g><!--entity FraudService--><g class="entity" data-entity="FraudService" data-source-line="14" data-uid="ent0008" id="entity_FraudService"><rect fill="#F1F1F1" height="46.2969" rx="2.5" ry="2.5" style="stroke:#181818;stroke-width:0.5;" width="131.8887" x="405" y="253"/><rect fill="#F1F1F1" height="10" style="stroke:#181818;stroke-width:0.5;" width="15" x="516.8887" y="258"/><rect fill="#F1F1F1" height="2" style="stroke:#181818;stroke-width:0.5;" width="4" x="514.8887" y="260"/><rect fill="#F1F1F1" height="2" style="stroke:#181818;stroke-width:0.5;" width="4" x="514.8887" y="264"/><text fill="#000000" font-family="sans-serif" font-size="14" lengthAdjust="spacing" textLength="91.8887" x="420" y="285.9951">FraudService</text></g><!--link OrderService to EventBus--><g class="link" data-entity-1="OrderService" data-entity-2="EventBus" data-source-line="17" data-uid="lnk9" id="link_OrderService_EventBus"><path d="M151.44,70.03 C179.94,88.38 211.0349,108.3923 239.5249,126.7323" fill="none" id="OrderService-to-EventBus" style="stroke:#181818;stroke-width:1;"/><polygon fill="#181818" points="244.57,129.98,239.1675,121.7451,240.3658,127.2736,234.8373,128.4719,244.57,129.98" style="stroke:#181818;stroke-width:1;"/></g><!--link InventoryService to EventBus--><g class="link" data-entity-1="InventoryService" data-entity-2="EventBus" data-source-line="18" data-uid="lnk10" id="link_InventoryService_EventBus"><path d="M292,61.69 C292,80.8 292,102.56 292,123.79" fill="none" id="InventoryService-to-EventBus" style="stroke:#181818;stroke-width:1;"/><polygon fill="#181818" points="292,129.79,296,120.79,292,124.79,288,120.79,292,129.79" style="stroke:#181818;stroke-width:1;"/></g><!--link PaymentService to EventBus--><g class="link" data-entity-1="PaymentService" data-entity-2="EventBus" data-source-line="19" data-uid="lnk11" id="link_PaymentService_EventBus"><path d="M448.78,61.69 C418.47,80.8 379.4962,105.3612 345.8062,126.5912" fill="none" id="PaymentService-to-EventBus" style="stroke:#181818;stroke-width:1;"/><polygon fill="#181818" points="340.73,129.79,350.4768,128.3759,344.9602,127.1243,346.2118,121.6077,340.73,129.79" style="stroke:#181818;stroke-width:1;"/></g><!--link EventBus to NotificationService--><g class="link" data-entity-1="EventBus" data-entity-2="NotificationService" data-source-line="22" data-uid="lnk12" id="link_EventBus_NotificationService"><path d="M237.89,193.09 C204.39,212.03 167.393,232.947 137.183,250.027" fill="none" id="EventBus-to-NotificationService" style="stroke:#181818;stroke-width:1;"/><polygon fill="#181818" points="131.96,252.98,141.7632,252.0326,136.3125,250.5192,137.8259,245.0685,131.96,252.98" style="stroke:#181818;stroke-width:1;"/></g><!--link EventBus to AnalyticsService--><g class="link" data-entity-1="EventBus" data-entity-2="AnalyticsService" data-source-line="23" data-uid="lnk13" id="link_EventBus_AnalyticsService"><path d="M292,193.24 C292,212.11 292,229.83 292,246.86" fill="none" id="EventBus-to-AnalyticsService" style="stroke:#181818;stroke-width:1;"/><polygon fill="#181818" points="292,252.86,296,243.86,292,247.86,288,243.86,292,252.86" style="stroke:#181818;stroke-width:1;"/></g><!--link EventBus to FraudService--><g class="link" data-entity-1="EventBus" data-entity-2="FraudService" data-source-line="24" data-uid="lnk14" id="link_EventBus_FraudService"><path d="M340.91,193.24 C370.93,212.11 403.6003,232.6367 430.6903,249.6667" fill="none" id="EventBus-to-FraudService" style="stroke:#181818;stroke-width:1;"/><polygon fill="#181818" points="435.77,252.86,430.2794,244.6836,431.537,250.1989,426.0217,251.4565,435.77,252.86" style="stroke:#181818;stroke-width:1;"/></g><!--SRC=[RL5DQm8n4BtlhnYys1wyz0S8jLGGeIruxMN8HXhSp2oJHBh_lXkrEhDw2hmFvhsNT0ZKes04nx5dyfHtUUWybDYzDCqSTbwEmVa4lN1RNFP5KdFLmknJMYyNqJSziRWVdx9W5JxF01DeXNPkw3Y-BCE5Eucde3PyuH1hFYMtKCtxNlsmAYRa5HmJRd5_m7Eo4robkgTZIXmZtZNzu1psmM4EJ3h30rpRNWcx8GUNj6SAQiDQiBHQh84QzOs9_EzupNmAB9QtGdfpM6XcEh1bxPwMivV_uNhMJdPZHkhHE4PmjuHXTVK_]--></g></svg>