<svg xmlns="http://www.w3.org/2000/svg" xmlns:xlink="http://www.w3.org/1999/xlink" contentStyleType="text/css" data-diagram-type="DESCRIPTION" height="363px" preserveAspectRatio="none" style="width:1365px;height:363px;background:#FFFFFF;" version="1.1" viewBox="0 0 1365 363" width="1365px" zoomAndPan="magnify"><defs/><g><!--cluster Kubernetes Cluster--><g class="cluster" data-entity="Kubernetes Cluster" data-source-line="7" data-uid="ent0002" id="cluster_Kubernetes Cluster"><path d="M8.5,6 L162.0576,6 A3.75,3.75 0 0 1 164.5576,8.5 L171.5576,28.2969 L1355.5,28.2969 A2.5,2.5 0 0 1 1358,30.7969 L1358,353.5 A2.5,2.5 0 0 1 1355.5,356 L8.5,356 A2.5,2.5 0 0 1 6,353.5 L6,8.5 A2.5,2.5 0 0 1 8.5,6" fill="none" style="stroke:#000000;stroke-width:1.5;"/><line style="stroke:#000000;stroke-width:1.5;" x1="6" x2="171.5576" y1="28.2969" y2="28.2969"/><text fill="#000000" font-family="sans-serif" font-size="14" font-weight="bold" lengthAdjust="spacing" textLength="152.5576" x="10" y="20.9951">Kubernetes Cluster</text></g><!--cluster Namespace: banking--><g class="cluster" data-entity="Namespace: banking" data-source-line="9" data-uid="ent0003" id="cluster_Namespace: banking"><path d="M32.5,49 L198.3486,49 A3.75,3.75 0 0 1 200.8486,51.5 L207.8486,71.2969 L815.5,71.2969 A2.5,2.5 0 0 1 818,73.7969 L818,329.5 A2.5,2.5 0 0 1 815.5,332 L32.5,332 A2.5,2.5 0 0 1 30,329.5 L30,51.5 A2.5,2.5 0 0 1 32.5,49" fill="none" style="stroke:#000000;stroke-width:1.5;"/><line style="stroke:#000000;stroke-width:1.5;" x1="30" x2="207.8486" y1="71.2969" y2="71.2969"/><text fill="#000000" font-family="sans-serif" font-size="14" font-weight="bold" lengthAdjust="spacing" textLength="164.8486" x="34" y="63.9951">Namespace: banking</text></g><!--cluster Pod: comptes--><g class="cluster" data-entity="Pod: comptes" data-source-line="12" data-uid="ent0004" id="cluster_Pod: comptes"><path d="M558.5,92 L666.9199,92 A3.75,3.75 0 0 1 669.4199,94.5 L676.4199,114.2969 L791.5,114.2969 A2.5,2.5 0 0 1 794,116.7969 L794,305.5 A2.5,2.5 0 0 1 791.5,308 L558.5,308 A2.5,2.5 0 0 1 556,305.5 L556,94.5 A2.5,2.5 0 0 1 558.5,92" fill="none" style="stroke:#000000;stroke-width:1.5;"/><line style="stroke:#000000;stroke-width:1.5;" x1="556" x2="676.4199" y1="114.2969" y2="114.2969"/><text fill="#000000" font-family="sans-serif" font-size="14" font-weight="bold" lengthAdjust="spacing" textLength="107.4199" x="560" y="106.9951">Pod: comptes</text></g><!--cluster Pod: operations--><g class="cluster" data-entity="Pod: operations" data-source-line="18" data-uid="ent0007" id="cluster_Pod: operations"><path d="M326.5,92 L452.7686,92 A3.75,3.75 0 0 1 455.2686,94.5 L462.2686,114.2969 L529.5,114.2969 A2.5,2.5 0 0 1 532,116.7969 L532,305.5 A2.5,2.5 0 0 1 529.5,308 L326.5,308 A2.5,2.5 0 0 1 324,305.5 L324,94.5 A2.5,2.5 0 0 1 326.5,92" fill="none" style="stroke:#000000;stroke-width:1.5;"/><line style="stroke:#000000;stroke-width:1.5;" x1="324" x2="462.2686" y1="114.2969" y2="114.2969"/><text fill="#000000" font-family="sans-serif" font-size="14" font-weight="bold" lengthAdjust="spacing" textLength="125.2686" x="328" y="106.9951">Pod: operations</text></g><!--cluster Pod: fraude--><g class="cluster" data-entity="Pod: fraude" data-source-line="24" data-uid="ent0010" id="cluster_Pod: fraude"><path d="M56.5,92 L149.7988,92 A3.75,3.75 0 0 1 152.2988,94.5 L159.2988,114.2969 L297.5,114.2969 A2.5,2.5 0 0 1 300,116.7969 L300,297.5 A2.5,2.5 0 0 1 297.5,300 L56.5,300 A2.5,2.5 0 0 1 54,297.5 L54,94.5 A2.5,2.5 0 0 1 56.5,92" fill="none" style="stroke:#000000;stroke-width:1.5;"/><line style="stroke:#000000;stroke-width:1.5;" x1="54" x2="159.2988" y1="114.2969" y2="114.2969"/><text fill="#000000" font-family="sans-serif" font-size="14" font-weight="bold" lengthAdjust="spacing" textLength="92.2988" x="58" y="106.9951">Pod: fraude</text></g><!--cluster Infrastructure Services--><g class="cluster" data-entity="Infrastructure Services" data-source-line="32" data-uid="ent0013" id="cluster_Infrastructure Services"><path d="M844.5,200 L1027.7803,200 A3.75,3.75 0 0 1 1030.2803,202.5 L1037.2803,222.2969 L1331.5,222.2969 A2.5,2.5 0 0 1 1334,224.7969 L1334,293.5 A2.5,2.5 0 0 1 1331.5,296 L844.5,296 A2.5,2.5 0 0 1 842,293.5 L842,202.5 A2.5,2.5 0 0 1 844.5,200" fill="none" style="stroke:#000000;stroke-width:1.5;"/><line style="stroke:#000000;stroke-width:1.5;" x1="842" x2="1037.2803" y1="222.2969" y2="222.2969"/><text fill="#000000" font-family="sans-serif" font-size="14" font-weight="bold" lengthAdjust="spacing" textLength="182.2803" x="846" y="214.9951">Infrastructure Services</text></g><!--entity GestionCompte--><g class="entity" data-entity="GestionCompte" data-source-line="13" data-uid="ent0005" id="entity_GestionCompte"><rect fill="#F1F1F1" height="36.2969" rx="2.5" ry="2.5" style="stroke:#181818;stroke-width:0.5;" width="206.1221" x="572" y="127"/><text fill="#000000" font-family="sans-serif" font-size="14" lengthAdjust="spacing" textLength="186.1221" x="582" y="149.9951">Container: GestionCompte</text></g><!--entity DaprCompte--><g class="entity" data-entity="DaprCompte" data-source-line="14" data-uid="ent0006" id="entity_DaprCompte"><rect fill="#F1F1F1" height="68.8906" rx="2.5" ry="2.5" style="stroke:#181818;stroke-width:0.5;" width="110.7607" x="619.5" y="223"/><text fill="#000000" font-family="sans-serif" font-size="14" lengthAdjust="spacing" textLength="90.7607" x="629.5" y="245.9951">Dapr Sidecar</text><text fill="#000000" font-family="sans-serif" font-size="14" lengthAdjust="spacing" textLength="46.5596" x="629.5" y="262.292">- State</text><text fill="#000000" font-family="sans-serif" font-size="14" lengthAdjust="spacing" textLength="62.3506" x="629.5" y="278.5889">- PubSub</text></g><!--entity Operations--><g class="entity" data-entity="Operations" data-source-line="19" data-uid="ent0008" id="entity_Operations"><rect fill="#F1F1F1" height="36.2969" rx="2.5" ry="2.5" style="stroke:#181818;stroke-width:0.5;" width="174.5469" x="340.5" y="127"/><text fill="#000000" font-family="sans-serif" font-size="14" lengthAdjust="spacing" textLength="154.5469" x="350.5" y="149.9951">Container: Operations</text></g><!--entity DaprOperations--><g class="entity" data-entity="DaprOperations" data-source-line="20" data-uid="ent0009" id="entity_DaprOperations"><rect fill="#F1F1F1" height="68.8906" rx="2.5" ry="2.5" style="stroke:#181818;stroke-width:0.5;" width="110.7607" x="372.5" y="223"/><text fill="#000000" font-family="sans-serif" font-size="14" lengthAdjust="spacing" textLength="90.7607" x="382.5" y="245.9951">Dapr Sidecar</text><text fill="#000000" font-family="sans-serif" font-size="14" lengthAdjust="spacing" textLength="62.3506" x="382.5" y="262.292">- PubSub</text><text fill="#000000" font-family="sans-serif" font-size="14" lengthAdjust="spacing" textLength="82.4482" x="382.5" y="278.5889">- Invocation</text></g><!--entity DetectionFraude--><g class="entity" data-entity="DetectionFraude" data-source-line="25" data-uid="ent0011" id="entity_DetectionFraude"><rect fill="#F1F1F1" height="36.2969" rx="2.5" ry="2.5" style="stroke:#181818;stroke-width:0.5;" width="214.3525" x="70" y="127"/><text fill="#000000" font-family="sans-serif" font-size="14" lengthAdjust="spacing" textLength="194.3525" x="80" y="149.9951">Container: DetectionFraude</text></g><!--entity DaprFraude--><g class="entity" data-entity="DaprFraude" data-source-line="26" data-uid="ent0012" id="entity_DaprFraude"><rect fill="#F1F1F1" height="52.5938" rx="2.5" ry="2.5" style="stroke:#181818;stroke-width:0.5;" width="113.4473" x="120.5" y="231"/><text fill="#000000" font-family="sans-serif" font-size="14" lengthAdjust="spacing" textLength="90.7607" x="130.5" y="253.9951">Dapr Sidecar</text><text fill="#000000" font-family="sans-serif" font-size="14" lengthAdjust="spacing" textLength="93.4473" x="130.5" y="270.292">- PubSub Sub</text></g><!--entity PostgreSQL--><g class="entity" data-entity="PostgreSQL" data-source-line="33" data-uid="ent0014" id="entity_PostgreSQL"><path d="M1166,245 C1166,235 1241.7959,235 1241.7959,235 C1241.7959,235 1317.5918,235 1317.5918,245 L1317.5918,270.2969 C1317.5918,280.2969 1241.7959,280.2969 1241.7959,280.2969 C1241.7959,280.2969 1166,280.2969 1166,270.2969 L1166,245" fill="#F1F1F1" style="stroke:#181818;stroke-width:0.5;"/><path d="M1166,245 C1166,255 1241.7959,255 1241.7959,255 C1241.7959,255 1317.5918,255 1317.5918,245" fill="none" style="stroke:#181818;stroke-width:0.5;"/><text fill="#000000" font-family="sans-serif" font-size="14" lengthAdjust="spacing" textLength="131.5918" x="1176" y="271.9951">PostgreSQL (state)</text></g><!--entity Kafka--><g class="entity" data-entity="Kafka" data-source-line="34" data-uid="ent0015" id="entity_Kafka"><path d="M1009,245 C1009,235 1069.9585,235 1069.9585,235 C1069.9585,235 1130.917,235 1130.917,245 L1130.917,270.2969 C1130.917,280.2969 1069.9585,280.2969 1069.9585,280.2969 C1069.9585,280.2969 1009,280.2969 1009,270.2969 L1009,245" fill="#F1F1F1" style="stroke:#181818;stroke-width:0.5;"/><path d="M1009,245 C1009,255 1069.9585,255 1069.9585,255 C1069.9585,255 1130.917,255 1130.917,245" fill="none" style="stroke:#181818;stroke-width:0.5;"/><text fill="#000000" font-family="sans-serif" font-size="14" lengthAdjust="spacing" textLength="101.917" x="1019" y="271.9951">Kafka (events)</text></g><!--entity Redis--><g class="entity" data-entity="Redis" data-source-line="35" data-uid="ent0016" id="entity_Redis"><path d="M858.5,245 C858.5,235 916.1226,235 916.1226,235 C916.1226,235 973.7451,235 973.7451,245 L973.7451,270.2969 C973.7451,280.2969 916.1226,280.2969 916.1226,280.2969 C916.1226,280.2969 858.5,280.2969 858.5,270.2969 L858.5,245" fill="#F1F1F1" style="stroke:#181818;stroke-width:0.5;"/><path d="M858.5,245 C858.5,255 916.1226,255 916.1226,255 C916.1226,255 973.7451,255 973.7451,245" fill="none" style="stroke:#181818;stroke-width:0.5;"/><text fill="#000000" font-family="sans-serif" font-size="14" lengthAdjust="spacing" textLength="95.2451" x="868.5" y="271.9951">Redis (cache)</text></g><!--link GestionCompte to PostgreSQL--><g class="link" data-entity-1="GestionCompte" data-entity-2="PostgreSQL" data-source-line="41" data-uid="lnk17" id="link_GestionCompte_PostgreSQL"><path d="M778.25,149.94 C896.75,155.53 1083.22,167.87 1149,192 C1175.01,201.54 1195.9713,216.2981 1213.7013,231.0781" fill="none" id="GestionCompte-to-PostgreSQL" style="stroke:#181818;stroke-width:1;"/><polygon fill="#181818" points="1218.31,234.92,1213.9582,226.0847,1214.4694,231.7184,1208.8357,232.2296,1218.31,234.92" style="stroke:#181818;stroke-width:1;"/></g><!--link Operations to Kafka--><g class="link" data-entity-1="Operations" data-entity-2="Kafka" data-source-line="42" data-uid="lnk18" id="link_Operations_Kafka"><path d="M515.7,158.42 C529.18,160.11 542.95,161.7 556,163 C652.4,172.6 900.87,156.46 991,192 C1014.22,201.16 1031.6103,215.5345 1046.3403,230.4245" fill="none" id="Operations-to-Kafka" style="stroke:#181818;stroke-width:1;"/><polygon fill="#181818" points="1050.56,234.69,1047.0742,225.4786,1047.0436,231.1354,1041.3868,231.1049,1050.56,234.69" style="stroke:#181818;stroke-width:1;"/></g><!--link DetectionFraude to Kafka--><g class="link" data-entity-1="DetectionFraude" data-entity-2="Kafka" data-source-line="43" data-uid="lnk19" id="link_DetectionFraude_Kafka"><path d="M284.09,159.29 C297.52,160.69 311.07,161.97 324,163 C397.95,168.88 921.68,165.59 991,192 C1014.49,200.95 1032.0347,215.5305 1046.7347,230.5605" fill="none" id="DetectionFraude-to-Kafka" style="stroke:#181818;stroke-width:1;"/><polygon fill="#181818" points="1050.93,234.85,1047.4967,225.6189,1047.4339,231.2754,1041.7774,231.2127,1050.93,234.85" style="stroke:#181818;stroke-width:1;"/></g><!--link GestionCompte to DaprCompte--><g class="link" data-entity-1="GestionCompte" data-entity-2="DaprCompte" data-source-line="44" data-uid="lnk20" id="link_GestionCompte_DaprCompte"><path d="M675,163.27 C675,179.17 675,197.21 675,216.9" fill="none" id="GestionCompte-to-DaprCompte" style="stroke:#181818;stroke-width:1;"/><polygon fill="#181818" points="675,222.9,679,213.9,675,217.9,671,213.9,675,222.9" style="stroke:#181818;stroke-width:1;"/></g><!--link Operations to DaprOperations--><g class="link" data-entity-1="Operations" data-entity-2="DaprOperations" data-source-line="45" data-uid="lnk21" id="link_Operations_DaprOperations"><path d="M428,163.27 C428,179.17 428,197.21 428,216.9" fill="none" id="Operations-to-DaprOperations" style="stroke:#181818;stroke-width:1;"/><polygon fill="#181818" points="428,222.9,432,213.9,428,217.9,424,213.9,428,222.9" style="stroke:#181818;stroke-width:1;"/></g><!--link DetectionFraude to DaprFraude--><g class="link" data-entity-1="DetectionFraude" data-entity-2="DaprFraude" data-source-line="46" data-uid="lnk22" id="link_DetectionFraude_DaprFraude"><path d="M177,163.27 C177,181.35 177,203.97 177,224.73" fill="none" id="DetectionFraude-to-DaprFraude" style="stroke:#181818;stroke-width:1;"/><polygon fill="#181818" points="177,230.73,181,221.73,177,225.73,173,221.73,177,230.73" style="stroke:#181818;stroke-width:1;"/></g><!--SRC=[ZL9DJy904BttLqpg0JoGU3GSF5XIOp22zkfbkXtAXhBRx0V66FwxsosKRK6nQPhTDs_UlEcCtd1Hey8jCBcjfI1XClDL4IXY1aLPKQGxIeV1TmIGhR6GdroKiC9AaqCUaMrA9Qqe4bb91JVfNNgVfj4-YceNmf8WdjkSb2136fBAQaCgTcekkMEyufQqkz4KSXIkU7bW08nWAGllrELxfCjoWUan4dj_pTCr1N4YXK4kI4tXYRJXKYIU7GFgFdAUEyDQGSOBOgW-n0GoWuQQmzBccSszHCC9ylUXOrcJmgR09TEdu3NVYu3fAYxwgdywReqsfsUnayodTRO7GZthAuMse0kssy0ropCtQTP8fmTwKxAF_TSyX7ywIFLs_MVacdEsj56M6Qi8Cb8xplogTEP_eHmRAT1WZjftgKsfA7jxWR5k1dxhgv_W0N-Egmt2c7Qk1zroFJIWlLF1DOmPilL1qIDj3-uTkNlLJWDggJNFAzT0Rq5XCda8VPpcvoDjrS5V3YBdMi7k3hG6wt59z3IE7m00]--></g></svg>