<svg xmlns="http://www.w3.org/2000/svg" xmlns:xlink="http://www.w3.org/1999/xlink" contentStyleType="text/css" data-diagram-type="DESCRIPTION" height="725px" preserveAspectRatio="none" style="width:1380px;height:725px;background:#FFFFFF;" version="1.1" viewBox="0 0 1380 725" width="1380px" zoomAndPan="magnify"><defs/><g><!--cluster GestionComptes--><g class="cluster" data-entity="GestionComptes" data-source-line="8" data-uid="ent0002" id="cluster_GestionComptes"><rect fill="none" height="152" rx="2.5" ry="2.5" style="stroke:#181818;stroke-width:1;" width="578" x="616" y="441"/><text fill="#000000" font-family="sans-serif" font-size="14" font-style="italic" lengthAdjust="spacing" textLength="96.4824" x="856.7588" y="455.9951">&#171;component&#187;</text><text fill="#000000" font-family="sans-serif" font-size="14" font-weight="bold" lengthAdjust="spacing" textLength="129.418" x="840.291" y="472.292">GestionComptes</text></g><!--cluster GestionOperations--><g class="cluster" data-entity="GestionOperations" data-source-line="21" data-uid="ent0008" id="cluster_GestionOperations"><rect fill="none" height="152" rx="2.5" ry="2.5" style="stroke:#181818;stroke-width:1;" width="546" x="736" y="224"/><text fill="#000000" font-family="sans-serif" font-size="14" font-style="italic" lengthAdjust="spacing" textLength="96.4824" x="960.7588" y="238.9951">&#171;component&#187;</text><text fill="#000000" font-family="sans-serif" font-size="14" font-weight="bold" lengthAdjust="spacing" textLength="147.5742" x="935.2129" y="255.292">GestionOperations</text></g><!--cluster DetectionFraude--><g class="cluster" data-entity="DetectionFraude" data-source-line="33" data-uid="ent0014" id="cluster_DetectionFraude"><rect fill="none" height="152" rx="2.5" ry="2.5" style="stroke:#181818;stroke-width:1;" width="487" x="616" y="7"/><text fill="#000000" font-family="sans-serif" font-size="14" font-style="italic" lengthAdjust="spacing" textLength="96.4824" x="811.2588" y="21.9951">&#171;component&#187;</text><text fill="#000000" font-family="sans-serif" font-size="14" font-weight="bold" lengthAdjust="spacing" textLength="132.0771" x="793.4614" y="38.292">DetectionFraude</text></g><!--entity GCProvided--><g class="entity" data-entity="GCProvided" data-source-line="9" data-uid="ent0003" id="entity_GCProvided"><rect fill="#F9F9F9" height="68.8906" rx="2.5" ry="2.5" style="stroke:#181818;stroke-width:0.5;" width="208.877" x="960.5" y="500"/><text fill="#000000" font-family="sans-serif" font-size="14" lengthAdjust="spacing" textLength="92.8936" x="970.5" y="522.9951">Ports fournis:</text><text fill="#000000" font-family="sans-serif" font-size="14" lengthAdjust="spacing" textLength="188.877" x="970.5" y="539.292">&#9675; ICompteService (m&#233;tier)</text><text fill="#000000" font-family="sans-serif" font-size="14" lengthAdjust="spacing" textLength="182.6152" x="970.5" y="555.5889">&#9675; ICompteQuery (lecture)</text></g><!--entity GCRequired--><g class="entity" data-entity="GCRequired" data-source-line="10" data-uid="ent0004" id="entity_GCRequired"><rect fill="#F9F9F9" height="68.8906" rx="2.5" ry="2.5" style="stroke:#181818;stroke-width:0.5;" width="265.7793" x="659" y="500"/><text fill="#000000" font-family="sans-serif" font-size="14" lengthAdjust="spacing" textLength="88.0264" x="669" y="522.9951">Ports requis:</text><text fill="#000000" font-family="sans-serif" font-size="14" lengthAdjust="spacing" textLength="245.7793" x="669" y="539.292">&#9668; ICompteRepository (persistence)</text><text fill="#000000" font-family="sans-serif" font-size="14" lengthAdjust="spacing" textLength="226.249" x="669" y="555.5889">&#9668; IEventPublisher (&#233;v&#233;nements)</text></g><!--entity GOProvided--><g class="entity" data-entity="GOProvided" data-source-line="22" data-uid="ent0009" id="entity_GOProvided"><rect fill="#F9F9F9" height="52.5938" rx="2.5" ry="2.5" style="stroke:#181818;stroke-width:0.5;" width="162.208" x="1096" y="291"/><text fill="#000000" font-family="sans-serif" font-size="14" lengthAdjust="spacing" textLength="92.8936" x="1106" y="313.9951">Ports fournis:</text><text fill="#000000" font-family="sans-serif" font-size="14" lengthAdjust="spacing" textLength="142.208" x="1106" y="330.292">&#9675; IOperationService</text></g><!--entity GORequired--><g class="entity" data-entity="GORequired" data-source-line="23" data-uid="ent0010" id="entity_GORequired"><rect fill="#F9F9F9" height="68.8906" rx="2.5" ry="2.5" style="stroke:#181818;stroke-width:0.5;" width="280.7773" x="779.5" y="283"/><text fill="#000000" font-family="sans-serif" font-size="14" lengthAdjust="spacing" textLength="88.0264" x="789.5" y="305.9951">Ports requis:</text><text fill="#000000" font-family="sans-serif" font-size="14" lengthAdjust="spacing" textLength="260.7773" x="789.5" y="322.292">&#9668; ICompteService (autre composant)</text><text fill="#000000" font-family="sans-serif" font-size="14" lengthAdjust="spacing" textLength="123.9697" x="789.5" y="338.5889">&#9668; IEventPublisher</text></g><!--entity DFProvided--><g class="entity" data-entity="DFProvided" data-source-line="34" data-uid="ent0015" id="entity_DFProvided"><rect fill="#F9F9F9" height="52.5938" rx="2.5" ry="2.5" style="stroke:#181818;stroke-width:0.5;" width="144.667" x="933.5" y="74"/><text fill="#000000" font-family="sans-serif" font-size="14" lengthAdjust="spacing" textLength="92.8936" x="943.5" y="96.9951">Ports fournis:</text><text fill="#000000" font-family="sans-serif" font-size="14" lengthAdjust="spacing" textLength="124.667" x="943.5" y="113.292">&#9675; IFraudeAnalyse</text></g><!--entity DFRequired--><g class="entity" data-entity="DFRequired" data-source-line="35" data-uid="ent0016" id="entity_DFRequired"><rect fill="#F9F9F9" height="68.8906" rx="2.5" ry="2.5" style="stroke:#181818;stroke-width:0.5;" width="238.6064" x="659.5" y="66"/><text fill="#000000" font-family="sans-serif" font-size="14" lengthAdjust="spacing" textLength="88.0264" x="669.5" y="88.9951">Ports requis:</text><text fill="#000000" font-family="sans-serif" font-size="14" lengthAdjust="spacing" textLength="197.2168" x="669.5" y="105.292">&#9668; IEventSubscriber (&#233;coute)</text><text fill="#000000" font-family="sans-serif" font-size="14" lengthAdjust="spacing" textLength="218.6064" x="669.5" y="121.5889">&#9668; IMLModel (machine learning)</text></g><g class="entity" data-entity="GMN5" data-source-line="14" data-uid="ent0006" id="entity_GMN5"><path d="M561.5,648 L561.5,718.5313 L686.9697,718.5313 L686.9697,658 L676.9697,648 L561.5,648" fill="#FEFFDD" style="stroke:#181818;stroke-width:0.5;"/><path d="M676.9697,648 L676.9697,658 L686.9697,658 L676.9697,648" fill="#FEFFDD" style="stroke:#181818;stroke-width:1;"/><text fill="#000000" font-family="sans-serif" font-size="13" lengthAdjust="spacing" textLength="83.5732" x="567.5" y="665.0669">Events &#233;mis:</text><text fill="#000000" font-family="sans-serif" font-size="13" lengthAdjust="spacing" textLength="104.4697" x="567.5" y="680.1997">- CompteOuvert</text><text fill="#000000" font-family="sans-serif" font-size="13" lengthAdjust="spacing" textLength="101.3467" x="567.5" y="695.3325">- CompteFerme</text><text fill="#000000" font-family="sans-serif" font-size="13" lengthAdjust="spacing" textLength="92.1108" x="567.5" y="710.4653">- SoldeModifie</text></g><g class="entity" data-entity="GMN11" data-source-line="27" data-uid="ent0012" id="entity_GMN11"><path d="M1218.5,507 L1218.5,562.3984 L1373.4038,562.3984 L1373.4038,517 L1363.4038,507 L1218.5,507" fill="#FEFFDD" style="stroke:#181818;stroke-width:0.5;"/><path d="M1363.4038,507 L1363.4038,517 L1373.4038,517 L1363.4038,507" fill="#FEFFDD" style="stroke:#181818;stroke-width:1;"/><text fill="#000000" font-family="sans-serif" font-size="13" lengthAdjust="spacing" textLength="83.5732" x="1224.5" y="524.0669">Events &#233;mis:</text><text fill="#000000" font-family="sans-serif" font-size="13" lengthAdjust="spacing" textLength="133.9038" x="1224.5" y="539.1997">- OperationExecutee</text><text fill="#000000" font-family="sans-serif" font-size="13" lengthAdjust="spacing" textLength="126.1343" x="1224.5" y="554.3325">- OperationRefusee</text></g><g class="entity" data-entity="GMN17" data-source-line="39" data-uid="ent0018" id="entity_GMN17"><path d="M6,267 L6,367.7969 L553.9443,367.7969 L553.9443,277 L543.9443,267 L6,267" fill="#FEFFDD" style="stroke:#181818;stroke-width:0.5;"/><path d="M543.9443,267 L543.9443,277 L553.9443,277 L543.9443,267" fill="#FEFFDD" style="stroke:#181818;stroke-width:1;"/><text fill="#000000" font-family="sans-serif" font-size="13" lengthAdjust="spacing" textLength="103.7334" x="12" y="284.0669">Events &#233;cout&#233;s:</text><text fill="#000000" font-family="sans-serif" font-size="13" lengthAdjust="spacing" textLength="289.7769" x="12" y="299.1997">- OperationExecutee (de GestionOperations)</text><text fill="#000000" font-family="sans-serif" font-size="13" lengthAdjust="spacing" textLength="234.3301" x="12" y="314.3325">- SoldeModifie (de GestionComptes)</text><text fill="#000000" font-family="sans-serif" font-size="13" lengthAdjust="spacing" textLength="4.1323" x="12" y="329.4653">&#160;</text><text fill="#000000" font-family="sans-serif" font-size="13" lengthAdjust="spacing" textLength="170.4409" x="12" y="344.5981">Comportement &#233;mergent:</text><text fill="#000000" font-family="sans-serif" font-size="13" lengthAdjust="spacing" textLength="526.9443" x="12" y="359.731">D&#233;tection de patterns de fraude par corr&#233;lation d'&#233;v&#233;nements multi-composants</text></g><!--link GestionComptes to GMN5--><g class="link" data-entity-1="GestionComptes" data-entity-2="GMN5" data-source-line="14" data-uid="lnk7" id="link_GestionComptes_GMN5"><path d="M624,593.3566 C624,593.733 624,594.1099 624,594.4873 C624,600.5266 624,606.7019 624,612.8413 C624,625.12 624,637.255 624,647.87" fill="none" id="GestionComptes-GMN5" style="stroke:#181818;stroke-width:1;stroke-dasharray:7.0,7.0;"/></g><!--link GestionOperations to GMN11--><g class="link" data-entity-1="GestionOperations" data-entity-2="GMN11" data-source-line="27" data-uid="lnk13" id="link_GestionOperations_GMN11"><path d="M751.2337,376.326 C751.4534,376.7856 751.6789,377.2421 751.9102,377.695 C752.8353,379.5068 753.854,381.2627 754.9751,382.9445 C757.2172,386.308 759.8688,389.375 763,392 C772.03,399.57 1175.28,420.11 1186,425 C1225.04,442.82 1258.25,480.75 1277.67,506.69" fill="none" id="GestionOperations-GMN11" style="stroke:#181818;stroke-width:1;stroke-dasharray:7.0,7.0;"/></g><!--link DetectionFraude to GMN17--><g class="link" data-entity-1="DetectionFraude" data-entity-2="GMN17" data-source-line="39" data-uid="lnk19" id="link_DetectionFraude_GMN17"><path d="M615.6577,106.7165 C610.7309,109.7957 603.7791,114.1404 595.225,119.4864 C578.1169,130.1784 554.6,144.8756 528.0575,161.4637 C474.9725,194.64 409.785,235.38 359.56,266.77" fill="none" id="DetectionFraude-GMN17" style="stroke:#181818;stroke-width:1;stroke-dasharray:7.0,7.0;"/></g><!--link GestionOperations to GestionComptes--><g class="link" data-entity-1="GestionOperations" data-entity-2="GestionComptes" data-source-line="48" data-uid="lnk20" id="link_GestionOperations_GestionComptes"><path d="M735.9743,357.6063 C735.9334,357.7292 735.8923,357.8521 735.851,357.9751 C735.7683,358.221 735.6849,358.4672 735.6006,358.7135 C734.2526,362.655 732.6957,366.641 730.8992,370.5461 C727.3063,378.3563 722.755,385.8425 717,392 C692.41,418.31 665.15,396.6 643,425 C639.295,429.75 638.738,429.5304 636.1836,435.0394" fill="none" id="GestionOperations-to-GestionComptes" style="stroke:#181818;stroke-width:1;"/><polygon fill="#181818" points="633.6597,440.4828,641.0745,434.0004,635.763,435.9466,633.8167,430.6351,633.6597,440.4828" style="stroke:#181818;stroke-width:1;"/><text fill="#000000" font-family="sans-serif" font-size="13" lengthAdjust="spacing" textLength="102.9209" x="707" y="413.0669">ICompteService</text></g><!--link DetectionFraude to GestionOperations--><g class="link" data-entity-1="DetectionFraude" data-entity-2="GestionOperations" data-source-line="49" data-uid="lnk21" id="link_DetectionFraude_GestionOperations"><path d="M634.2437,159.203 C635.099,161.107 636.0248,162.9769 637.0268,164.7972 C639.0309,168.4378 641.34,171.88 644,175 C667.1,202.1 694.2,180.65 717,208 C724.8325,217.3925 730.445,228.7331 734.4558,240.4942 C734.9571,241.9644 733.6795,237.7032 734.132,239.1835" fill="none" id="DetectionFraude-to-GestionOperations" style="stroke:#181818;stroke-width:1;"/><polygon fill="#181818" points="735.886,244.9214,737.0802,235.1452,734.4243,240.1398,729.4297,237.4838,735.886,244.9214" style="stroke:#181818;stroke-width:1;"/><text fill="#000000" font-family="sans-serif" font-size="13" lengthAdjust="spacing" textLength="125.0806" x="708" y="196.0669">OperationExecutee</text></g><!--link DetectionFraude to GestionComptes--><g class="link" data-entity-1="DetectionFraude" data-entity-2="GestionComptes" data-source-line="50" data-uid="lnk22" id="link_DetectionFraude_GestionComptes"><path d="M624,159.9361 C624,161.1159 624,162.3095 624,163.5165 C624,165.9304 624,168.3978 624,170.9155 C624,211.1984 624,264.3594 624,317.5187 C624,344.0984 624,370.6777 624,395.6467 C624,408.1312 624,420.2131 624,431.6912 C624,434.5607 624,431.3925 624,434.1833" fill="none" id="DetectionFraude-to-GestionComptes" style="stroke:#181818;stroke-width:1;"/><polygon fill="#181818" points="624,440.1833,628,431.1833,624,435.1833,620,431.1833,624,440.1833" style="stroke:#181818;stroke-width:1;"/><text fill="#000000" font-family="sans-serif" font-size="13" lengthAdjust="spacing" textLength="83.2876" x="625" y="322.0669">SoldeModifie</text></g><!--SRC=[dLHBZjf04Dtx52Mo6BpW044Zf0I6KQIC8B3Dfh7Bq9fsDwdk9a5HTjdb03c3p-6Rv2GfVp36U6QIaJVTzNlrNbNRFagz5oHIY4owDngrMxkZGY2CdD1RXO5jGXeRV0y0rZiHcwzIRo4HoY9RteleSKl6wtXgb25uCtzRVC6F8BY1QL7V2ktW7gsJHXS6XpPeW65mwHd0xMtZd4nAq7CBWwKXPo4ndhIquy_wp-zVyA5ANICTP8GmJFFCIQJmmll98nrXgBYK9mm782pSJvTa3ZB6k0-4y8klCNwUggoGwKXdYb9x92kjGnrXM0VT7RZffTyeQNT8CCopGvvfJDbgJv2heYmn90kaZKFO6ETC2YRfQWHGrhEGPoatmlSHLBw5Fo2vbc6Eb69vNniLuuE9PI8nG1r3WT4xYWKJ4CMXRnfdvsi6qcJNCwceB_vNxMQYmZl2QbaB1lroro0lwziYtYTnuxxxXf5tY9VM5IRUubFQpj0nCmwRa_0njfNjk5wZQvNvJWjrj9Mei_c_YrfINVkDZKXkglMC31CyoVdmaVS65JyW4UsaHb0e65rlmnhg6Mcxl5l25XXvzfIuC8pnUZ3XrIwtu-e74WOSLKfFhdnZnHIHjdmgm6Ry6wXw0axT2-UGj2tEITaZcuXtYYZFbAZ2RjeF5bAld1mrMsSlHhx2Aia2nxQNqmPNR60qcdHwXt5doOEEWksSLgLnpte-atb6Qslv5m00]--></g></svg>